<svg width="480" height="480" xmlns="http://www.w3.org/2000/svg" xmlns:svg="http://www.w3.org/2000/svg">
 <g>
  <path id="svg_3" fill="#69696C" d="m240,480c-132.54687,0 -240,-107.45312 -240,-240s107.45313,-240 240,-240s240,107.45313 240,240c-0.14844,132.48438 -107.51562,239.85156 -240,240zm0,-464c-123.71094,0 -224,100.28906 -224,224s100.28906,224 224,224s224,-100.28906 224,-224c-0.14062,-123.65234 -100.34766,-223.85937 -224,-224zm0,0"/>
  <path id="svg_4" fill="#926333" d="m360,224l-32,0l0,-32l-32,0l0,32l-50.09766,0c-8.05468,-31.20312 -38.05859,-51.55078 -70.03125,-47.48828c-31.96875,4.05859 -55.93359,31.26172 -55.93359,63.48828s23.96484,59.42969 55.93359,63.48828c31.97266,4.0625 61.97657,-16.28515 70.03125,-47.48828l98.09766,0l16,-32zm0,0"/>
  <path id="svg_5" fill="#69696C" d="m200,240c0,8.83594 -7.16406,16 -16,16s-16,-7.16406 -16,-16s7.16406,-16 16,-16s16,7.16406 16,16zm0,0"/>
 </g>
</svg>