<svg width="480" height="480" xmlns="http://www.w3.org/2000/svg" xmlns:svg="http://www.w3.org/2000/svg">
 <g>
  <path id="svg_3" fill="#69696c" d="m240,480c-132.54687,0 -240,-107.45312 -240,-240s107.45313,-240 240,-240s240,107.45313 240,240c-0.14844,132.48438 -107.51562,239.85156 -240,240zm0,-464c-123.71094,0 -224,100.28906 -224,224s100.28906,224 224,224s224,-100.28906 224,-224c-0.14062,-123.65234 -100.34766,-223.85937 -224,-224zm0,0"/>
  <path id="svg_4" class="active-path" fill="#926333" d="m362.49999,328l-244.99999,0l122.5,-208l122.5,208zm0,0"/>
  <g stroke="null" id="svg_5" fill="#8690fa">
   <path fill="#69696c" stroke="null" id="svg_6" d="m240,256c-4.41797,0 -8,-3.58203 -8,-8l0,-48c0,-4.41797 3.58203,-8 8,-8s8,3.58203 8,8l0,48c0,4.41797 -3.58203,8 -8,8zm0,0"/>
   <path fill="#69696c" stroke="null" id="svg_7" d="m248,280c0,4.41797 -3.58203,8 -8,8s-8,-3.58203 -8,-8s3.58203,-8 8,-8s8,3.58203 8,8zm0,0"/>
  </g>
 </g>
</svg>