<svg width="480" height="480" xmlns="http://www.w3.org/2000/svg" xmlns:svg="http://www.w3.org/2000/svg">
 <g>
  <path id="svg_3" fill="#69696c" d="m240,480c-132.54687,0 -240,-107.45312 -240,-240s107.45313,-240 240,-240s240,107.45313 240,240c-0.14844,132.48438 -107.51562,239.85156 -240,240zm0,-464c-123.71094,0 -224,100.28906 -224,224s100.28906,224 224,224s224,-100.28906 224,-224c-0.14062,-123.65234 -100.34766,-223.85937 -224,-224zm0,0"/>
  <g id="svg_4" fill="#5153ff">
   <path id="svg_5" fill="#926333" class="active-path" d="m192,328c-3.23437,0 -6.15234,-1.94922 -7.39062,-4.9375s-0.55079,-6.42969 1.73437,-8.71875l160,-160c3.14063,-3.03125 8.12891,-2.98828 11.21484,0.09766c3.08594,3.08593 3.12891,8.07422 0.09766,11.21484l-160,160c-1.5,1.5 -3.53516,2.34375 -5.65625,2.34375zm0,0"/>
   <path id="svg_6" fill="#926333" class="active-path" d="m192,328c-2.12109,0 -4.15625,-0.84375 -5.65625,-2.34375l-64,-64c-3.03125,-3.14062 -2.98828,-8.12891 0.09766,-11.21484c3.08593,-3.08594 8.07422,-3.12891 11.21484,-0.09766l64,64c2.28516,2.28906 2.97266,5.73047 1.73438,8.71875s-4.15625,4.9375 -7.39063,4.9375zm0,0"/>
  </g>
 </g>
</svg>