<?xml version="1.0" encoding="utf-8"?>
<!-- Generator: Adobe Illustrator 25.2.1, SVG Export Plug-In . SVG Version: 6.00 Build 0)  -->
<svg version="1.1" id="Layer_1" xmlns="http://www.w3.org/2000/svg" xmlns:xlink="http://www.w3.org/1999/xlink" x="0px" y="0px"
	 width="172px" height="86px" viewBox="0 0 172 86" style="enable-background:new 0 0 172 86;" xml:space="preserve">
<style type="text/css">
	.st0{fill:#1A1A1A;}
	.st1{fill:#40568E;}
	.st2{fill:#38497F;}
	.st3{opacity:6.000000e-02;}
	.st4{fill:#FFFFFF;}
	.st5{fill:#212121;}
	.st6{fill:#E5E5E5;}
	.st7{fill:#BFBFBF;}
	.st8{fill:#D9D9D9;}
	.st9{fill:#DEDEDE;}
</style>
<g>
	<g>
		<path class="st0" d="M171,43c0,23.2-18.8,42-42,42c-23.2,0-42-18.8-42-42c0-23.2,18.8-42,42-42C152.2,1,171,19.8,171,43z"/>
		<path class="st1" d="M129,1C129,1,129,1,129,1C129,1,129,1,129,1C128.9,1,128.9,1,129,1C128.9,1,128.9,1,129,1
			C128.9,1,128.9,1,129,1c-0.1,0-0.1,0-0.1,0c0,0,0,0,0,0c0,0,0,0,0,0c0,0,0,0,0,0c0,0,0,0,0,0c0,0,0,0,0,0c0,0,0,0,0,0c0,0,0,0,0,0
			c0,0,0,0,0,0c0,0,0,0,0,0c0,0,0,0,0,0c0,0,0,0,0,0s0,0,0,0c0,0,0,0,0,0c0,0,0,0,0,0s0,0,0,0c0,0,0,0,0,0s0,0,0,0s0,0,0,0
			c0,0,0,0,0,0c0,0,0,0,0,0c0,0,0,0,0,0c0,0,0,0,0,0c0,0,0,0,0,0c0,0,0,0,0,0s0,0,0,0s0,0,0,0c0,0,0,0,0,0s0,0,0,0c0,0,0,0,0,0
			s0,0,0,0c0,0,0,0,0,0c0,0,0,0,0,0c0,0,0,0,0,0c0,0,0,0,0,0c0,0,0,0,0,0c0,0,0,0,0,0c0,0,0,0,0,0c0,0,0,0,0,0c0,0,0,0,0,0
			c0,0,0,0,0,0c0,0,0,0,0,0c0,0,0,0,0,0c0,0,0,0,0,0c0,0,0,0,0,0c0,0,0,0,0,0c-0.1,0-0.1,0-0.2,0c0,0,0,0,0,0c0,0,0,0,0,0
			c0,0,0,0,0,0c0,0,0,0,0,0c0,0,0,0,0,0c0,0,0,0,0,0c0,0,0,0,0,0c0,0,0,0,0,0c0,0,0,0,0,0c0,0,0,0,0,0h0c0,0,0,0,0,0h0
			c0,0,0,0-0.1,0l0,0c-0.3,0-0.5,0-0.8,0l0.9,20.1c0.4,0,0.7,0,1.1,0L129,1L129,1L129,1z M125,1.2c-0.1,0-0.1,0-0.2,0l0,0
			c0,0,0,0,0,0c0,0,0,0,0,0c0,0,0,0,0,0c0,0,0,0,0,0c0,0,0,0,0,0c0,0,0,0,0,0c0,0,0,0,0,0c0,0,0,0,0,0h0c-0.6,0.1-1.1,0.1-1.7,0.2
			l2.9,19.9c0.3,0,0.7-0.1,1-0.1L125,1.2L125,1.2z M121,1.8C121,1.8,120.9,1.8,121,1.8C120.9,1.8,120.9,1.8,121,1.8
			c-0.1,0-0.1,0-0.1,0c0,0,0,0,0,0c0,0,0,0,0,0c0,0,0,0,0,0c0,0,0,0,0,0c0,0,0,0,0,0c0,0,0,0,0,0c0,0,0,0,0,0c0,0,0,0,0,0
			c0,0,0,0,0,0c0,0,0,0,0,0c0,0,0,0,0,0c0,0,0,0,0,0s0,0,0,0c0,0,0,0,0,0c0,0,0,0,0,0c0,0,0,0,0,0c0,0,0,0,0,0c0,0,0,0,0,0
			c0,0,0,0,0,0c0,0,0,0,0,0c0,0,0,0,0,0c0,0,0,0,0,0c0,0,0,0,0,0c0,0,0,0,0,0c0,0,0,0,0,0h0c-0.5,0.1-1,0.2-1.5,0.3l4.8,19.6
			c0.3-0.1,0.7-0.2,1-0.2L121,1.8L121,1.8z M117.1,2.7c-0.3,0.1-0.5,0.2-0.8,0.2h0c0,0,0,0-0.1,0l0,0c0,0,0,0-0.1,0c0,0,0,0,0,0
			c0,0,0,0-0.1,0c-0.3,0.1-0.6,0.2-0.9,0.3l6.6,19c0.3-0.1,0.7-0.2,1-0.3L117.1,2.7L117.1,2.7z M113.3,4c-0.6,0.3-1.2,0.5-1.8,0.8
			l8.4,18.3c0.3-0.1,0.6-0.3,1-0.4L113.3,4L113.3,4z M109.6,5.7c-0.6,0.3-1.2,0.6-1.8,1L118,24.1c0.3-0.2,0.6-0.3,0.9-0.5L109.6,5.7
			L109.6,5.7z M106.1,7.8c-0.6,0.4-1.1,0.7-1.7,1.1l11.8,16.3c0.3-0.2,0.6-0.4,0.9-0.6L106.1,7.8L106.1,7.8z M102.9,10.1
			c-0.5,0.4-1,0.8-1.5,1.3l13.3,15.1c0.3-0.2,0.5-0.5,0.8-0.7L102.9,10.1L102.9,10.1z M99.8,12.8c-0.3,0.3-0.6,0.6-0.8,0.8
			c0,0,0,0,0,0c0,0,0,0,0,0c0,0,0,0,0,0c0,0,0,0,0,0c0,0,0,0,0,0c0,0,0,0,0,0c0,0,0,0,0,0c0,0,0,0,0,0c0,0,0,0,0,0c0,0,0,0,0,0
			c0,0,0,0,0,0c0,0,0,0,0,0c-0.1,0.2-0.3,0.3-0.4,0.5L113.1,28c0.2-0.3,0.5-0.5,0.7-0.7L99.8,12.8L99.8,12.8z M97.1,15.7
			C97.1,15.7,97.1,15.7,97.1,15.7C97.1,15.7,97.1,15.7,97.1,15.7C97.1,15.7,97,15.7,97.1,15.7C97,15.7,97,15.8,97.1,15.7
			C97,15.8,97,15.8,97.1,15.7C97,15.8,97,15.8,97.1,15.7C97,15.8,97,15.8,97.1,15.7C97,15.8,97,15.8,97.1,15.7
			C97,15.8,97,15.8,97,15.8c0,0,0,0,0,0c0,0,0,0,0,0c0,0,0,0,0,0c0,0,0,0,0,0c0,0,0,0,0,0l0,0c-0.4,0.4-0.7,0.9-1.1,1.4c0,0,0,0,0,0
			l15.9,12.4c0.2-0.3,0.4-0.6,0.7-0.8L97.1,15.7L97.1,15.7z M94.6,18.9c-0.1,0.1-0.1,0.2-0.2,0.2c0,0,0,0,0,0c0,0,0,0,0,0
			c0,0,0,0,0,0c0,0,0,0,0,0c-0.3,0.5-0.6,0.9-0.9,1.4l17,10.8c0.2-0.3,0.4-0.6,0.6-0.9L94.6,18.9L94.6,18.9z M92.4,22.3
			c-0.2,0.3-0.3,0.5-0.5,0.8c0,0,0,0,0,0c0,0,0,0,0,0c-0.2,0.3-0.3,0.6-0.5,0.9l18,9.1c0.2-0.3,0.3-0.6,0.5-0.9L92.4,22.3L92.4,22.3
			z M90.6,25.9c-0.1,0.2-0.1,0.3-0.2,0.5l0,0c0,0,0,0,0,0.1l0,0c0,0,0,0,0,0.1l0,0c-0.2,0.4-0.4,0.9-0.5,1.3l18.8,7.3
			c0.1-0.3,0.3-0.6,0.4-1L90.6,25.9L90.6,25.9z M89.2,29.6c-0.1,0.3-0.2,0.5-0.3,0.8c0,0,0,0,0,0c0,0,0,0,0,0c0,0,0,0,0,0
			c0,0,0,0,0,0c0,0,0,0,0,0c0,0,0,0,0,0c0,0,0,0,0,0c0,0,0,0,0,0c0,0,0,0,0,0c0,0,0,0,0,0c0,0,0,0,0,0c0,0,0,0,0,0c0,0,0,0,0,0
			c0,0,0,0,0,0c0,0,0,0,0,0c0,0,0,0,0,0c0,0,0,0,0,0c0,0,0,0,0,0c0,0,0,0,0,0c0,0,0,0,0,0c0,0,0,0,0,0c0,0,0,0,0,0c0,0,0,0,0,0
			c0,0,0,0,0,0c0,0,0,0,0,0c0,0,0,0,0,0c0,0,0,0,0,0c0,0,0,0,0,0c0,0,0,0,0,0c0,0,0,0,0,0c0,0,0,0,0,0c0,0,0,0,0,0c0,0,0,0,0,0
			c0,0,0,0,0,0c0,0,0,0,0,0c0,0,0,0,0,0c0,0,0,0,0,0c-0.1,0.2-0.1,0.4-0.2,0.6L108,37c0.1-0.3,0.2-0.7,0.3-1L89.2,29.6L89.2,29.6z
			 M88.1,33.5c-0.1,0.5-0.2,1.1-0.3,1.6c0,0.1,0,0.2-0.1,0.4l19.8,3.6c0.1-0.3,0.1-0.7,0.2-1L88.1,33.5L88.1,33.5z M87.4,37.5
			c-0.1,0.4-0.1,0.9-0.1,1.3c0,0,0,0,0,0c0,0,0,0,0,0c0,0,0,0,0,0c0,0,0,0,0,0c0,0,0,0,0,0c0,0,0,0,0,0c0,0,0,0,0,0v0
			c0,0.2,0,0.4-0.1,0.6l20.1,1.7c0-0.3,0.1-0.7,0.1-1L87.4,37.5L87.4,37.5z M87,41.5c0,0.3,0,0.6,0,1c0,0,0,0,0,0c0,0,0,0,0,0
			c0,0,0,0,0,0c0,0,0,0,0,0.1c0,0,0,0,0,0c0,0,0,0,0,0c0,0,0,0,0,0c0,0,0,0,0,0c0,0,0,0,0,0c0,0,0,0,0,0c0,0,0,0,0,0s0,0,0,0
			c0,0,0,0,0,0c0,0,0,0,0,0c0,0,0,0,0,0c0,0,0,0,0,0c0,0,0,0,0,0c0,0,0,0,0,0c0,0,0,0,0,0c0,0,0,0,0,0c0,0,0,0,0,0c0,0,0,0,0,0
			c0,0,0,0,0,0l0,0l0,0c0,0,0,0,0,0c0,0,0,0,0,0c0,0,0,0,0,0c0,0,0,0,0,0l0,0c0,0.1,0,0.3,0,0.4l20.1-0.2l0-0.3c0-0.3,0-0.5,0-0.8
			L87,41.5L87,41.5z M107.2,44.3l-20.1,1.2c0,0.6,0.1,1.1,0.1,1.7c0,0,0,0,0,0c0,0,0,0,0,0c0,0,0,0,0,0c0,0,0,0,0,0c0,0,0,0,0,0
			c0,0,0,0,0,0c0,0,0,0,0,0c0,0,0,0,0,0c0,0.1,0,0.1,0,0.2l20-2.1C107.2,45,107.2,44.7,107.2,44.3L107.2,44.3z M107.4,46.4
			l-19.9,3.1c0,0,0,0,0,0c0,0,0,0,0,0c0,0,0,0,0,0c0,0,0,0,0,0c0,0,0,0,0,0c0,0,0,0,0,0c0,0,0,0,0,0c0.1,0.5,0.2,1.1,0.3,1.6
			c0,0,0,0,0,0c0,0,0,0,0,0c0,0,0,0,0,0c0,0,0,0,0,0c0,0,0,0,0,0c0,0,0,0,0,0c0,0,0,0,0,0c0,0,0,0,0,0c0,0.1,0,0.1,0,0.2l19.7-4.1
			C107.5,47.1,107.5,46.8,107.4,46.4L107.4,46.4z M107.8,48.5l-19.5,5c0.2,0.7,0.4,1.3,0.5,1.9l19.3-5.9
			C108,49.1,107.9,48.8,107.8,48.5L107.8,48.5z M108.4,50.5l-18.9,6.9c0.2,0.6,0.5,1.3,0.7,1.9l18.6-7.8
			C108.7,51.1,108.6,50.8,108.4,50.5L108.4,50.5z M109.2,52.4L91.1,61c0,0.1,0.1,0.1,0.1,0.2c0,0,0,0,0,0c0,0,0,0,0,0c0,0,0,0,0,0
			c0,0,0,0,0,0c0.2,0.4,0.4,0.7,0.6,1.1l0,0c0,0,0,0,0,0c0,0,0,0,0,0c0,0,0,0,0,0c0,0,0,0,0,0c0,0,0,0,0,0c0,0,0,0,0,0c0,0,0,0,0,0
			c0.1,0.1,0.1,0.2,0.2,0.3l17.8-9.5C109.6,53,109.4,52.7,109.2,52.4L109.2,52.4z M110.2,54.2L93,64.6c0.1,0.2,0.2,0.3,0.3,0.5v0
			c0,0,0,0,0,0c0,0,0,0,0,0c0,0,0,0,0,0c0,0,0,0,0,0c0,0,0,0,0,0c0.2,0.4,0.5,0.8,0.7,1.2l16.8-11.2
			C110.6,54.8,110.4,54.5,110.2,54.2L110.2,54.2z M111.4,56l-16.2,12c0.1,0.1,0.2,0.2,0.2,0.3v0c0,0,0,0,0,0l0,0c0,0,0,0,0,0
			c0,0,0,0,0,0c0,0,0,0,0,0c0,0,0,0,0,0c0,0,0,0,0,0c0,0,0,0,0,0c0,0,0,0,0,0c0,0,0,0,0,0c0,0,0,0,0,0c0,0,0,0,0,0c0,0,0,0,0,0
			c0,0,0,0,0,0c0,0,0,0,0,0c0,0,0,0,0,0c0,0,0,0,0,0c0,0,0,0,0,0c0,0,0,0,0,0c0,0,0,0,0,0c0,0,0,0,0,0c0,0,0,0,0,0c0,0,0,0,0,0
			c0,0,0,0,0,0c0,0,0,0,0,0c0,0,0,0,0,0c0,0,0,0,0,0c0,0,0,0,0,0c0,0,0,0,0,0c0,0,0,0,0,0c0,0,0,0,0,0c0.2,0.3,0.5,0.6,0.7,0.9
			L112,56.8C111.8,56.5,111.6,56.2,111.4,56L111.4,56z M112.7,57.6l-15,13.5c0.4,0.5,0.9,1,1.4,1.5l14.3-14.2
			C113.2,58.1,113,57.9,112.7,57.6L112.7,57.6z M114.2,59.1l-13.6,14.8c0.3,0.2,0.5,0.5,0.8,0.7c0,0,0,0,0,0c0,0,0,0,0,0
			c0,0,0,0,0,0c0,0,0,0,0,0c0,0,0,0,0,0c0,0,0,0,0,0c0,0,0,0,0,0l0,0c0.2,0.2,0.4,0.4,0.7,0.6L115,59.8
			C114.7,59.6,114.5,59.3,114.2,59.1L114.2,59.1z M115.8,60.4l-12.2,16.1c0.3,0.2,0.6,0.5,0.9,0.7c0.2,0.2,0.5,0.3,0.7,0.5
			l11.4-16.6C116.4,60.9,116.1,60.7,115.8,60.4L115.8,60.4z M117.6,61.6L107,78.8c0,0,0.1,0,0.1,0.1c0,0,0,0,0,0c0,0,0,0,0,0
			c0,0,0,0,0,0c0,0,0,0,0,0c0,0,0,0,0,0c0,0,0,0,0,0c0.5,0.3,1,0.6,1.5,0.9c0,0,0,0,0,0c0,0,0,0,0,0c0,0,0,0,0,0c0,0,0,0,0,0
			l9.7-17.6C118.2,62,117.9,61.8,117.6,61.6L117.6,61.6z M119.4,62.6l-8.9,18.1c0.1,0.1,0.2,0.1,0.3,0.2l0,0c0,0,0,0,0,0
			c0,0,0,0,0,0c0,0,0,0,0,0c0,0,0,0,0,0c0,0,0,0,0,0c0,0,0,0,0,0c0,0,0,0,0,0c0,0,0,0,0,0c0,0,0,0,0,0c0,0,0,0,0,0c0,0,0,0,0,0
			c0,0,0,0,0,0c0,0,0,0,0,0c0,0,0,0,0,0c0,0,0,0,0,0c0.4,0.2,0.8,0.4,1.3,0.6l8-18.5C120,62.9,119.7,62.8,119.4,62.6L119.4,62.6z
			 M121.3,63.5l-7.1,18.9c0.6,0.2,1.3,0.5,1.9,0.7l6.2-19.2C122,63.7,121.6,63.6,121.3,63.5L121.3,63.5z M123.3,64.1l-5.2,19.5
			c0.1,0,0.2,0,0.2,0.1h0c0,0,0,0,0,0c0,0,0,0,0,0c0,0,0,0,0,0c0,0,0,0,0,0c0,0,0,0,0,0c0,0,0,0,0,0c0,0,0,0,0,0c0,0,0,0,0,0
			c0,0,0,0,0,0c0,0,0,0,0,0c0,0,0,0,0,0c0,0,0,0,0,0c0,0,0,0,0,0c0.5,0.1,1,0.2,1.5,0.4l4.3-19.7C124,64.3,123.6,64.2,123.3,64.1
			L123.3,64.1z M125.3,64.5L122,84.4c0.5,0.1,1,0.2,1.5,0.2c0.2,0,0.3,0,0.5,0.1l2.4-20C126,64.7,125.7,64.6,125.3,64.5L125.3,64.5z
			 M127.4,64.8L126,84.9c0.1,0,0.3,0,0.4,0c0,0,0,0,0,0s0,0,0,0c0,0,0,0,0,0c0,0,0,0,0,0c0,0,0,0,0,0c0,0,0,0,0,0c0.3,0,0.6,0,1,0
			c0,0,0,0,0,0c0,0,0,0,0,0c0,0,0,0,0,0c0,0,0,0,0,0c0,0,0,0,0,0c0,0,0,0,0,0c0,0,0,0,0,0c0,0,0,0,0,0c0.1,0,0.3,0,0.4,0l0.5-20.1
			C128.1,64.8,127.8,64.8,127.4,64.8L127.4,64.8z M130.6,64.8c-0.4,0-0.7,0-1.1,0.1L130,85c0.2,0,0.4,0,0.6,0c0,0,0,0,0.1,0
			c0,0,0,0,0,0c0,0,0,0,0,0c0,0,0,0,0,0c0,0,0,0,0,0h0c0.4,0,0.8,0,1.2-0.1c0,0,0,0,0,0c0,0,0,0,0.1,0c0,0,0,0,0,0c0,0,0,0,0,0h0
			c0,0,0,0,0,0l0,0L130.6,64.8L130.6,64.8z M132.7,64.5c-0.3,0.1-0.7,0.1-1,0.1l2.4,20c0.6-0.1,1.2-0.2,1.8-0.3c0,0,0,0,0,0
			c0,0,0,0,0,0c0,0,0,0,0,0c0,0,0,0,0,0c0,0,0,0,0,0c0,0,0,0,0,0c0,0,0,0,0,0c0,0,0,0,0,0c0,0,0,0,0,0c0,0,0,0,0,0L132.7,64.5
			L132.7,64.5z M134.7,64.1c-0.3,0.1-0.7,0.2-1,0.2L138,84c0.1,0,0.1,0,0.2,0c0,0,0,0,0,0c0,0,0,0,0,0c0,0,0,0,0,0c0,0,0,0,0,0
			c0,0,0,0,0,0c0,0,0,0,0,0c0,0,0,0,0,0c0,0,0,0,0,0c0,0,0,0,0,0c0,0,0,0,0,0c0,0,0,0,0,0c0,0,0,0,0,0c0,0,0,0,0,0c0,0,0,0,0,0
			c0.3-0.1,0.5-0.1,0.8-0.2h0c0,0,0,0,0,0c0,0,0,0,0,0c0,0,0,0,0,0c0,0,0,0,0,0c0,0,0,0,0,0c0,0,0,0,0,0c0,0,0,0,0,0c0,0,0,0,0,0
			c0,0,0,0,0,0c0,0,0,0,0,0c0,0,0,0,0,0c0,0,0,0,0,0c0,0,0,0,0,0c0,0,0,0,0,0c0,0,0,0,0,0c0,0,0,0,0,0c0,0,0,0,0,0c0,0,0,0,0,0
			c0,0,0,0,0,0c0,0,0,0,0,0c0,0,0,0,0,0c0,0,0,0,0,0c0,0,0,0,0,0h0c0.1,0,0.3-0.1,0.4-0.1L134.7,64.1L134.7,64.1z M136.7,63.5
			c-0.3,0.1-0.7,0.2-1,0.3l6.2,19.2c0.3-0.1,0.6-0.2,0.9-0.3c0,0,0,0,0,0c0,0,0,0,0,0c0,0,0,0,0,0c0,0,0,0,0,0c0,0,0,0,0,0
			c0,0,0,0,0,0c0,0,0,0,0,0c0,0,0,0,0,0c0,0,0,0,0,0c0,0,0,0,0,0c0,0,0,0,0,0c0,0,0,0,0,0c0,0,0,0,0,0c0,0,0,0,0,0
			c0.3-0.1,0.5-0.2,0.8-0.3L136.7,63.5L136.7,63.5z M138.6,62.6c-0.3,0.2-0.6,0.3-0.9,0.4l8,18.5c0.4-0.2,0.7-0.3,1.1-0.5
			c0,0,0,0,0,0c0,0,0,0,0,0c0,0,0,0,0,0c0,0,0,0,0,0c0,0,0,0,0,0c0,0,0,0,0,0c0,0,0,0,0,0c0,0,0,0,0,0c0,0,0,0,0,0c0,0,0,0,0,0
			c0,0,0,0,0,0c0,0,0,0,0,0c0.2-0.1,0.4-0.2,0.6-0.3L138.6,62.6L138.6,62.6z M140.4,61.6c-0.3,0.2-0.6,0.4-0.9,0.5l9.7,17.6
			c0.1,0,0.1-0.1,0.2-0.1c0,0,0,0,0,0c0,0,0,0,0,0c0,0,0,0,0,0c0,0,0,0,0,0c0,0,0,0,0,0c0,0,0,0,0,0c0,0,0,0,0,0c0,0,0,0,0,0
			c0,0,0,0,0,0c0,0,0,0,0,0c0,0,0,0,0,0c0,0,0,0,0,0c0,0,0,0,0,0l0,0c0.5-0.3,0.9-0.5,1.4-0.8L140.4,61.6L140.4,61.6z M142.2,60.4
			c-0.3,0.2-0.6,0.4-0.9,0.6l11.4,16.6c0.3-0.2,0.5-0.4,0.8-0.5c0,0,0,0,0,0c0,0,0,0,0,0c0,0,0,0,0,0c0,0,0,0,0,0c0,0,0,0,0,0
			c0,0,0,0,0,0c0,0,0,0,0,0c0,0,0,0,0,0c0,0,0,0,0,0c0,0,0,0,0,0s0,0,0,0c0,0,0,0,0,0c0,0,0,0,0,0c0,0,0,0,0,0c0,0,0,0,0,0
			c0,0,0,0,0,0c0,0,0,0,0,0c0,0,0,0,0,0c0,0,0,0,0,0c0,0,0,0,0,0c0,0,0,0,0,0c0,0,0,0,0,0c0.2-0.1,0.4-0.3,0.6-0.4L142.2,60.4
			L142.2,60.4z M143.8,59.1c-0.3,0.2-0.5,0.5-0.8,0.7l12.9,15.5c0,0,0,0,0,0c0,0,0,0,0,0c0,0,0,0,0,0c0,0,0,0,0,0c0,0,0,0,0,0
			c0,0,0,0,0,0c0,0,0,0,0,0c0,0,0,0,0,0c0,0,0,0,0,0c0,0,0,0,0,0c0,0,0,0,0,0c0,0,0,0,0,0c0,0,0,0,0,0c0,0,0,0,0,0c0,0,0,0,0,0
			c0,0,0,0,0,0c0,0,0,0,0,0c0,0,0,0,0,0c0,0,0,0,0,0c0,0,0,0,0,0c0,0,0,0,0,0c0,0,0,0,0,0c0,0,0,0,0,0c0,0,0,0,0,0c0,0,0,0,0,0
			c0,0,0,0,0,0c0,0,0,0,0,0c0,0,0,0,0,0c0,0,0,0,0,0c0,0,0,0,0,0l0,0c0,0,0,0,0,0l0,0c0.3-0.3,0.7-0.6,1-0.9c0,0,0,0,0,0
			c0,0,0,0,0,0c0,0,0,0,0,0c0,0,0,0,0,0c0,0,0,0,0,0c0,0,0,0,0,0c0,0,0,0,0,0c0,0,0,0,0,0c0,0,0,0,0,0c0,0,0,0,0,0c0,0,0,0,0,0l0,0
			c0,0,0,0,0,0L143.8,59.1L143.8,59.1z M145.3,57.6c-0.2,0.3-0.5,0.5-0.7,0.8l14.3,14.2c0,0,0,0,0,0c0,0,0,0,0,0c0,0,0,0,0,0
			c0.3-0.3,0.6-0.6,0.9-1c0,0,0,0,0,0c0,0,0,0,0,0c0,0,0,0,0,0c0,0,0,0,0,0c0,0,0,0,0,0c0,0,0,0,0,0c0,0,0,0,0,0c0,0,0,0,0,0
			c0,0,0,0,0,0l0,0c0.1-0.1,0.2-0.2,0.3-0.4L145.3,57.6L145.3,57.6z M146.6,56c-0.2,0.3-0.4,0.6-0.6,0.8l15.6,12.7c0,0,0,0,0,0
			c0,0,0,0,0,0c0,0,0,0,0,0c0,0,0,0,0,0c0,0,0,0,0,0c0,0,0,0,0,0c0,0,0,0,0,0c0,0,0,0,0,0c0,0,0,0,0,0c0,0,0,0,0,0c0,0,0,0,0,0
			c0,0,0,0,0,0c0,0,0,0,0,0c0,0,0,0,0,0c0,0,0,0,0,0l0,0c0.2-0.3,0.4-0.5,0.6-0.8l0,0c0,0,0,0,0,0c0,0,0,0,0,0c0,0,0,0,0,0
			c0,0,0,0,0,0c0,0,0,0,0,0c0,0,0,0,0,0s0,0,0,0c0,0,0,0,0,0c0,0,0,0,0,0c0,0,0,0,0,0c0,0,0,0,0,0c0.1-0.2,0.2-0.3,0.4-0.5L146.6,56
			L146.6,56z M147.8,54.2c-0.2,0.3-0.4,0.6-0.6,0.9L164,66.3c0-0.1,0.1-0.1,0.1-0.2c0,0,0,0,0,0c0,0,0,0,0,0c0.3-0.5,0.6-1,0.9-1.4
			l0,0c0,0,0,0,0,0c0,0,0,0,0,0L147.8,54.2L147.8,54.2z M148.8,52.4c-0.1,0.3-0.3,0.6-0.5,0.9l17.8,9.5c0.1-0.2,0.2-0.3,0.3-0.5
			c0.1-0.3,0.3-0.6,0.4-0.8c0,0,0,0,0,0c0,0,0,0,0,0c0,0,0,0,0,0c0,0,0,0,0,0c0,0,0,0,0,0c0,0,0,0,0,0c0,0,0,0,0,0c0,0,0,0,0,0
			c0.1-0.1,0.1-0.2,0.2-0.3L148.8,52.4L148.8,52.4z M149.6,50.4c-0.1,0.3-0.2,0.7-0.4,1l18.6,7.8c0.1-0.2,0.2-0.5,0.3-0.7
			c0,0,0,0,0,0c0,0,0,0,0,0c0,0,0,0,0,0c0,0,0,0,0,0c0,0,0,0,0,0c0,0,0,0,0,0c0,0,0,0,0,0c0,0,0,0,0,0c0.1-0.4,0.3-0.7,0.4-1.1
			L149.6,50.4L149.6,50.4z M150.2,48.5c-0.1,0.3-0.2,0.7-0.3,1l19.3,5.9c0-0.1,0.1-0.3,0.1-0.4l0,0c0,0,0,0,0,0c0,0,0,0,0,0
			c0,0,0,0,0,0c0,0,0,0,0,0c0,0,0,0,0,0c0,0,0,0,0,0c0,0,0,0,0,0c0,0,0,0,0,0c0,0,0,0,0,0c0,0,0,0,0,0c0,0,0,0,0,0c0,0,0,0,0,0
			c0,0,0,0,0,0c0,0,0,0,0,0c0,0,0,0,0,0c0,0,0,0,0,0c0,0,0,0,0,0v0c0,0,0,0,0,0v0c0.1-0.4,0.2-0.8,0.3-1.2L150.2,48.5L150.2,48.5z
			 M150.6,46.4c-0.1,0.3-0.1,0.7-0.2,1l19.7,4.1c0.1-0.6,0.2-1.2,0.3-1.7c0-0.1,0-0.2,0-0.2L150.6,46.4L150.6,46.4z M150.8,44.3
			c0,0.3,0,0.7-0.1,1l20,2.1c0-0.2,0-0.5,0.1-0.7c0,0,0,0,0,0c0,0,0,0,0,0c0,0,0,0,0,0c0,0,0,0,0,0c0,0,0,0,0,0c0,0,0,0,0,0
			c0-0.4,0.1-0.8,0.1-1.2c0,0,0,0,0-0.1L150.8,44.3L150.8,44.3z M171,41.5l-20.1,0.7c0,0.3,0,0.5,0,0.8l0,0.3l20.1,0.2
			c0-0.1,0-0.3,0-0.4c0,0,0,0,0,0c0,0,0,0,0,0c0,0,0,0,0,0c0,0,0,0,0,0c0,0,0,0,0,0l0,0l0,0c0,0,0,0,0,0c0,0,0,0,0,0c0,0,0,0,0,0
			c0,0,0,0,0,0c0,0,0,0,0,0c0,0,0,0,0,0c0,0,0,0,0,0c0,0,0,0,0,0c0,0,0,0,0,0c0,0,0,0,0,0c0,0,0,0,0,0c0,0,0,0,0,0c0,0,0,0,0,0
			c0,0,0,0,0,0c0,0,0,0,0,0c0,0,0,0,0,0c0,0,0,0,0,0c0,0,0-0.1,0-0.1c0,0,0,0,0,0c0,0,0,0,0,0c0,0,0,0,0,0c0-0.1,0-0.3,0-0.4v0
			c0,0,0-0.1,0-0.1c0,0,0,0,0,0c0,0,0,0,0,0c0,0,0,0,0,0c0,0,0,0,0,0c0,0,0,0,0,0c0,0,0,0,0,0c0,0,0,0,0,0c0,0,0,0,0,0
			C171,41.7,171,41.6,171,41.5L171,41.5z M170.6,37.5l-20,2.6c0,0.3,0.1,0.7,0.1,1l20.1-1.7c0-0.2,0-0.3,0-0.5c0,0,0,0,0,0
			c0,0,0,0,0,0c0,0,0,0,0,0c0,0,0,0,0,0c0,0,0,0,0,0c0,0,0,0,0,0c0,0,0,0,0,0c0,0,0,0,0,0c0,0,0,0,0,0l0,0
			C170.7,38.4,170.7,37.9,170.6,37.5L170.6,37.5z M169.9,33.5L150.3,38c0.1,0.3,0.1,0.7,0.2,1l19.8-3.6c-0.1-0.3-0.1-0.6-0.2-1v0
			c0,0,0,0,0,0c0,0,0,0,0,0c0,0,0,0,0,0c0,0,0,0,0,0c0,0,0,0,0,0c0,0,0,0,0,0c0,0,0,0,0,0c0,0,0,0,0,0c0,0,0,0,0,0c0,0,0,0,0,0
			c0,0,0,0,0,0c0,0,0,0,0,0c0,0,0,0,0,0c0,0,0,0,0,0c0,0,0,0,0,0c0,0,0,0,0,0c0,0,0,0,0,0c0,0,0,0,0,0c0,0,0,0,0,0c0,0,0,0,0,0
			c0,0,0,0,0,0c0,0,0,0,0,0c0,0,0,0,0,0c0-0.1,0-0.2-0.1-0.3c0,0,0,0,0,0c0,0,0,0,0,0c0,0,0,0,0,0c0,0,0,0,0,0c0,0,0,0,0,0
			c0,0,0,0,0,0C170,33.7,169.9,33.6,169.9,33.5L169.9,33.5z M168.8,29.6L149.7,36c0.1,0.3,0.2,0.7,0.3,1l19.4-5.5c0,0,0,0,0,0
			c0,0,0,0,0,0c0,0,0,0,0,0c0,0,0,0,0,0c0,0,0,0,0,0c0,0,0,0,0,0c0,0,0,0,0,0l0,0c-0.1-0.5-0.3-1-0.5-1.5c0,0,0,0,0,0c0,0,0,0,0,0
			c0,0,0,0,0,0c0,0,0,0,0,0C168.9,29.8,168.9,29.7,168.8,29.6L168.8,29.6z M167.4,25.9L149,34.1c0.1,0.3,0.3,0.6,0.4,1l18.8-7.3
			C167.9,27.1,167.6,26.5,167.4,25.9L167.4,25.9z M165.5,22.3l-17.5,10c0.2,0.3,0.3,0.6,0.5,0.9l18-9.1c-0.3-0.5-0.5-1-0.8-1.6v0
			c0,0,0,0,0,0c0,0,0,0,0,0c0,0,0,0,0,0c0,0,0,0,0,0c0,0,0,0,0,0c0,0,0,0,0,0c0,0,0,0,0,0c0,0,0,0,0,0
			C165.6,22.4,165.6,22.4,165.5,22.3C165.6,22.4,165.6,22.4,165.5,22.3C165.6,22.4,165.6,22.3,165.5,22.3
			C165.6,22.3,165.6,22.3,165.5,22.3C165.6,22.3,165.6,22.3,165.5,22.3C165.6,22.3,165.6,22.3,165.5,22.3
			C165.5,22.3,165.5,22.3,165.5,22.3C165.5,22.3,165.5,22.3,165.5,22.3L165.5,22.3z M163.4,18.9l-16.5,11.6c0.2,0.3,0.4,0.6,0.6,0.9
			l17-10.8c0-0.1-0.1-0.1-0.1-0.2c0,0,0,0,0,0c0,0,0,0,0,0c0,0,0,0,0,0l0,0c-0.2-0.3-0.4-0.7-0.7-1c0,0,0,0,0,0c0,0,0,0,0,0
			c0,0,0,0,0,0c0,0,0,0,0,0C163.6,19.1,163.5,19,163.4,18.9L163.4,18.9z M160.9,15.7l-15.3,13.1c0.2,0.3,0.5,0.5,0.7,0.8l15.9-12.4
			c0,0-0.1-0.1-0.1-0.1l0,0c0,0,0,0,0,0c0,0,0,0,0,0c0,0,0,0,0,0c0,0,0,0,0,0c0,0,0,0,0,0c0,0,0,0,0,0c0,0,0,0,0,0c0,0,0,0,0,0
			c0,0,0,0,0,0c0,0,0,0,0,0c0,0,0,0,0,0c0,0,0,0,0,0c0,0,0,0,0,0c0,0,0,0,0,0c0,0,0,0,0,0c0,0,0,0,0,0c0,0,0,0,0,0c0,0,0,0,0,0
			c0,0,0,0,0,0c0,0,0,0,0,0c0,0,0,0,0,0c0,0,0,0,0,0c0,0,0,0,0,0c0,0,0,0,0,0c0,0,0,0,0,0c0,0,0,0,0,0c0,0,0,0,0,0c0,0,0,0,0,0
			c0,0,0,0,0,0c0,0,0,0,0,0c0,0,0,0,0,0c0,0,0,0,0,0c0,0,0,0,0,0c0,0,0,0,0,0c0,0,0,0,0,0c0,0,0,0,0,0c0,0,0,0,0,0c0,0,0,0,0,0
			c0,0,0,0,0,0c0,0,0,0,0,0c0,0,0,0,0,0c0,0,0,0,0,0c0,0,0,0,0,0c0,0,0,0,0,0c0,0,0,0,0,0c0,0,0,0,0,0c0,0,0,0,0,0c0,0,0,0,0,0
			c0,0,0,0,0,0c0,0,0,0,0,0c0,0,0,0,0,0c0,0,0,0,0,0c0,0,0,0,0,0c0,0,0,0,0,0c0,0,0,0,0,0c0,0,0,0,0,0c0,0,0,0,0,0c0,0,0,0,0,0
			c0,0,0,0,0,0c0,0,0,0,0,0c0,0,0,0,0,0c0,0,0,0,0,0c0,0,0,0,0,0c0,0,0,0,0,0c0,0,0,0,0,0c0,0,0,0,0,0c0,0,0,0,0,0c0,0,0,0,0,0
			c0,0,0,0,0,0c0,0,0,0,0,0c0,0,0,0,0,0c0,0,0,0,0,0c0,0,0,0,0,0c0,0,0,0,0,0c0,0,0,0,0,0c0,0,0,0,0,0c0,0,0,0,0,0c0,0,0,0,0,0
			c0,0,0,0,0,0c0,0,0,0,0,0c0,0,0,0,0,0c0,0,0,0,0,0c0,0,0,0,0,0c0,0,0,0,0,0c0,0,0,0,0,0c0,0,0,0,0,0c0,0,0,0,0,0c0,0,0,0,0,0
			c0,0,0,0,0,0c0,0,0,0,0,0c0,0,0,0,0,0c0,0,0,0,0,0c0,0,0,0,0,0c0,0,0,0,0,0c0,0,0,0,0,0c0,0,0,0,0,0c0,0,0,0,0,0c0,0,0,0,0,0
			c0,0,0,0,0,0c0,0,0,0,0,0c0,0,0,0,0,0c0,0,0,0,0,0c0,0,0,0,0,0C161,15.8,161,15.7,160.9,15.7L160.9,15.7z M158.2,12.8l-14,14.5
			c0.3,0.2,0.5,0.5,0.7,0.7l14.7-13.8c0,0,0,0,0,0C159.1,13.7,158.6,13.2,158.2,12.8L158.2,12.8z M155.1,10.1l-12.5,15.8
			c0.3,0.2,0.5,0.4,0.8,0.7l13.3-15.2c-0.1-0.1-0.2-0.1-0.2-0.2c0,0,0,0,0,0c0,0,0,0,0,0c0,0,0,0,0,0c0,0,0,0,0,0
			C156,10.8,155.6,10.5,155.1,10.1L155.1,10.1z M151.9,7.8l-11,16.9c0.3,0.2,0.6,0.4,0.9,0.6l11.8-16.3c-0.2-0.1-0.3-0.2-0.5-0.3
			c0,0,0,0,0,0c0,0,0,0,0,0c0,0,0,0,0,0c0,0,0,0,0,0c0,0,0,0,0,0c0,0,0,0,0,0c-0.2-0.1-0.3-0.2-0.5-0.4c0,0,0,0,0,0c0,0,0,0,0,0
			c0,0,0,0,0,0s0,0,0,0c0,0,0,0,0,0c0,0,0,0,0,0C152.2,8,152,7.9,151.9,7.8L151.9,7.8z M148.4,5.7l-9.3,17.9
			c0.3,0.2,0.6,0.3,0.9,0.5l10.2-17.4c-0.1-0.1-0.3-0.2-0.4-0.3l0,0c0,0,0,0-0.1,0l0,0c0,0,0,0-0.1,0l0,0
			C149.2,6.2,148.8,5.9,148.4,5.7L148.4,5.7z M144.7,4l-7.5,18.7c0.3,0.1,0.6,0.3,1,0.4l8.4-18.3c0,0,0,0,0,0c0,0,0,0,0,0
			c0,0,0,0,0,0c0,0,0,0,0,0c0,0,0,0,0,0c0,0,0,0,0,0c0,0,0,0,0,0c0,0,0,0,0,0c0,0,0,0,0,0c0,0,0,0,0,0c0,0,0,0,0,0c0,0,0,0,0,0
			c0,0,0,0,0,0c0,0,0,0,0,0c0,0,0,0,0,0c0,0,0,0,0,0c0,0,0,0,0,0c0,0,0,0,0,0c0,0,0,0,0,0c0,0,0,0,0,0c0,0,0,0,0,0c0,0,0,0,0,0
			C145.7,4.5,145.2,4.2,144.7,4L144.7,4z M140.9,2.7L135.2,22c0.3,0.1,0.7,0.2,1,0.3l6.6-19c-0.4-0.2-0.9-0.3-1.3-0.4c0,0,0,0,0,0
			c0,0,0,0,0,0c0,0,0,0,0,0c0,0,0,0,0,0c0,0,0,0,0,0c0,0,0,0,0,0c0,0,0,0,0,0c0,0,0,0,0,0c0,0,0,0,0,0c0,0,0,0,0,0
			C141.2,2.8,141.1,2.8,140.9,2.7L140.9,2.7z M137,1.8l-3.8,19.8c0.3,0.1,0.7,0.1,1,0.2L139,2.2c0,0,0,0,0,0c0,0,0,0,0,0
			c0,0,0,0,0,0c0,0,0,0,0,0c0,0,0,0,0,0c0,0,0,0,0,0c0,0,0,0,0,0c0,0,0,0,0,0c0,0,0,0,0,0c0,0,0,0,0,0c0,0,0,0,0,0c0,0,0,0,0,0
			c0,0,0,0,0,0c0,0,0,0,0,0c0,0,0,0,0,0h0c-0.3-0.1-0.6-0.1-0.8-0.2c0,0,0,0,0,0c0,0,0,0-0.1,0c0,0,0,0,0,0c0,0,0,0,0,0c0,0,0,0,0,0
			c0,0,0,0,0,0c0,0,0,0,0,0c0,0,0,0,0,0c0,0,0,0,0,0c0,0,0,0,0,0c0,0,0,0,0,0c0,0,0,0,0,0c0,0,0,0,0,0c0,0,0,0,0,0
			C137.4,1.9,137.2,1.8,137,1.8L137,1.8z M133,1.2l-1.9,20.1c0.3,0,0.7,0.1,1,0.1L135,1.4c-0.2,0-0.3,0-0.5-0.1l0,0c0,0,0,0,0,0
			c0,0,0,0,0,0c0,0,0,0,0,0c0,0,0,0,0,0c0,0,0,0,0,0c0,0,0,0,0,0c0,0,0,0,0,0c0,0,0,0,0,0c0,0,0,0,0,0c0,0,0,0,0,0c0,0,0,0,0,0
			c0,0,0,0,0,0l0,0c-0.3,0-0.6-0.1-0.9-0.1h0c0,0,0,0,0,0c0,0,0,0,0,0c0,0,0,0,0,0c0,0,0,0,0,0c0,0,0,0,0,0c0,0,0,0,0,0c0,0,0,0,0,0
			C133.2,1.2,133.1,1.2,133,1.2L133,1.2z M129,1v20.1c0.4,0,0.7,0,1.1,0L131,1c-0.4,0-0.8,0-1.2,0l0,0c0,0,0,0,0,0c0,0,0,0,0,0
			c0,0,0,0,0,0c0,0,0,0,0,0c0,0,0,0,0,0c0,0,0,0,0,0c0,0,0,0,0,0c0,0,0,0,0,0c0,0,0,0,0,0c0,0,0,0,0,0c0,0,0,0,0,0c0,0,0,0,0,0
			c0,0,0,0,0,0c0,0,0,0,0,0c0,0,0,0,0,0c0,0,0,0,0,0c0,0,0,0,0,0c0,0,0,0,0,0c0,0,0,0,0,0c0,0,0,0,0,0c0,0,0,0,0,0c0,0,0,0,0,0
			c0,0,0,0,0,0c0,0,0,0,0,0c0,0,0,0,0,0s0,0,0,0s0,0,0,0c0,0,0,0,0,0c0,0,0,0,0,0s0,0,0,0s0,0,0,0c0,0,0,0,0,0c0,0,0,0,0,0
			c0,0,0,0,0,0c0,0,0,0,0,0s0,0,0,0c0,0,0,0,0,0c0,0,0,0,0,0c0,0,0,0,0,0c0,0,0,0,0,0C129.1,1,129.1,1,129,1C129.1,1,129.1,1,129,1
			C129.1,1,129.1,1,129,1C129.1,1,129,1,129,1C129,1,129,1,129,1C129,1,129,1,129,1L129,1z"/>
	</g>
	<g>
		<path class="st2" d="M129,3C151,3,169,21,169,43c0,22-17.9,40-40,40c-22,0-40-17.9-40-40C89,21,106.9,3,129,3 M129,1
			c-23.2,0-42,18.8-42,42c0,23.2,18.8,42,42,42c23.2,0,42-18.8,42-42C171,19.8,152.2,1,129,1L129,1z"/>
	</g>
	<g class="st3">
		<path class="st4" d="M165.3,43c0,20-16.2,36.3-36.3,36.3C109,79.3,92.7,63,92.7,43C92.7,23,109,6.7,129,6.7
			C149,6.7,165.3,23,165.3,43z"/>
	</g>
	<g>
		<path class="st5" d="M129,71.3c-15.6,0-28.3-12.7-28.3-28.3c0-15.6,12.7-28.3,28.3-28.3c15.6,0,28.3,12.7,28.3,28.3
			C157.3,58.6,144.6,71.3,129,71.3z"/>
		<path class="st2" d="M129,17.7c14,0,25.3,11.4,25.3,25.3c0,14-11.4,25.3-25.3,25.3c-14,0-25.3-11.4-25.3-25.3
			C103.7,29.1,115,17.7,129,17.7 M129,11.7c-17.3,0-31.4,14-31.4,31.4c0,17.3,14,31.4,31.4,31.4c17.3,0,31.4-14,31.4-31.4
			C160.3,25.7,146.3,11.7,129,11.7L129,11.7z"/>
	</g>
</g>
<g id="LS_pressed">
	<g>
		<path class="st6" d="M85,43c0,23.2-18.8,42-42,42C19.8,85,1,66.2,1,43C1,19.8,19.8,1,43,1C66.2,1,85,19.8,85,43z"/>
		<path class="st7" d="M43,1C43,1,43,1,43,1C43,1,43,1,43,1C42.9,1,42.9,1,43,1C42.9,1,42.9,1,43,1C42.9,1,42.9,1,43,1
			c-0.1,0-0.1,0-0.1,0c0,0,0,0,0,0c0,0,0,0,0,0c0,0,0,0,0,0c0,0,0,0,0,0c0,0,0,0,0,0c0,0,0,0,0,0c0,0,0,0,0,0c0,0,0,0,0,0
			c0,0,0,0,0,0c0,0,0,0,0,0c0,0,0,0,0,0c0,0,0,0,0,0s0,0,0,0c0,0,0,0,0,0c0,0,0,0,0,0c0,0,0,0,0,0c0,0,0,0,0,0c0,0,0,0,0,0
			c0,0,0,0,0,0c0,0,0,0,0,0c0,0,0,0,0,0c0,0,0,0,0,0c0,0,0,0,0,0c0,0,0,0,0,0c0,0,0,0,0,0c0,0,0,0,0,0c0,0,0,0,0,0c0,0,0,0,0,0
			c0,0,0,0,0,0c0,0,0,0,0,0c0,0,0,0,0,0c0,0,0,0,0,0c0,0,0,0,0,0c0,0,0,0,0,0c0,0,0,0,0,0c0,0,0,0,0,0c0,0,0,0,0,0c0,0,0,0,0,0
			c0,0,0,0,0,0c0,0,0,0,0,0c0,0,0,0,0,0c0,0,0,0,0,0c0,0,0,0,0,0c0,0,0,0,0,0c0,0,0,0,0,0c0,0-0.1,0-0.1,0c0,0,0,0,0,0c0,0,0,0,0,0
			c0,0,0,0,0,0c0,0,0,0,0,0c0,0,0,0,0,0c0,0,0,0,0,0c0,0,0,0,0,0c0,0,0,0,0,0c0,0,0,0,0,0c0,0,0,0,0,0h0c0,0,0,0,0,0h0
			c0,0,0,0-0.1,0l0,0c-0.3,0-0.5,0-0.8,0l0.9,20.1c0.4,0,0.7,0,1.1,0V1L43,1L43,1z M39,1.2c-0.1,0-0.1,0-0.2,0l0,0c0,0,0,0,0,0
			c0,0,0,0,0,0c0,0,0,0,0,0c0,0,0,0,0,0c0,0,0,0,0,0c0,0,0,0,0,0c0,0,0,0,0,0c0,0,0,0,0,0h0c-0.6,0.1-1.1,0.1-1.7,0.2l2.9,19.9
			c0.3,0,0.7-0.1,1-0.1L39,1.2L39,1.2z M35,1.8C35,1.8,34.9,1.8,35,1.8C34.9,1.8,34.9,1.8,35,1.8c-0.1,0-0.1,0-0.1,0c0,0,0,0,0,0
			c0,0,0,0,0,0c0,0,0,0,0,0c0,0,0,0,0,0c0,0,0,0,0,0c0,0,0,0,0,0c0,0,0,0,0,0c0,0,0,0,0,0c0,0,0,0,0,0c0,0,0,0,0,0c0,0,0,0,0,0
			c0,0,0,0,0,0s0,0,0,0c0,0,0,0,0,0c0,0,0,0,0,0c0,0,0,0,0,0c0,0,0,0,0,0c0,0,0,0,0,0c0,0,0,0,0,0c0,0,0,0,0,0c0,0,0,0,0,0
			c0,0,0,0,0,0c0,0,0,0,0,0c0,0,0,0,0,0c0,0,0,0,0,0h0C34,2,33.5,2.1,33,2.2l4.8,19.6c0.3-0.1,0.7-0.2,1-0.2L35,1.8L35,1.8z
			 M31.1,2.7c-0.3,0.1-0.5,0.2-0.8,0.2h0c0,0,0,0-0.1,0l0,0c0,0,0,0-0.1,0c0,0,0,0,0,0c0,0,0,0-0.1,0c-0.3,0.1-0.6,0.2-0.9,0.3
			l6.6,19c0.3-0.1,0.7-0.2,1-0.3L31.1,2.7L31.1,2.7z M27.3,4c-0.6,0.3-1.2,0.5-1.8,0.8l8.4,18.3c0.3-0.1,0.6-0.3,1-0.4L27.3,4
			L27.3,4z M23.6,5.7c-0.6,0.3-1.2,0.6-1.8,1L32,24.1c0.3-0.2,0.6-0.3,0.9-0.5L23.6,5.7L23.6,5.7z M20.1,7.8
			c-0.6,0.4-1.1,0.7-1.7,1.1l11.8,16.3c0.3-0.2,0.6-0.4,0.9-0.6L20.1,7.8L20.1,7.8z M16.9,10.1c-0.5,0.4-1,0.8-1.5,1.3l13.3,15.1
			c0.3-0.2,0.5-0.5,0.8-0.7L16.9,10.1L16.9,10.1z M13.8,12.8c-0.3,0.3-0.6,0.6-0.8,0.8c0,0,0,0,0,0c0,0,0,0,0,0c0,0,0,0,0,0
			c0,0,0,0,0,0c0,0,0,0,0,0c0,0,0,0,0,0c0,0,0,0,0,0c0,0,0,0,0,0c0,0,0,0,0,0c0,0,0,0,0,0c0,0,0,0,0,0c0,0,0,0,0,0
			c-0.1,0.2-0.3,0.3-0.4,0.5L27.1,28c0.2-0.3,0.5-0.5,0.7-0.7L13.8,12.8L13.8,12.8z M11.1,15.7C11.1,15.7,11.1,15.7,11.1,15.7
			C11.1,15.7,11.1,15.7,11.1,15.7C11.1,15.7,11,15.7,11.1,15.7C11,15.7,11,15.8,11.1,15.7C11,15.8,11,15.8,11.1,15.7
			C11,15.8,11,15.8,11.1,15.7C11,15.8,11,15.8,11.1,15.7C11,15.8,11,15.8,11.1,15.7C11,15.8,11,15.8,11,15.8c0,0,0,0,0,0
			c0,0,0,0,0,0c0,0,0,0,0,0c0,0,0,0,0,0c0,0,0,0,0,0l0,0c-0.4,0.4-0.7,0.9-1.1,1.4c0,0,0,0,0,0l15.9,12.4c0.2-0.3,0.4-0.6,0.7-0.8
			L11.1,15.7L11.1,15.7z M8.6,18.9C8.6,19,8.5,19,8.4,19.1c0,0,0,0,0,0c0,0,0,0,0,0c0,0,0,0,0,0c0,0,0,0,0,0
			c-0.3,0.5-0.6,0.9-0.9,1.4l17,10.8c0.2-0.3,0.4-0.6,0.6-0.9L8.6,18.9L8.6,18.9z M6.4,22.3c-0.2,0.3-0.3,0.5-0.5,0.8c0,0,0,0,0,0
			c0,0,0,0,0,0c-0.2,0.3-0.3,0.6-0.5,0.9l18,9.1c0.2-0.3,0.3-0.6,0.5-0.9L6.4,22.3L6.4,22.3z M4.6,25.9c-0.1,0.2-0.1,0.3-0.2,0.5
			l0,0c0,0,0,0,0,0.1l0,0c0,0,0,0,0,0.1l0,0c-0.2,0.4-0.4,0.9-0.5,1.3l18.8,7.3c0.1-0.3,0.3-0.6,0.4-1L4.6,25.9L4.6,25.9z M3.2,29.6
			c-0.1,0.3-0.2,0.5-0.3,0.8c0,0,0,0,0,0c0,0,0,0,0,0c0,0,0,0,0,0c0,0,0,0,0,0c0,0,0,0,0,0c0,0,0,0,0,0c0,0,0,0,0,0c0,0,0,0,0,0
			c0,0,0,0,0,0c0,0,0,0,0,0c0,0,0,0,0,0c0,0,0,0,0,0c0,0,0,0,0,0c0,0,0,0,0,0c0,0,0,0,0,0c0,0,0,0,0,0c0,0,0,0,0,0c0,0,0,0,0,0
			c0,0,0,0,0,0c0,0,0,0,0,0c0,0,0,0,0,0c0,0,0,0,0,0c0,0,0,0,0,0c0,0,0,0,0,0c0,0,0,0,0,0c0,0,0,0,0,0c0,0,0,0,0,0c0,0,0,0,0,0
			c0,0,0,0,0,0c0,0,0,0,0,0c0,0,0,0,0,0c0,0,0,0,0,0c0,0,0,0,0,0c0,0,0,0,0,0c0,0,0,0,0,0c0,0,0,0,0,0c0,0,0,0,0,0
			c-0.1,0.2-0.1,0.4-0.2,0.6L22,37c0.1-0.3,0.2-0.7,0.3-1L3.2,29.6L3.2,29.6z M2.1,33.5c-0.1,0.5-0.2,1.1-0.3,1.6
			c0,0.1,0,0.2-0.1,0.4l19.8,3.6c0.1-0.3,0.1-0.7,0.2-1L2.1,33.5L2.1,33.5z M1.4,37.5c-0.1,0.4-0.1,0.9-0.1,1.3c0,0,0,0,0,0
			c0,0,0,0,0,0c0,0,0,0,0,0c0,0,0,0,0,0c0,0,0,0,0,0c0,0,0,0,0,0c0,0,0,0,0,0v0c0,0.2,0,0.4-0.1,0.6l20.1,1.7c0-0.3,0.1-0.7,0.1-1
			L1.4,37.5L1.4,37.5z M1,41.5c0,0.3,0,0.6,0,1c0,0,0,0,0,0c0,0,0,0,0,0c0,0,0,0,0,0c0,0,0,0,0,0.1c0,0,0,0,0,0c0,0,0,0,0,0
			c0,0,0,0,0,0c0,0,0,0,0,0c0,0,0,0,0,0c0,0,0,0,0,0c0,0,0,0,0,0s0,0,0,0c0,0,0,0,0,0c0,0,0,0,0,0c0,0,0,0,0,0c0,0,0,0,0,0
			c0,0,0,0,0,0c0,0,0,0,0,0c0,0,0,0,0,0c0,0,0,0,0,0c0,0,0,0,0,0c0,0,0,0,0,0c0,0,0,0,0,0l0,0l0,0c0,0,0,0,0,0c0,0,0,0,0,0
			c0,0,0,0,0,0c0,0,0,0,0,0l0,0c0,0.1,0,0.3,0,0.4l20.1-0.2l0-0.3c0-0.3,0-0.5,0-0.8L1,41.5L1,41.5z M21.2,44.3L1.1,45.5
			c0,0.6,0.1,1.1,0.1,1.7c0,0,0,0,0,0c0,0,0,0,0,0c0,0,0,0,0,0c0,0,0,0,0,0c0,0,0,0,0,0c0,0,0,0,0,0c0,0,0,0,0,0c0,0,0,0,0,0
			c0,0.1,0,0.1,0,0.2l20-2.1C21.2,45,21.2,44.7,21.2,44.3L21.2,44.3z M21.4,46.4L1.5,49.5c0,0,0,0,0,0c0,0,0,0,0,0c0,0,0,0,0,0
			c0,0,0,0,0,0c0,0,0,0,0,0c0,0,0,0,0,0c0,0,0,0,0,0c0.1,0.5,0.2,1.1,0.3,1.6c0,0,0,0,0,0c0,0,0,0,0,0c0,0,0,0,0,0c0,0,0,0,0,0
			c0,0,0,0,0,0c0,0,0,0,0,0c0,0,0,0,0,0c0,0,0,0,0,0c0,0.1,0,0.1,0,0.2l19.7-4.1C21.5,47.1,21.5,46.8,21.4,46.4L21.4,46.4z
			 M21.8,48.5l-19.5,5c0.2,0.7,0.4,1.3,0.5,1.9l19.3-5.9C22,49.1,21.9,48.8,21.8,48.5L21.8,48.5z M22.4,50.5L3.5,57.3
			C3.7,58,4,58.6,4.2,59.2l18.6-7.8C22.7,51.1,22.6,50.8,22.4,50.5L22.4,50.5z M23.2,52.4L5.1,61c0,0.1,0.1,0.1,0.1,0.2c0,0,0,0,0,0
			c0,0,0,0,0,0c0,0,0,0,0,0c0,0,0,0,0,0c0.2,0.4,0.4,0.7,0.6,1.1l0,0c0,0,0,0,0,0c0,0,0,0,0,0c0,0,0,0,0,0c0,0,0,0,0,0c0,0,0,0,0,0
			c0,0,0,0,0,0c0,0,0,0,0,0c0.1,0.1,0.1,0.2,0.2,0.3l17.8-9.5C23.6,53,23.4,52.7,23.2,52.4L23.2,52.4z M24.2,54.2L7,64.6
			c0.1,0.2,0.2,0.3,0.3,0.5v0c0,0,0,0,0,0c0,0,0,0,0,0c0,0,0,0,0,0c0,0,0,0,0,0c0,0,0,0,0,0c0.2,0.4,0.5,0.8,0.7,1.2l16.8-11.2
			C24.6,54.8,24.4,54.5,24.2,54.2L24.2,54.2z M25.4,56l-16.2,12c0.1,0.1,0.2,0.2,0.2,0.3v0c0,0,0,0,0,0l0,0c0,0,0,0,0,0c0,0,0,0,0,0
			c0,0,0,0,0,0c0,0,0,0,0,0c0,0,0,0,0,0c0,0,0,0,0,0c0,0,0,0,0,0c0,0,0,0,0,0c0,0,0,0,0,0c0,0,0,0,0,0c0,0,0,0,0,0c0,0,0,0,0,0
			c0,0,0,0,0,0c0,0,0,0,0,0c0,0,0,0,0,0c0,0,0,0,0,0c0,0,0,0,0,0c0,0,0,0,0,0c0,0,0,0,0,0c0,0,0,0,0,0c0,0,0,0,0,0c0,0,0,0,0,0
			c0,0,0,0,0,0c0,0,0,0,0,0c0,0,0,0,0,0c0,0,0,0,0,0c0,0,0,0,0,0c0,0,0,0,0,0c0,0,0,0,0,0c0.2,0.3,0.5,0.6,0.7,0.9L26,56.8
			C25.8,56.5,25.6,56.2,25.4,56L25.4,56z M26.7,57.6l-15,13.5c0.4,0.5,0.9,1,1.4,1.5l14.3-14.2C27.2,58.1,27,57.9,26.7,57.6
			L26.7,57.6z M28.2,59.1L14.6,73.9c0.3,0.2,0.5,0.5,0.8,0.7c0,0,0,0,0,0c0,0,0,0,0,0c0,0,0,0,0,0c0,0,0,0,0,0c0,0,0,0,0,0
			c0,0,0,0,0,0c0,0,0,0,0,0l0,0c0.2,0.2,0.4,0.4,0.7,0.6L29,59.8C28.7,59.6,28.5,59.3,28.2,59.1L28.2,59.1z M29.8,60.4L17.7,76.5
			c0.3,0.2,0.6,0.5,0.9,0.7c0.2,0.2,0.5,0.3,0.7,0.5l11.4-16.6C30.4,60.9,30.1,60.7,29.8,60.4L29.8,60.4z M31.6,61.6L21,78.8
			c0,0,0.1,0,0.1,0.1c0,0,0,0,0,0c0,0,0,0,0,0c0,0,0,0,0,0c0,0,0,0,0,0c0,0,0,0,0,0c0,0,0,0,0,0c0.5,0.3,1,0.6,1.5,0.9c0,0,0,0,0,0
			c0,0,0,0,0,0c0,0,0,0,0,0c0,0,0,0,0,0l9.7-17.6C32.2,62,31.9,61.8,31.6,61.6L31.6,61.6z M33.4,62.6l-8.9,18.1
			c0.1,0.1,0.2,0.1,0.3,0.2l0,0c0,0,0,0,0,0c0,0,0,0,0,0c0,0,0,0,0,0c0,0,0,0,0,0c0,0,0,0,0,0c0,0,0,0,0,0c0,0,0,0,0,0c0,0,0,0,0,0
			c0,0,0,0,0,0c0,0,0,0,0,0c0,0,0,0,0,0c0,0,0,0,0,0c0,0,0,0,0,0c0,0,0,0,0,0c0,0,0,0,0,0c0.4,0.2,0.8,0.4,1.3,0.6l8-18.5
			C34,62.9,33.7,62.8,33.4,62.6L33.4,62.6z M35.3,63.5l-7.1,18.9c0.6,0.2,1.3,0.5,1.9,0.7l6.2-19.2C36,63.7,35.6,63.6,35.3,63.5
			L35.3,63.5z M37.3,64.1l-5.2,19.5c0.1,0,0.2,0,0.2,0.1h0c0,0,0,0,0,0c0,0,0,0,0,0c0,0,0,0,0,0c0,0,0,0,0,0c0,0,0,0,0,0
			c0,0,0,0,0,0c0,0,0,0,0,0c0,0,0,0,0,0c0,0,0,0,0,0c0,0,0,0,0,0c0,0,0,0,0,0c0,0,0,0,0,0c0,0,0,0,0,0c0.5,0.1,1,0.2,1.5,0.4
			l4.3-19.7C38,64.3,37.6,64.2,37.3,64.1L37.3,64.1z M39.3,64.5L36,84.4c0.5,0.1,1,0.2,1.5,0.2c0.2,0,0.3,0,0.5,0.1l2.4-20
			C40,64.7,39.7,64.6,39.3,64.5L39.3,64.5z M41.4,64.8L40,84.9c0.1,0,0.3,0,0.4,0c0,0,0,0,0,0c0,0,0,0,0,0c0,0,0,0,0,0c0,0,0,0,0,0
			c0,0,0,0,0,0c0,0,0,0,0,0c0.3,0,0.6,0,1,0c0,0,0,0,0,0c0,0,0,0,0,0c0,0,0,0,0,0c0,0,0,0,0,0c0,0,0,0,0,0c0,0,0,0,0,0c0,0,0,0,0,0
			c0,0,0,0,0,0c0.1,0,0.3,0,0.4,0l0.5-20.1C42.1,64.8,41.8,64.8,41.4,64.8L41.4,64.8z M44.6,64.8c-0.4,0-0.7,0-1.1,0.1L44,85
			c0.2,0,0.4,0,0.6,0c0,0,0,0,0.1,0c0,0,0,0,0,0c0,0,0,0,0,0c0,0,0,0,0,0c0,0,0,0,0,0h0c0.4,0,0.8,0,1.2-0.1c0,0,0,0,0,0
			c0,0,0,0,0.1,0c0,0,0,0,0,0c0,0,0,0,0,0h0c0,0,0,0,0,0l0,0L44.6,64.8L44.6,64.8z M46.7,64.5c-0.3,0.1-0.7,0.1-1,0.1l2.4,20
			c0.6-0.1,1.2-0.2,1.8-0.3c0,0,0,0,0,0c0,0,0,0,0,0c0,0,0,0,0,0c0,0,0,0,0,0c0,0,0,0,0,0c0,0,0,0,0,0c0,0,0,0,0,0c0,0,0,0,0,0
			c0,0,0,0,0,0c0,0,0,0,0,0L46.7,64.5L46.7,64.5z M48.7,64.1c-0.3,0.1-0.7,0.2-1,0.2L52,84c0.1,0,0.1,0,0.2,0c0,0,0,0,0,0
			c0,0,0,0,0,0c0,0,0,0,0,0c0,0,0,0,0,0c0,0,0,0,0,0c0,0,0,0,0,0c0,0,0,0,0,0c0,0,0,0,0,0c0,0,0,0,0,0c0,0,0,0,0,0c0,0,0,0,0,0
			c0,0,0,0,0,0c0,0,0,0,0,0c0,0,0,0,0,0c0.3-0.1,0.5-0.1,0.8-0.2h0c0,0,0,0,0,0c0,0,0,0,0,0c0,0,0,0,0,0c0,0,0,0,0,0c0,0,0,0,0,0
			c0,0,0,0,0,0c0,0,0,0,0,0c0,0,0,0,0,0c0,0,0,0,0,0c0,0,0,0,0,0c0,0,0,0,0,0c0,0,0,0,0,0c0,0,0,0,0,0c0,0,0,0,0,0c0,0,0,0,0,0
			c0,0,0,0,0,0c0,0,0,0,0,0c0,0,0,0,0,0c0,0,0,0,0,0c0,0,0,0,0,0c0,0,0,0,0,0c0,0,0,0,0,0c0,0,0,0,0,0h0c0.1,0,0.3-0.1,0.4-0.1
			L48.7,64.1L48.7,64.1z M50.7,63.5c-0.3,0.1-0.7,0.2-1,0.3L55.9,83c0.3-0.1,0.6-0.2,0.9-0.3c0,0,0,0,0,0c0,0,0,0,0,0c0,0,0,0,0,0
			c0,0,0,0,0,0c0,0,0,0,0,0c0,0,0,0,0,0c0,0,0,0,0,0c0,0,0,0,0,0c0,0,0,0,0,0c0,0,0,0,0,0c0,0,0,0,0,0c0,0,0,0,0,0c0,0,0,0,0,0
			c0,0,0,0,0,0c0.3-0.1,0.5-0.2,0.8-0.3L50.7,63.5L50.7,63.5z M52.6,62.6c-0.3,0.2-0.6,0.3-0.9,0.4l8,18.5c0.4-0.2,0.7-0.3,1.1-0.5
			c0,0,0,0,0,0c0,0,0,0,0,0c0,0,0,0,0,0c0,0,0,0,0,0c0,0,0,0,0,0c0,0,0,0,0,0c0,0,0,0,0,0c0,0,0,0,0,0c0,0,0,0,0,0s0,0,0,0
			c0,0,0,0,0,0c0,0,0,0,0,0c0.2-0.1,0.4-0.2,0.6-0.3L52.6,62.6L52.6,62.6z M54.4,61.6c-0.3,0.2-0.6,0.4-0.9,0.5l9.7,17.6
			c0.1,0,0.1-0.1,0.2-0.1c0,0,0,0,0,0c0,0,0,0,0,0c0,0,0,0,0,0c0,0,0,0,0,0c0,0,0,0,0,0c0,0,0,0,0,0c0,0,0,0,0,0c0,0,0,0,0,0
			c0,0,0,0,0,0c0,0,0,0,0,0c0,0,0,0,0,0c0,0,0,0,0,0c0,0,0,0,0,0l0,0c0.5-0.3,0.9-0.5,1.4-0.8L54.4,61.6L54.4,61.6z M56.2,60.4
			c-0.3,0.2-0.6,0.4-0.9,0.6l11.4,16.6c0.3-0.2,0.5-0.4,0.8-0.5c0,0,0,0,0,0c0,0,0,0,0,0c0,0,0,0,0,0c0,0,0,0,0,0c0,0,0,0,0,0
			c0,0,0,0,0,0c0,0,0,0,0,0c0,0,0,0,0,0c0,0,0,0,0,0c0,0,0,0,0,0s0,0,0,0c0,0,0,0,0,0c0,0,0,0,0,0c0,0,0,0,0,0c0,0,0,0,0,0
			c0,0,0,0,0,0c0,0,0,0,0,0c0,0,0,0,0,0c0,0,0,0,0,0c0,0,0,0,0,0c0,0,0,0,0,0c0,0,0,0,0,0c0.2-0.1,0.4-0.3,0.6-0.4L56.2,60.4
			L56.2,60.4z M57.8,59.1c-0.3,0.2-0.5,0.5-0.8,0.7l12.9,15.5c0,0,0,0,0,0c0,0,0,0,0,0c0,0,0,0,0,0c0,0,0,0,0,0c0,0,0,0,0,0
			c0,0,0,0,0,0c0,0,0,0,0,0c0,0,0,0,0,0c0,0,0,0,0,0c0,0,0,0,0,0c0,0,0,0,0,0c0,0,0,0,0,0c0,0,0,0,0,0c0,0,0,0,0,0c0,0,0,0,0,0
			c0,0,0,0,0,0c0,0,0,0,0,0c0,0,0,0,0,0c0,0,0,0,0,0c0,0,0,0,0,0c0,0,0,0,0,0c0,0,0,0,0,0c0,0,0,0,0,0c0,0,0,0,0,0c0,0,0,0,0,0
			c0,0,0,0,0,0c0,0,0,0,0,0c0,0,0,0,0,0c0,0,0,0,0,0c0,0,0,0,0,0l0,0c0,0,0,0,0,0l0,0c0.3-0.3,0.7-0.6,1-0.9c0,0,0,0,0,0
			c0,0,0,0,0,0c0,0,0,0,0,0c0,0,0,0,0,0c0,0,0,0,0,0c0,0,0,0,0,0c0,0,0,0,0,0c0,0,0,0,0,0c0,0,0,0,0,0c0,0,0,0,0,0c0,0,0,0,0,0l0,0
			c0,0,0,0,0,0L57.8,59.1L57.8,59.1z M59.3,57.6c-0.2,0.3-0.5,0.5-0.7,0.8l14.3,14.2c0,0,0,0,0,0c0,0,0,0,0,0c0,0,0,0,0,0
			c0.3-0.3,0.6-0.6,0.9-1c0,0,0,0,0,0c0,0,0,0,0,0c0,0,0,0,0,0c0,0,0,0,0,0c0,0,0,0,0,0c0,0,0,0,0,0c0,0,0,0,0,0c0,0,0,0,0,0
			c0,0,0,0,0,0l0,0c0.1-0.1,0.2-0.2,0.3-0.4L59.3,57.6L59.3,57.6z M60.6,56c-0.2,0.3-0.4,0.6-0.6,0.8l15.6,12.7c0,0,0,0,0,0
			c0,0,0,0,0,0c0,0,0,0,0,0c0,0,0,0,0,0c0,0,0,0,0,0c0,0,0,0,0,0c0,0,0,0,0,0s0,0,0,0c0,0,0,0,0,0c0,0,0,0,0,0c0,0,0,0,0,0
			c0,0,0,0,0,0c0,0,0,0,0,0c0,0,0,0,0,0c0,0,0,0,0,0l0,0c0.2-0.3,0.4-0.5,0.6-0.8l0,0c0,0,0,0,0,0c0,0,0,0,0,0c0,0,0,0,0,0
			c0,0,0,0,0,0c0,0,0,0,0,0c0,0,0,0,0,0c0,0,0,0,0,0c0,0,0,0,0,0c0,0,0,0,0,0c0,0,0,0,0,0c0,0,0,0,0,0c0.1-0.2,0.2-0.3,0.4-0.5
			L60.6,56L60.6,56z M61.8,54.2c-0.2,0.3-0.4,0.6-0.6,0.9L78,66.3c0-0.1,0.1-0.1,0.1-0.2c0,0,0,0,0,0c0,0,0,0,0,0
			c0.3-0.5,0.6-1,0.9-1.4l0,0c0,0,0,0,0,0c0,0,0,0,0,0L61.8,54.2L61.8,54.2z M62.8,52.4c-0.1,0.3-0.3,0.6-0.5,0.9L80,62.8
			c0.1-0.2,0.2-0.3,0.3-0.5c0.1-0.3,0.3-0.6,0.4-0.8c0,0,0,0,0,0c0,0,0,0,0,0c0,0,0,0,0,0c0,0,0,0,0,0c0,0,0,0,0,0c0,0,0,0,0,0
			c0,0,0,0,0,0c0,0,0,0,0,0c0.1-0.1,0.1-0.2,0.2-0.3L62.8,52.4L62.8,52.4z M63.6,50.4c-0.1,0.3-0.2,0.7-0.4,1l18.6,7.8
			c0.1-0.2,0.2-0.5,0.3-0.7c0,0,0,0,0,0c0,0,0,0,0,0c0,0,0,0,0,0c0,0,0,0,0,0c0,0,0,0,0,0c0,0,0,0,0,0c0,0,0,0,0,0c0,0,0,0,0,0
			c0.1-0.4,0.3-0.7,0.4-1.1L63.6,50.4L63.6,50.4z M64.2,48.5c-0.1,0.3-0.2,0.7-0.3,1l19.3,5.9c0-0.1,0.1-0.3,0.1-0.4l0,0
			c0,0,0,0,0,0c0,0,0,0,0,0c0,0,0,0,0,0c0,0,0,0,0,0c0,0,0,0,0,0c0,0,0,0,0,0c0,0,0,0,0,0c0,0,0,0,0,0c0,0,0,0,0,0c0,0,0,0,0,0
			c0,0,0,0,0,0c0,0,0,0,0,0c0,0,0,0,0,0c0,0,0,0,0,0c0,0,0,0,0,0c0,0,0,0,0,0c0,0,0,0,0,0v0c0,0,0,0,0,0v0c0.1-0.4,0.2-0.8,0.3-1.2
			L64.2,48.5L64.2,48.5z M64.6,46.4c-0.1,0.3-0.1,0.7-0.2,1l19.7,4.1c0.1-0.6,0.2-1.2,0.3-1.7c0-0.1,0-0.2,0-0.2L64.6,46.4
			L64.6,46.4z M64.8,44.3c0,0.3,0,0.7-0.1,1l20,2.1c0-0.2,0-0.5,0.1-0.7c0,0,0,0,0,0c0,0,0,0,0,0c0,0,0,0,0,0c0,0,0,0,0,0
			c0,0,0,0,0,0c0,0,0,0,0,0c0-0.4,0.1-0.8,0.1-1.2c0,0,0,0,0-0.1L64.8,44.3L64.8,44.3z M85,41.5l-20.1,0.7c0,0.3,0,0.5,0,0.8l0,0.3
			L85,43.5c0-0.1,0-0.3,0-0.4c0,0,0,0,0,0c0,0,0,0,0,0c0,0,0,0,0,0c0,0,0,0,0,0c0,0,0,0,0,0l0,0l0,0c0,0,0,0,0,0c0,0,0,0,0,0
			c0,0,0,0,0,0c0,0,0,0,0,0c0,0,0,0,0,0c0,0,0,0,0,0c0,0,0,0,0,0c0,0,0,0,0,0c0,0,0,0,0,0c0,0,0,0,0,0c0,0,0,0,0,0c0,0,0,0,0,0
			c0,0,0,0,0,0c0,0,0,0,0,0c0,0,0,0,0,0c0,0,0,0,0,0c0,0,0,0,0,0c0,0,0-0.1,0-0.1c0,0,0,0,0,0c0,0,0,0,0,0c0,0,0,0,0,0
			c0-0.1,0-0.3,0-0.4v0c0,0,0-0.1,0-0.1c0,0,0,0,0,0c0,0,0,0,0,0c0,0,0,0,0,0c0,0,0,0,0,0c0,0,0,0,0,0c0,0,0,0,0,0c0,0,0,0,0,0
			c0,0,0,0,0,0C85,41.7,85,41.6,85,41.5L85,41.5z M84.6,37.5l-20,2.6c0,0.3,0.1,0.7,0.1,1l20.1-1.7c0-0.2,0-0.3,0-0.5c0,0,0,0,0,0
			c0,0,0,0,0,0c0,0,0,0,0,0c0,0,0,0,0,0c0,0,0,0,0,0c0,0,0,0,0,0c0,0,0,0,0,0c0,0,0,0,0,0c0,0,0,0,0,0l0,0
			C84.8,38.4,84.7,37.9,84.6,37.5L84.6,37.5z M83.9,33.5L64.3,38c0.1,0.3,0.1,0.7,0.2,1l19.8-3.6c-0.1-0.3-0.1-0.6-0.2-1v0
			c0,0,0,0,0,0c0,0,0,0,0,0c0,0,0,0,0,0c0,0,0,0,0,0s0,0,0,0s0,0,0,0c0,0,0,0,0,0c0,0,0,0,0,0c0,0,0,0,0,0c0,0,0,0,0,0c0,0,0,0,0,0
			c0,0,0,0,0,0c0,0,0,0,0,0c0,0,0,0,0,0c0,0,0,0,0,0c0,0,0,0,0,0c0,0,0,0,0,0c0,0,0,0,0,0c0,0,0,0,0,0c0,0,0,0,0,0c0,0,0,0,0,0
			c0,0,0,0,0,0c0,0,0,0,0,0c0-0.1,0-0.2-0.1-0.3c0,0,0,0,0,0c0,0,0,0,0,0c0,0,0,0,0,0c0,0,0,0,0,0c0,0,0,0,0,0c0,0,0,0,0,0
			C84,33.7,83.9,33.6,83.9,33.5L83.9,33.5z M82.8,29.6L63.7,36c0.1,0.3,0.2,0.7,0.3,1l19.4-5.5c0,0,0,0,0,0c0,0,0,0,0,0c0,0,0,0,0,0
			c0,0,0,0,0,0c0,0,0,0,0,0c0,0,0,0,0,0c0,0,0,0,0,0l0,0c-0.1-0.5-0.3-1-0.5-1.5c0,0,0,0,0,0c0,0,0,0,0,0c0,0,0,0,0,0c0,0,0,0,0,0
			C82.9,29.8,82.9,29.7,82.8,29.6L82.8,29.6z M81.4,25.9L63,34.1c0.1,0.3,0.3,0.6,0.4,1l18.8-7.3C81.9,27.1,81.6,26.5,81.4,25.9
			L81.4,25.9z M79.5,22.3L62,32.2c0.2,0.3,0.3,0.6,0.5,0.9l18-9.1c-0.3-0.5-0.5-1-0.8-1.6v0c0,0,0,0,0,0c0,0,0,0,0,0c0,0,0,0,0,0
			c0,0,0,0,0,0c0,0,0,0,0,0c0,0,0,0,0,0c0,0,0,0,0,0c0,0,0,0,0,0C79.6,22.4,79.6,22.4,79.5,22.3C79.6,22.4,79.6,22.4,79.5,22.3
			C79.6,22.4,79.6,22.3,79.5,22.3C79.6,22.3,79.6,22.3,79.5,22.3C79.6,22.3,79.6,22.3,79.5,22.3C79.6,22.3,79.6,22.3,79.5,22.3
			C79.5,22.3,79.5,22.3,79.5,22.3C79.5,22.3,79.5,22.3,79.5,22.3L79.5,22.3z M77.4,18.9L60.9,30.5c0.2,0.3,0.4,0.6,0.6,0.9l17-10.8
			c0-0.1-0.1-0.1-0.1-0.2c0,0,0,0,0,0c0,0,0,0,0,0c0,0,0,0,0,0l0,0c-0.2-0.3-0.4-0.7-0.7-1c0,0,0,0,0,0c0,0,0,0,0,0c0,0,0,0,0,0
			c0,0,0,0,0,0C77.6,19.1,77.5,19,77.4,18.9L77.4,18.9z M74.9,15.7L59.6,28.8c0.2,0.3,0.5,0.5,0.7,0.8l15.9-12.4
			c0,0-0.1-0.1-0.1-0.1l0,0c0,0,0,0,0,0c0,0,0,0,0,0c0,0,0,0,0,0c0,0,0,0,0,0c0,0,0,0,0,0c0,0,0,0,0,0c0,0,0,0,0,0c0,0,0,0,0,0
			c0,0,0,0,0,0c0,0,0,0,0,0c0,0,0,0,0,0c0,0,0,0,0,0c0,0,0,0,0,0c0,0,0,0,0,0c0,0,0,0,0,0c0,0,0,0,0,0c0,0,0,0,0,0c0,0,0,0,0,0
			c0,0,0,0,0,0c0,0,0,0,0,0c0,0,0,0,0,0c0,0,0,0,0,0c0,0,0,0,0,0c0,0,0,0,0,0c0,0,0,0,0,0c0,0,0,0,0,0c0,0,0,0,0,0c0,0,0,0,0,0
			c0,0,0,0,0,0c0,0,0,0,0,0c0,0,0,0,0,0c0,0,0,0,0,0c0,0,0,0,0,0c0,0,0,0,0,0c0,0,0,0,0,0c0,0,0,0,0,0c0,0,0,0,0,0c0,0,0,0,0,0
			c0,0,0,0,0,0c0,0,0,0,0,0c0,0,0,0,0,0c0,0,0,0,0,0c0,0,0,0,0,0c0,0,0,0,0,0c0,0,0,0,0,0c0,0,0,0,0,0c0,0,0,0,0,0c0,0,0,0,0,0
			c0,0,0,0,0,0c0,0,0,0,0,0c0,0,0,0,0,0c0,0,0,0,0,0c0,0,0,0,0,0c0,0,0,0,0,0c0,0,0,0,0,0c0,0,0,0,0,0c0,0,0,0,0,0c0,0,0,0,0,0
			c0,0,0,0,0,0c0,0,0,0,0,0c0,0,0,0,0,0c0,0,0,0,0,0c0,0,0,0,0,0c0,0,0,0,0,0c0,0,0,0,0,0c0,0,0,0,0,0c0,0,0,0,0,0c0,0,0,0,0,0
			c0,0,0,0,0,0c0,0,0,0,0,0c0,0,0,0,0,0c0,0,0,0,0,0c0,0,0,0,0,0c0,0,0,0,0,0c0,0,0,0,0,0c0,0,0,0,0,0c0,0,0,0,0,0c0,0,0,0,0,0
			c0,0,0,0,0,0c0,0,0,0,0,0c0,0,0,0,0,0c0,0,0,0,0,0c0,0,0,0,0,0c0,0,0,0,0,0c0,0,0,0,0,0c0,0,0,0,0,0c0,0,0,0,0,0c0,0,0,0,0,0
			c0,0,0,0,0,0c0,0,0,0,0,0c0,0,0,0,0,0c0,0,0,0,0,0c0,0,0,0,0,0c0,0,0,0,0,0c0,0,0,0,0,0c0,0,0,0,0,0s0,0,0,0c0,0,0,0,0,0
			c0,0,0,0,0,0c0,0,0,0,0,0c0,0,0,0,0,0c0,0,0,0,0,0c0,0,0,0,0,0C75,15.8,75,15.7,74.9,15.7L74.9,15.7z M72.2,12.8l-14,14.5
			c0.3,0.2,0.5,0.5,0.7,0.7l14.7-13.8c0,0,0,0,0,0C73.1,13.7,72.6,13.2,72.2,12.8L72.2,12.8z M69.1,10.1L56.6,25.9
			c0.3,0.2,0.5,0.4,0.8,0.7l13.3-15.2c-0.1-0.1-0.2-0.1-0.2-0.2c0,0,0,0,0,0c0,0,0,0,0,0c0,0,0,0,0,0c0,0,0,0,0,0
			C70,10.8,69.6,10.5,69.1,10.1L69.1,10.1z M65.9,7.8l-11,16.9c0.3,0.2,0.6,0.4,0.9,0.6L67.5,8.9c-0.2-0.1-0.3-0.2-0.5-0.3
			c0,0,0,0,0,0c0,0,0,0,0,0c0,0,0,0,0,0c0,0,0,0,0,0c0,0,0,0,0,0c0,0,0,0,0,0c-0.2-0.1-0.3-0.2-0.5-0.4c0,0,0,0,0,0c0,0,0,0,0,0
			c0,0,0,0,0,0c0,0,0,0,0,0c0,0,0,0,0,0c0,0,0,0,0,0C66.2,8,66,7.9,65.9,7.8L65.9,7.8z M62.4,5.7l-9.3,17.9c0.3,0.2,0.6,0.3,0.9,0.5
			L64.1,6.7c-0.1-0.1-0.3-0.2-0.4-0.3l0,0c0,0,0,0-0.1,0l0,0c0,0,0,0-0.1,0l0,0C63.2,6.2,62.8,5.9,62.4,5.7L62.4,5.7z M58.7,4
			l-7.5,18.7c0.3,0.1,0.6,0.3,1,0.4l8.4-18.3c0,0,0,0,0,0c0,0,0,0,0,0c0,0,0,0,0,0c0,0,0,0,0,0c0,0,0,0,0,0c0,0,0,0,0,0c0,0,0,0,0,0
			c0,0,0,0,0,0c0,0,0,0,0,0c0,0,0,0,0,0c0,0,0,0,0,0c0,0,0,0,0,0c0,0,0,0,0,0c0,0,0,0,0,0c0,0,0,0,0,0c0,0,0,0,0,0c0,0,0,0,0,0
			c0,0,0,0,0,0c0,0,0,0,0,0c0,0,0,0,0,0c0,0,0,0,0,0c0,0,0,0,0,0C59.7,4.5,59.2,4.2,58.7,4L58.7,4z M54.9,2.7L49.2,22
			c0.3,0.1,0.7,0.2,1,0.3l6.6-19c-0.4-0.2-0.9-0.3-1.3-0.4c0,0,0,0,0,0c0,0,0,0,0,0c0,0,0,0,0,0c0,0,0,0,0,0c0,0,0,0,0,0
			c0,0,0,0,0,0c0,0,0,0,0,0c0,0,0,0,0,0c0,0,0,0,0,0c0,0,0,0,0,0C55.2,2.8,55.1,2.8,54.9,2.7L54.9,2.7z M51,1.8l-3.8,19.8
			c0.3,0.1,0.7,0.1,1,0.2L53,2.2c0,0,0,0,0,0c0,0,0,0,0,0c0,0,0,0,0,0c0,0,0,0,0,0c0,0,0,0,0,0c0,0,0,0,0,0c0,0,0,0,0,0c0,0,0,0,0,0
			c0,0,0,0,0,0c0,0,0,0,0,0c0,0,0,0,0,0c0,0,0,0,0,0c0,0,0,0,0,0c0,0,0,0,0,0c0,0,0,0,0,0h0c-0.3-0.1-0.6-0.1-0.8-0.2c0,0,0,0,0,0
			c0,0,0,0-0.1,0c0,0,0,0,0,0c0,0,0,0,0,0c0,0,0,0,0,0c0,0,0,0,0,0c0,0,0,0,0,0c0,0,0,0,0,0c0,0,0,0,0,0c0,0,0,0,0,0c0,0,0,0,0,0
			c0,0,0,0,0,0c0,0,0,0,0,0c0,0,0,0,0,0C51.4,1.9,51.2,1.8,51,1.8L51,1.8z M47,1.2l-1.9,20.1c0.3,0,0.7,0.1,1,0.1L49,1.4
			c-0.2,0-0.3,0-0.5-0.1l0,0c0,0,0,0,0,0c0,0,0,0,0,0c0,0,0,0,0,0c0,0,0,0,0,0c0,0,0,0,0,0s0,0,0,0c0,0,0,0,0,0c0,0,0,0,0,0
			c0,0,0,0,0,0c0,0,0,0,0,0c0,0,0,0,0,0c0,0,0,0,0,0l0,0c-0.3,0-0.6-0.1-0.9-0.1h0c0,0,0,0,0,0c0,0,0,0,0,0c0,0,0,0,0,0c0,0,0,0,0,0
			c0,0,0,0,0,0c0,0,0,0,0,0c0,0,0,0,0,0C47.2,1.2,47.1,1.2,47,1.2L47,1.2z M43,1v20.1c0.4,0,0.7,0,1.1,0L45,1c-0.4,0-0.8,0-1.2,0
			l0,0c0,0,0,0,0,0c0,0,0,0,0,0c0,0,0,0,0,0c0,0,0,0,0,0c0,0,0,0,0,0c0,0,0,0,0,0c0,0,0,0,0,0c0,0,0,0,0,0c0,0,0,0,0,0c0,0,0,0,0,0
			c0,0,0,0,0,0c0,0,0,0,0,0c0,0,0,0,0,0c0,0,0,0,0,0c0,0,0,0,0,0c0,0,0,0,0,0c0,0,0,0,0,0c0,0,0,0,0,0c0,0,0,0,0,0c0,0,0,0,0,0
			c0,0,0,0,0,0c0,0,0,0,0,0c0,0,0,0,0,0c0,0,0,0,0,0c0,0,0,0,0,0c0,0,0,0,0,0c0,0,0,0,0,0c0,0,0,0,0,0c0,0,0,0,0,0c0,0,0,0,0,0
			s0,0,0,0c0,0,0,0,0,0c0,0,0,0,0,0c0,0,0,0,0,0c0,0,0,0,0,0c0,0,0,0,0,0c0,0,0,0,0,0c0,0,0,0,0,0c0,0,0,0,0,0c0,0,0,0,0,0
			C43.1,1,43.1,1,43,1C43.1,1,43.1,1,43,1C43.1,1,43.1,1,43,1C43.1,1,43,1,43,1C43,1,43,1,43,1C43,1,43,1,43,1L43,1z"/>
	</g>
	<g>
		<path class="st8" d="M43,3C65,3,83,21,83,43c0,22-17.9,40-40,40c-22,0-40-17.9-40-40C3,21,20.9,3,43,3 M43,1C19.8,1,1,19.8,1,43
			c0,23.2,18.8,42,42,42c23.2,0,42-18.8,42-42C85,19.8,66.2,1,43,1L43,1z"/>
	</g>
	<g class="st3">
		<path d="M79.3,43C79.3,63,63,79.3,43,79.3C23,79.3,6.7,63,6.7,43C6.7,23,23,6.7,43,6.7C63,6.7,79.3,23,79.3,43z"/>
	</g>
	<g>
		<path class="st9" d="M43,71.3c-15.6,0-28.3-12.7-28.3-28.3c0-15.6,12.7-28.3,28.3-28.3c15.6,0,28.3,12.7,28.3,28.3
			C71.3,58.6,58.6,71.3,43,71.3z"/>
		<path class="st6" d="M43,17.7c14,0,25.3,11.4,25.3,25.3c0,14-11.4,25.3-25.3,25.3C29,68.3,17.7,57,17.7,43
			C17.7,29.1,29,17.7,43,17.7 M43,11.7c-17.3,0-31.4,14-31.4,31.4c0,17.3,14,31.4,31.4,31.4c17.3,0,31.4-14,31.4-31.4
			C74.3,25.7,60.3,11.7,43,11.7L43,11.7z"/>
	</g>
</g>
</svg>
