<?xml version="1.0" encoding="utf-8"?>
<!-- Generator: Adobe Illustrator 25.2.1, SVG Export Plug-In . SVG Version: 6.00 Build 0)  -->
<svg version="1.1" id="Layer_1" xmlns="http://www.w3.org/2000/svg" xmlns:xlink="http://www.w3.org/1999/xlink" x="0px" y="0px"
	 width="172px" height="86px" viewBox="0 0 172 86" style="enable-background:new 0 0 172 86;" xml:space="preserve">
<style type="text/css">
	.st0{fill:#1A1A1A;}
	.st1{fill:#4783CC;}
	.st2{opacity:6.000000e-02;}
	.st3{fill:#FFFFFF;}
	.st4{fill:#212121;}
	.st5{fill:#E5E5E5;}
	.st6{fill:#BFBFBF;}
	.st7{fill:#D9D9D9;}
	.st8{fill:#DEDEDE;}
</style>
<g>
	<path class="st0" d="M171,43c0,23.2-18.8,42-42,42c-23.2,0-42-18.8-42-42c0-23.2,18.8-42,42-42C152.2,1,171,19.8,171,43z"/>
	<g>
		<path class="st1" d="M129,3C151,3,169,21,169,43c0,22-17.9,40-40,40c-22,0-40-17.9-40-40C89,21,107,3,129,3L129,3z M129,1
			c-23.2,0-42,18.8-42,42c0,23.2,18.8,42,42,42c23.2,0,42-18.8,42-42C171,19.8,152.2,1,129,1L129,1z"/>
	</g>
	<g class="st2">
		<path class="st3" d="M165.3,43c0,20-16.2,36.3-36.3,36.3C109,79.3,92.7,63,92.7,43C92.7,23,109,6.7,129,6.7
			C149,6.7,165.3,23,165.3,43z"/>
	</g>
	<g>
		<path class="st4" d="M129,71.3c-15.6,0-28.3-12.7-28.3-28.3c0-15.6,12.7-28.3,28.3-28.3c15.6,0,28.3,12.7,28.3,28.3
			C157.3,58.6,144.6,71.3,129,71.3z"/>
		<path class="st1" d="M129,17.7c14,0,25.3,11.4,25.3,25.3c0,14-11.4,25.3-25.3,25.3c-14,0-25.3-11.4-25.3-25.3
			C103.7,29.1,115,17.7,129,17.7L129,17.7z M129,11.7c-17.3,0-31.4,14-31.4,31.3c0,17.3,14,31.4,31.4,31.4c17.3,0,31.4-14,31.4-31.4
			C160.3,25.7,146.3,11.7,129,11.7L129,11.7z"/>
	</g>
	<g>
		<g id="_x3C_Radial_Repeat_x3E__41_">
			<path class="st1" d="M129,67.8c-0.2,0-0.4,0-0.6,0l-0.1,17.8h0.1c0,0,0,0,0,0c0,0,0,0,0,0c0,0,0,0,0,0h0c0,0,0,0,0,0h0
				c0,0,0,0,0,0c0,0,0,0,0,0h0c0,0,0,0,0,0c0,0,0,0,0,0h0c0,0,0,0,0,0c0,0,0,0,0,0c0,0,0,0,0,0c0,0,0,0,0,0c0,0,0,0,0,0h0
				c0,0,0,0,0,0c0,0,0,0,0,0c0,0,0,0,0,0c0,0,0,0,0,0c0,0,0,0,0,0h0c0,0,0,0,0.1,0h0.1c0,0,0,0,0,0c0,0,0,0,0,0h0c0,0,0,0,0,0
				c0,0,0,0,0,0h0c0,0,0,0,0,0s0,0,0,0c0,0,0,0,0,0c0,0,0,0,0,0c0,0,0,0,0,0h0c0,0,0,0,0,0c0,0,0,0,0,0h0c0,0,0,0,0,0c0,0,0,0,0,0h0
				c0,0,0,0,0,0c0,0,0,0,0,0h0c0,0,0,0,0,0c0,0,0,0,0,0h0.1l-0.1-17.8C129.4,67.8,129.2,67.8,129,67.8z"/>
		</g>
		<g id="_x3C_Radial_Repeat_x3E__40_">
			<path class="st1" d="M125.1,67.5c-0.2,0-0.4-0.1-0.6-0.1L121.5,85l0.1,0c0,0,0,0,0,0c0,0,0,0,0,0c0,0,0,0,0,0l0,0c0,0,0,0,0,0
				l0,0c0,0,0,0,0,0c0,0,0,0,0,0l0,0c0,0,0,0,0,0c0,0,0,0,0,0l0,0c0,0,0,0,0,0c0,0,0,0,0,0c0,0,0,0,0,0c0,0,0,0,0,0c0,0,0,0,0,0l0,0
				c0,0,0,0,0,0c0,0,0,0,0,0c0,0,0,0,0,0c0,0,0,0,0,0c0,0,0,0,0,0l0,0c0,0,0,0,0.1,0l0.1,0c0,0,0,0,0,0c0,0,0,0,0,0l0,0c0,0,0,0,0,0
				c0,0,0,0,0,0l0,0c0,0,0,0,0,0c0,0,0,0,0,0c0,0,0,0,0,0c0,0,0,0,0,0c0,0,0,0,0,0l0,0c0,0,0,0,0,0c0,0,0,0,0,0l0,0c0,0,0,0,0,0
				c0,0,0,0,0,0l0,0c0,0,0,0,0,0c0,0,0,0,0,0l0,0c0,0,0,0,0,0c0,0,0,0,0,0l0.1,0l2.7-17.6C125.5,67.6,125.3,67.5,125.1,67.5z"/>
		</g>
		<g id="_x3C_Radial_Repeat_x3E__39_">
			<path class="st1" d="M121.3,66.6c-0.2-0.1-0.4-0.1-0.6-0.2l-5.6,16.9l0.1,0c0,0,0,0,0,0c0,0,0,0,0,0c0,0,0,0,0,0l0,0c0,0,0,0,0,0
				l0,0c0,0,0,0,0,0c0,0,0,0,0,0l0,0c0,0,0,0,0,0c0,0,0,0,0,0l0,0c0,0,0,0,0,0c0,0,0,0,0,0c0,0,0,0,0,0c0,0,0,0,0,0c0,0,0,0,0,0l0,0
				c0,0,0,0,0,0s0,0,0,0c0,0,0,0,0,0c0,0,0,0,0,0c0,0,0,0,0,0l0,0c0,0,0,0,0.1,0l0.1,0c0,0,0,0,0,0c0,0,0,0,0,0l0,0c0,0,0,0,0,0
				c0,0,0,0,0,0l0,0c0,0,0,0,0,0c0,0,0,0,0,0c0,0,0,0,0,0c0,0,0,0,0,0c0,0,0,0,0,0l0,0c0,0,0,0,0,0c0,0,0,0,0,0l0,0c0,0,0,0,0,0
				c0,0,0,0,0,0l0,0c0,0,0,0,0,0c0,0,0,0,0,0l0,0c0,0,0,0,0,0c0,0,0,0,0,0l0.1,0l5.4-17C121.7,66.7,121.5,66.7,121.3,66.6z"/>
		</g>
		<g id="_x3C_Radial_Repeat_x3E__38_">
			<path class="st1" d="M117.7,65.1c-0.2-0.1-0.4-0.2-0.6-0.3l-8.2,15.8l0.1,0c0,0,0,0,0,0c0,0,0,0,0,0c0,0,0,0,0,0l0,0c0,0,0,0,0,0
				l0,0c0,0,0,0,0,0c0,0,0,0,0,0l0,0c0,0,0,0,0,0c0,0,0,0,0,0l0,0c0,0,0,0,0,0c0,0,0,0,0,0c0,0,0,0,0,0c0,0,0,0,0,0c0,0,0,0,0,0l0,0
				c0,0,0,0,0,0s0,0,0,0c0,0,0,0,0,0c0,0,0,0,0,0s0,0,0,0l0,0c0,0,0,0,0.1,0l0.1,0c0,0,0,0,0,0c0,0,0,0,0,0l0,0c0,0,0,0,0,0
				c0,0,0,0,0,0l0,0c0,0,0,0,0,0s0,0,0,0c0,0,0,0,0,0c0,0,0,0,0,0c0,0,0,0,0,0l0,0c0,0,0,0,0,0c0,0,0,0,0,0l0,0c0,0,0,0,0,0
				c0,0,0,0,0,0l0,0c0,0,0,0,0,0c0,0,0,0,0,0l0,0c0,0,0,0,0,0c0,0,0,0,0,0l0.1,0l8-16C118.1,65.3,117.9,65.2,117.7,65.1z"/>
		</g>
		<g id="_x3C_Radial_Repeat_x3E__37_">
			<path class="st1" d="M114.4,63c-0.2-0.1-0.3-0.3-0.5-0.4L103.3,77l0.1,0c0,0,0,0,0,0c0,0,0,0,0,0c0,0,0,0,0,0l0,0c0,0,0,0,0,0
				l0,0c0,0,0,0,0,0c0,0,0,0,0,0l0,0c0,0,0,0,0,0c0,0,0,0,0,0l0,0c0,0,0,0,0,0c0,0,0,0,0,0c0,0,0,0,0,0c0,0,0,0,0,0c0,0,0,0,0,0l0,0
				c0,0,0,0,0,0c0,0,0,0,0,0c0,0,0,0,0,0c0,0,0,0,0,0c0,0,0,0,0,0l0,0c0,0,0,0,0,0.1l0.1,0c0,0,0,0,0,0c0,0,0,0,0,0l0,0c0,0,0,0,0,0
				c0,0,0,0,0,0l0,0c0,0,0,0,0,0c0,0,0,0,0,0c0,0,0,0,0,0c0,0,0,0,0,0c0,0,0,0,0,0l0,0c0,0,0,0,0,0c0,0,0,0,0,0l0,0c0,0,0,0,0,0
				c0,0,0,0,0,0l0,0c0,0,0,0,0,0c0,0,0,0,0,0l0,0c0,0,0,0,0,0c0,0,0,0,0,0l0.1,0l10.4-14.5C114.7,63.3,114.5,63.2,114.4,63z"/>
		</g>
		<g id="_x3C_Radial_Repeat_x3E__36_">
			<path class="st1" d="M111.4,60.5c-0.2-0.2-0.3-0.3-0.4-0.5L98.2,72.6l0,0c0,0,0,0,0,0c0,0,0,0,0,0c0,0,0,0,0,0l0,0c0,0,0,0,0,0
				l0,0c0,0,0,0,0,0c0,0,0,0,0,0l0,0c0,0,0,0,0,0c0,0,0,0,0,0l0,0c0,0,0,0,0,0c0,0,0,0,0,0c0,0,0,0,0,0c0,0,0,0,0,0c0,0,0,0,0,0l0,0
				c0,0,0,0,0,0c0,0,0,0,0,0c0,0,0,0,0,0c0,0,0,0,0,0s0,0,0,0l0,0c0,0,0,0,0,0.1l0,0c0,0,0,0,0,0c0,0,0,0,0,0l0,0c0,0,0,0,0,0
				c0,0,0,0,0,0l0,0c0,0,0,0,0,0s0,0,0,0c0,0,0,0,0,0c0,0,0,0,0,0c0,0,0,0,0,0l0,0c0,0,0,0,0,0c0,0,0,0,0,0l0,0c0,0,0,0,0,0
				c0,0,0,0,0,0l0,0c0,0,0,0,0,0c0,0,0,0,0,0l0,0c0,0,0,0,0,0c0,0,0,0,0,0l0,0L111.9,61C111.7,60.8,111.5,60.7,111.4,60.5z"/>
		</g>
		<g id="_x3C_Radial_Repeat_x3E__35_">
			<path class="st1" d="M108.9,57.5c-0.1-0.2-0.2-0.4-0.4-0.5L94,67.4l0,0.1c0,0,0,0,0,0c0,0,0,0,0,0c0,0,0,0,0,0l0,0c0,0,0,0,0,0
				l0,0c0,0,0,0,0,0c0,0,0,0,0,0l0,0c0,0,0,0,0,0c0,0,0,0,0,0l0,0c0,0,0,0,0,0c0,0,0,0,0,0c0,0,0,0,0,0c0,0,0,0,0,0c0,0,0,0,0,0l0,0
				c0,0,0,0,0,0c0,0,0,0,0,0c0,0,0,0,0,0c0,0,0,0,0,0c0,0,0,0,0,0l0,0c0,0,0,0,0,0.1l0,0.1c0,0,0,0,0,0c0,0,0,0,0,0l0,0c0,0,0,0,0,0
				c0,0,0,0,0,0l0,0c0,0,0,0,0,0c0,0,0,0,0,0c0,0,0,0,0,0c0,0,0,0,0,0c0,0,0,0,0,0l0,0c0,0,0,0,0,0c0,0,0,0,0,0l0,0c0,0,0,0,0,0
				c0,0,0,0,0,0l0,0c0,0,0,0,0,0c0,0,0,0,0,0l0,0c0,0,0,0,0,0c0,0,0,0,0,0l0,0.1l14.3-10.6C109.1,57.9,109,57.7,108.9,57.5z"/>
		</g>
		<g id="_x3C_Radial_Repeat_x3E__34_">
			<path class="st1" d="M106.8,54.2c-0.1-0.2-0.2-0.4-0.3-0.6l-15.9,8l0,0.1c0,0,0,0,0,0c0,0,0,0,0,0c0,0,0,0,0,0l0,0c0,0,0,0,0,0
				l0,0c0,0,0,0,0,0c0,0,0,0,0,0l0,0c0,0,0,0,0,0c0,0,0,0,0,0l0,0c0,0,0,0,0,0c0,0,0,0,0,0c0,0,0,0,0,0c0,0,0,0,0,0c0,0,0,0,0,0l0,0
				c0,0,0,0,0,0c0,0,0,0,0,0c0,0,0,0,0,0c0,0,0,0,0,0s0,0,0,0l0,0c0,0,0,0,0,0.1l0,0.1c0,0,0,0,0,0c0,0,0,0,0,0l0,0c0,0,0,0,0,0
				c0,0,0,0,0,0l0,0c0,0,0,0,0,0s0,0,0,0c0,0,0,0,0,0c0,0,0,0,0,0c0,0,0,0,0,0l0,0c0,0,0,0,0,0c0,0,0,0,0,0l0,0c0,0,0,0,0,0
				c0,0,0,0,0,0l0,0c0,0,0,0,0,0c0,0,0,0,0,0l0,0c0,0,0,0,0,0c0,0,0,0,0,0l0,0.1l15.8-8.2C107,54.6,106.9,54.4,106.8,54.2z"/>
		</g>
		<g id="_x3C_Radial_Repeat_x3E__33_">
			<path class="st1" d="M105.3,50.6c-0.1-0.2-0.1-0.4-0.2-0.6l-17,5.4l0,0.1c0,0,0,0,0,0c0,0,0,0,0,0c0,0,0,0,0,0l0,0c0,0,0,0,0,0
				l0,0c0,0,0,0,0,0c0,0,0,0,0,0l0,0c0,0,0,0,0,0c0,0,0,0,0,0l0,0c0,0,0,0,0,0c0,0,0,0,0,0c0,0,0,0,0,0c0,0,0,0,0,0c0,0,0,0,0,0l0,0
				c0,0,0,0,0,0s0,0,0,0c0,0,0,0,0,0c0,0,0,0,0,0s0,0,0,0l0,0c0,0,0,0,0,0.1l0,0.1c0,0,0,0,0,0c0,0,0,0,0,0l0,0c0,0,0,0,0,0
				c0,0,0,0,0,0l0,0c0,0,0,0,0,0s0,0,0,0c0,0,0,0,0,0c0,0,0,0,0,0c0,0,0,0,0,0l0,0c0,0,0,0,0,0c0,0,0,0,0,0l0,0c0,0,0,0,0,0
				c0,0,0,0,0,0l0,0c0,0,0,0,0,0c0,0,0,0,0,0l0,0c0,0,0,0,0,0s0,0,0,0l0,0.1l16.9-5.6C105.5,51,105.4,50.8,105.3,50.6z"/>
		</g>
		<g id="_x3C_Radial_Repeat_x3E__32_">
			<path class="st1" d="M104.4,46.8c0-0.2-0.1-0.4-0.1-0.6l-17.6,2.7l0,0.1c0,0,0,0,0,0c0,0,0,0,0,0c0,0,0,0,0,0l0,0c0,0,0,0,0,0
				l0,0c0,0,0,0,0,0c0,0,0,0,0,0l0,0c0,0,0,0,0,0c0,0,0,0,0,0l0,0c0,0,0,0,0,0c0,0,0,0,0,0c0,0,0,0,0,0c0,0,0,0,0,0c0,0,0,0,0,0l0,0
				c0,0,0,0,0,0s0,0,0,0c0,0,0,0,0,0c0,0,0,0,0,0s0,0,0,0l0,0c0,0,0,0,0,0.1l0,0.1c0,0,0,0,0,0c0,0,0,0,0,0l0,0c0,0,0,0,0,0
				c0,0,0,0,0,0l0,0c0,0,0,0,0,0c0,0,0,0,0,0c0,0,0,0,0,0c0,0,0,0,0,0c0,0,0,0,0,0l0,0c0,0,0,0,0,0c0,0,0,0,0,0l0,0c0,0,0,0,0,0
				c0,0,0,0,0,0l0,0c0,0,0,0,0,0c0,0,0,0,0,0l0,0c0,0,0,0,0,0c0,0,0,0,0,0l0,0.1l17.6-2.9C104.5,47.2,104.4,47,104.4,46.8z"/>
		</g>
		<g id="_x3C_Radial_Repeat_x3E__31_">
			<path class="st1" d="M104.1,42.9c0-0.2,0-0.4,0-0.6l-17.8-0.1v0.1c0,0,0,0,0,0c0,0,0,0,0,0c0,0,0,0,0,0v0c0,0,0,0,0,0v0
				c0,0,0,0,0,0c0,0,0,0,0,0v0c0,0,0,0,0,0c0,0,0,0,0,0v0c0,0,0,0,0,0c0,0,0,0,0,0c0,0,0,0,0,0c0,0,0,0,0,0c0,0,0,0,0,0v0
				c0,0,0,0,0,0s0,0,0,0c0,0,0,0,0,0c0,0,0,0,0,0s0,0,0,0v0c0,0,0,0,0,0.1V43c0,0,0,0,0,0c0,0,0,0,0,0v0c0,0,0,0,0,0c0,0,0,0,0,0v0
				c0,0,0,0,0,0s0,0,0,0c0,0,0,0,0,0c0,0,0,0,0,0c0,0,0,0,0,0v0c0,0,0,0,0,0c0,0,0,0,0,0v0c0,0,0,0,0,0c0,0,0,0,0,0v0c0,0,0,0,0,0
				c0,0,0,0,0,0v0c0,0,0,0,0,0s0,0,0,0v0.1l17.8-0.1C104.1,43.3,104.1,43.1,104.1,42.9z"/>
		</g>
		<g id="_x3C_Radial_Repeat_x3E__30_">
			<path class="st1" d="M104.4,39c0-0.2,0.1-0.4,0.1-0.6l-17.6-2.9l0,0.1c0,0,0,0,0,0c0,0,0,0,0,0c0,0,0,0,0,0l0,0c0,0,0,0,0,0l0,0
				c0,0,0,0,0,0c0,0,0,0,0,0l0,0c0,0,0,0,0,0c0,0,0,0,0,0l0,0c0,0,0,0,0,0c0,0,0,0,0,0c0,0,0,0,0,0c0,0,0,0,0,0c0,0,0,0,0,0l0,0
				c0,0,0,0,0,0s0,0,0,0c0,0,0,0,0,0c0,0,0,0,0,0c0,0,0,0,0,0l0,0c0,0,0,0,0,0.1l0,0.1c0,0,0,0,0,0c0,0,0,0,0,0l0,0c0,0,0,0,0,0
				c0,0,0,0,0,0l0,0c0,0,0,0,0,0s0,0,0,0c0,0,0,0,0,0c0,0,0,0,0,0c0,0,0,0,0,0l0,0c0,0,0,0,0,0c0,0,0,0,0,0l0,0c0,0,0,0,0,0
				c0,0,0,0,0,0l0,0c0,0,0,0,0,0c0,0,0,0,0,0l0,0c0,0,0,0,0,0s0,0,0,0l0,0.1l17.6,2.7C104.4,39.5,104.4,39.2,104.4,39z"/>
		</g>
		<g id="_x3C_Radial_Repeat_x3E__29_">
			<path class="st1" d="M105.3,35.2c0.1-0.2,0.1-0.4,0.2-0.6L88.6,29l0,0.1c0,0,0,0,0,0c0,0,0,0,0,0c0,0,0,0,0,0l0,0c0,0,0,0,0,0
				l0,0c0,0,0,0,0,0c0,0,0,0,0,0l0,0c0,0,0,0,0,0c0,0,0,0,0,0l0,0c0,0,0,0,0,0c0,0,0,0,0,0c0,0,0,0,0,0c0,0,0,0,0,0c0,0,0,0,0,0l0,0
				c0,0,0,0,0,0c0,0,0,0,0,0c0,0,0,0,0,0c0,0,0,0,0,0c0,0,0,0,0,0l0,0c0,0,0,0,0,0.1l0,0.1c0,0,0,0,0,0c0,0,0,0,0,0l0,0c0,0,0,0,0,0
				c0,0,0,0,0,0l0,0c0,0,0,0,0,0c0,0,0,0,0,0c0,0,0,0,0,0c0,0,0,0,0,0c0,0,0,0,0,0l0,0c0,0,0,0,0,0c0,0,0,0,0,0l0,0c0,0,0,0,0,0
				c0,0,0,0,0,0l0,0c0,0,0,0,0,0c0,0,0,0,0,0l0,0c0,0,0,0,0,0c0,0,0,0,0,0l0,0.1l17,5.4C105.2,35.6,105.3,35.4,105.3,35.2z"/>
		</g>
		<g id="_x3C_Radial_Repeat_x3E__28_">
			<path class="st1" d="M106.8,31.6c0.1-0.2,0.2-0.4,0.3-0.6l-15.8-8.2l0,0.1c0,0,0,0,0,0c0,0,0,0,0,0c0,0,0,0,0,0l0,0c0,0,0,0,0,0
				l0,0c0,0,0,0,0,0c0,0,0,0,0,0l0,0c0,0,0,0,0,0c0,0,0,0,0,0l0,0c0,0,0,0,0,0c0,0,0,0,0,0c0,0,0,0,0,0c0,0,0,0,0,0c0,0,0,0,0,0l0,0
				c0,0,0,0,0,0s0,0,0,0c0,0,0,0,0,0c0,0,0,0,0,0c0,0,0,0,0,0l0,0c0,0,0,0,0,0.1l0,0.1c0,0,0,0,0,0c0,0,0,0,0,0l0,0c0,0,0,0,0,0
				c0,0,0,0,0,0l0,0c0,0,0,0,0,0c0,0,0,0,0,0c0,0,0,0,0,0c0,0,0,0,0,0c0,0,0,0,0,0l0,0c0,0,0,0,0,0c0,0,0,0,0,0l0,0c0,0,0,0,0,0
				c0,0,0,0,0,0l0,0c0,0,0,0,0,0c0,0,0,0,0,0l0,0c0,0,0,0,0,0s0,0,0,0l0,0.1l16,8C106.6,32,106.7,31.8,106.8,31.6z"/>
		</g>
		<g id="_x3C_Radial_Repeat_x3E__27_">
			<path class="st1" d="M108.9,28.3c0.1-0.2,0.3-0.3,0.4-0.5L94.9,17.2l0,0.1c0,0,0,0,0,0c0,0,0,0,0,0c0,0,0,0,0,0l0,0c0,0,0,0,0,0
				l0,0c0,0,0,0,0,0c0,0,0,0,0,0l0,0c0,0,0,0,0,0c0,0,0,0,0,0l0,0c0,0,0,0,0,0c0,0,0,0,0,0c0,0,0,0,0,0c0,0,0,0,0,0c0,0,0,0,0,0l0,0
				c0,0,0,0,0,0c0,0,0,0,0,0c0,0,0,0,0,0c0,0,0,0,0,0c0,0,0,0,0,0l0,0c0,0,0,0-0.1,0l0,0.1c0,0,0,0,0,0c0,0,0,0,0,0l0,0c0,0,0,0,0,0
				c0,0,0,0,0,0l0,0c0,0,0,0,0,0c0,0,0,0,0,0c0,0,0,0,0,0c0,0,0,0,0,0c0,0,0,0,0,0l0,0c0,0,0,0,0,0c0,0,0,0,0,0l0,0c0,0,0,0,0,0
				c0,0,0,0,0,0l0,0c0,0,0,0,0,0c0,0,0,0,0,0l0,0c0,0,0,0,0,0c0,0,0,0,0,0l0,0.1l14.5,10.4C108.6,28.6,108.7,28.5,108.9,28.3z"/>
		</g>
		<g id="_x3C_Radial_Repeat_x3E__26_">
			<path class="st1" d="M111.4,25.3c0.2-0.2,0.3-0.3,0.5-0.4L99.4,12.2l0,0c0,0,0,0,0,0c0,0,0,0,0,0c0,0,0,0,0,0l0,0c0,0,0,0,0,0
				l0,0c0,0,0,0,0,0c0,0,0,0,0,0l0,0c0,0,0,0,0,0c0,0,0,0,0,0l0,0c0,0,0,0,0,0c0,0,0,0,0,0c0,0,0,0,0,0c0,0,0,0,0,0c0,0,0,0,0,0l0,0
				c0,0,0,0,0,0s0,0,0,0c0,0,0,0,0,0c0,0,0,0,0,0s0,0,0,0l0,0c0,0,0,0-0.1,0l0,0c0,0,0,0,0,0c0,0,0,0,0,0l0,0c0,0,0,0,0,0
				c0,0,0,0,0,0l0,0c0,0,0,0,0,0s0,0,0,0c0,0,0,0,0,0c0,0,0,0,0,0c0,0,0,0,0,0l0,0c0,0,0,0,0,0c0,0,0,0,0,0l0,0c0,0,0,0,0,0
				c0,0,0,0,0,0l0,0c0,0,0,0,0,0c0,0,0,0,0,0l0,0c0,0,0,0,0,0c0,0,0,0,0,0l0,0l12.7,12.5C111.1,25.6,111.2,25.5,111.4,25.3z"/>
		</g>
		<g id="_x3C_Radial_Repeat_x3E__25_">
			<path class="st1" d="M114.4,22.8c0.2-0.1,0.4-0.2,0.5-0.4L104.5,7.9l-0.1,0c0,0,0,0,0,0c0,0,0,0,0,0c0,0,0,0,0,0l0,0c0,0,0,0,0,0
				l0,0c0,0,0,0,0,0c0,0,0,0,0,0l0,0c0,0,0,0,0,0c0,0,0,0,0,0l0,0c0,0,0,0,0,0c0,0,0,0,0,0c0,0,0,0,0,0c0,0,0,0,0,0c0,0,0,0,0,0l0,0
				c0,0,0,0,0,0s0,0,0,0c0,0,0,0,0,0c0,0,0,0,0,0c0,0,0,0,0,0l0,0c0,0,0,0-0.1,0l-0.1,0c0,0,0,0,0,0c0,0,0,0,0,0l0,0c0,0,0,0,0,0
				c0,0,0,0,0,0l0,0c0,0,0,0,0,0s0,0,0,0c0,0,0,0,0,0c0,0,0,0,0,0c0,0,0,0,0,0l0,0c0,0,0,0,0,0c0,0,0,0,0,0l0,0c0,0,0,0,0,0
				c0,0,0,0,0,0l0,0c0,0,0,0,0,0c0,0,0,0,0,0l0,0c0,0,0,0,0,0c0,0,0,0,0,0l-0.1,0l10.6,14.3C114,23,114.2,22.9,114.4,22.8z"/>
		</g>
		<g id="_x3C_Radial_Repeat_x3E__24_">
			<path class="st1" d="M117.7,20.7c0.2-0.1,0.4-0.2,0.6-0.3l-8-15.9l-0.1,0c0,0,0,0,0,0c0,0,0,0,0,0c0,0,0,0,0,0l0,0c0,0,0,0,0,0
				l0,0c0,0,0,0,0,0c0,0,0,0,0,0l0,0c0,0,0,0,0,0c0,0,0,0,0,0l0,0c0,0,0,0,0,0c0,0,0,0,0,0c0,0,0,0,0,0c0,0,0,0,0,0c0,0,0,0,0,0l0,0
				c0,0,0,0,0,0c0,0,0,0,0,0c0,0,0,0,0,0c0,0,0,0,0,0c0,0,0,0,0,0l0,0c0,0,0,0-0.1,0l-0.1,0c0,0,0,0,0,0c0,0,0,0,0,0l0,0
				c0,0,0,0,0,0c0,0,0,0,0,0l0,0c0,0,0,0,0,0c0,0,0,0,0,0c0,0,0,0,0,0c0,0,0,0,0,0c0,0,0,0,0,0l0,0c0,0,0,0,0,0c0,0,0,0,0,0l0,0
				c0,0,0,0,0,0c0,0,0,0,0,0l0,0c0,0,0,0,0,0c0,0,0,0,0,0l0,0c0,0,0,0,0,0s0,0,0,0l-0.1,0l8.2,15.8
				C117.3,20.9,117.5,20.8,117.7,20.7z"/>
		</g>
		<g id="_x3C_Radial_Repeat_x3E__23_">
			<path class="st1" d="M121.3,19.2c0.2-0.1,0.4-0.1,0.6-0.2l-5.4-17l-0.1,0c0,0,0,0,0,0c0,0,0,0,0,0c0,0,0,0,0,0l0,0c0,0,0,0,0,0
				l0,0c0,0,0,0,0,0c0,0,0,0,0,0l0,0c0,0,0,0,0,0c0,0,0,0,0,0l0,0c0,0,0,0,0,0c0,0,0,0,0,0c0,0,0,0,0,0c0,0,0,0,0,0c0,0,0,0,0,0l0,0
				c0,0,0,0,0,0c0,0,0,0,0,0c0,0,0,0,0,0c0,0,0,0,0,0c0,0,0,0,0,0l0,0c0,0,0,0-0.1,0l-0.1,0c0,0,0,0,0,0c0,0,0,0,0,0l0,0
				c0,0,0,0,0,0c0,0,0,0,0,0l0,0c0,0,0,0,0,0c0,0,0,0,0,0c0,0,0,0,0,0c0,0,0,0,0,0c0,0,0,0,0,0l0,0c0,0,0,0,0,0c0,0,0,0,0,0l0,0
				c0,0,0,0,0,0c0,0,0,0,0,0l0,0c0,0,0,0,0,0c0,0,0,0,0,0l0,0c0,0,0,0,0,0c0,0,0,0,0,0l-0.1,0l5.6,16.9
				C120.9,19.4,121.1,19.3,121.3,19.2z"/>
		</g>
		<g id="_x3C_Radial_Repeat_x3E__22_">
			<path class="st1" d="M125.1,18.3c0.2,0,0.4-0.1,0.6-0.1l-2.7-17.6l-0.1,0c0,0,0,0,0,0c0,0,0,0,0,0c0,0,0,0,0,0l0,0c0,0,0,0,0,0
				l0,0c0,0,0,0,0,0c0,0,0,0,0,0l0,0c0,0,0,0,0,0c0,0,0,0,0,0l0,0c0,0,0,0,0,0c0,0,0,0,0,0c0,0,0,0,0,0c0,0,0,0,0,0c0,0,0,0,0,0l0,0
				c0,0,0,0,0,0c0,0,0,0,0,0c0,0,0,0,0,0c0,0,0,0,0,0c0,0,0,0,0,0l0,0c0,0,0,0-0.1,0l-0.1,0c0,0,0,0,0,0c0,0,0,0,0,0l0,0
				c0,0,0,0,0,0c0,0,0,0,0,0l0,0c0,0,0,0,0,0c0,0,0,0,0,0c0,0,0,0,0,0c0,0,0,0,0,0c0,0,0,0,0,0l0,0c0,0,0,0,0,0c0,0,0,0,0,0l0,0
				c0,0,0,0,0,0c0,0,0,0,0,0l0,0c0,0,0,0,0,0c0,0,0,0,0,0l0,0c0,0,0,0,0,0c0,0,0,0,0,0l-0.1,0l2.9,17.6
				C124.7,18.4,124.9,18.4,125.1,18.3z"/>
		</g>
		<g id="_x3C_Radial_Repeat_x3E__21_">
			<path class="st1" d="M129,18c0.2,0,0.4,0,0.6,0l0.1-17.8h-0.1c0,0,0,0,0,0c0,0,0,0,0,0c0,0,0,0,0,0h0c0,0,0,0,0,0h0c0,0,0,0,0,0
				c0,0,0,0,0,0h0c0,0,0,0,0,0c0,0,0,0,0,0h0c0,0,0,0,0,0c0,0,0,0,0,0c0,0,0,0,0,0c0,0,0,0,0,0c0,0,0,0,0,0h0c0,0,0,0,0,0s0,0,0,0
				c0,0,0,0,0,0c0,0,0,0,0,0c0,0,0,0,0,0h0c0,0,0,0-0.1,0h-0.1c0,0,0,0,0,0c0,0,0,0,0,0h0c0,0,0,0,0,0c0,0,0,0,0,0h0c0,0,0,0,0,0
				s0,0,0,0c0,0,0,0,0,0c0,0,0,0,0,0c0,0,0,0,0,0h0c0,0,0,0,0,0c0,0,0,0,0,0h0c0,0,0,0,0,0c0,0,0,0,0,0h0c0,0,0,0,0,0c0,0,0,0,0,0h0
				c0,0,0,0,0,0s0,0,0,0h-0.1l0.1,17.8C128.6,18,128.8,18,129,18z"/>
		</g>
		<g id="_x3C_Radial_Repeat_x3E__20_">
			<path class="st1" d="M132.9,18.3c0.2,0,0.4,0.1,0.6,0.1l2.9-17.6l-0.1,0c0,0,0,0,0,0c0,0,0,0,0,0c0,0,0,0,0,0l0,0c0,0,0,0,0,0
				l0,0c0,0,0,0,0,0c0,0,0,0,0,0l0,0c0,0,0,0,0,0c0,0,0,0,0,0l0,0c0,0,0,0,0,0c0,0,0,0,0,0c0,0,0,0,0,0c0,0,0,0,0,0c0,0,0,0,0,0l0,0
				c0,0,0,0,0,0s0,0,0,0c0,0,0,0,0,0c0,0,0,0,0,0c0,0,0,0,0,0l0,0c0,0,0,0-0.1,0l-0.1,0c0,0,0,0,0,0c0,0,0,0,0,0l0,0c0,0,0,0,0,0
				c0,0,0,0,0,0l0,0c0,0,0,0,0,0c0,0,0,0,0,0c0,0,0,0,0,0c0,0,0,0,0,0c0,0,0,0,0,0l0,0c0,0,0,0,0,0c0,0,0,0,0,0l0,0c0,0,0,0,0,0
				c0,0,0,0,0,0l0,0c0,0,0,0,0,0c0,0,0,0,0,0l0,0c0,0,0,0,0,0s0,0,0,0l-0.1,0l-2.7,17.6C132.5,18.3,132.7,18.3,132.9,18.3z"/>
		</g>
		<g id="_x3C_Radial_Repeat_x3E__19_">
			<path class="st1" d="M136.7,19.3c0.2,0.1,0.4,0.1,0.6,0.2l5.6-16.9l-0.1,0c0,0,0,0,0,0c0,0,0,0,0,0c0,0,0,0,0,0l0,0c0,0,0,0,0,0
				l0,0c0,0,0,0,0,0c0,0,0,0,0,0l0,0c0,0,0,0,0,0c0,0,0,0,0,0l0,0c0,0,0,0,0,0c0,0,0,0,0,0c0,0,0,0,0,0c0,0,0,0,0,0c0,0,0,0,0,0l0,0
				c0,0,0,0,0,0c0,0,0,0,0,0c0,0,0,0,0,0c0,0,0,0,0,0c0,0,0,0,0,0l0,0c0,0,0,0-0.1,0l-0.1,0c0,0,0,0,0,0c0,0,0,0,0,0l0,0
				c0,0,0,0,0,0c0,0,0,0,0,0l0,0c0,0,0,0,0,0c0,0,0,0,0,0c0,0,0,0,0,0c0,0,0,0,0,0c0,0,0,0,0,0l0,0c0,0,0,0,0,0c0,0,0,0,0,0l0,0
				c0,0,0,0,0,0c0,0,0,0,0,0l0,0c0,0,0,0,0,0c0,0,0,0,0,0l0,0c0,0,0,0,0,0c0,0,0,0,0,0l-0.1,0l-5.4,17
				C136.3,19.1,136.5,19.2,136.7,19.3z"/>
		</g>
		<g id="_x3C_Radial_Repeat_x3E__18_">
			<path class="st1" d="M140.3,20.7c0.2,0.1,0.4,0.2,0.6,0.3l8.2-15.8l-0.1,0c0,0,0,0,0,0c0,0,0,0,0,0c0,0,0,0,0,0l0,0c0,0,0,0,0,0
				l0,0c0,0,0,0,0,0c0,0,0,0,0,0l0,0c0,0,0,0,0,0c0,0,0,0,0,0l0,0c0,0,0,0,0,0c0,0,0,0,0,0c0,0,0,0,0,0c0,0,0,0,0,0c0,0,0,0,0,0l0,0
				c0,0,0,0,0,0s0,0,0,0c0,0,0,0,0,0c0,0,0,0,0,0c0,0,0,0,0,0l0,0c0,0,0,0-0.1,0l-0.1,0c0,0,0,0,0,0c0,0,0,0,0,0l0,0c0,0,0,0,0,0
				c0,0,0,0,0,0l0,0c0,0,0,0,0,0c0,0,0,0,0,0c0,0,0,0,0,0c0,0,0,0,0,0c0,0,0,0,0,0l0,0c0,0,0,0,0,0c0,0,0,0,0,0l0,0c0,0,0,0,0,0
				c0,0,0,0,0,0l0,0c0,0,0,0,0,0c0,0,0,0,0,0l0,0c0,0,0,0,0,0c0,0,0,0,0,0l-0.1,0l-8,16C139.9,20.6,140.1,20.6,140.3,20.7z"/>
		</g>
		<g id="_x3C_Radial_Repeat_x3E__17_">
			<path class="st1" d="M143.6,22.8c0.2,0.1,0.3,0.3,0.5,0.4l10.6-14.3l-0.1,0c0,0,0,0,0,0c0,0,0,0,0,0c0,0,0,0,0,0l0,0c0,0,0,0,0,0
				l0,0c0,0,0,0,0,0c0,0,0,0,0,0l0,0c0,0,0,0,0,0c0,0,0,0,0,0l0,0c0,0,0,0,0,0c0,0,0,0,0,0c0,0,0,0,0,0c0,0,0,0,0,0c0,0,0,0,0,0l0,0
				c0,0,0,0,0,0s0,0,0,0c0,0,0,0,0,0c0,0,0,0,0,0s0,0,0,0l0,0c0,0,0,0,0-0.1l-0.1,0c0,0,0,0,0,0c0,0,0,0,0,0l0,0c0,0,0,0,0,0
				c0,0,0,0,0,0l0,0c0,0,0,0,0,0s0,0,0,0c0,0,0,0,0,0c0,0,0,0,0,0c0,0,0,0,0,0l0,0c0,0,0,0,0,0c0,0,0,0,0,0l0,0c0,0,0,0,0,0
				c0,0,0,0,0,0l0,0c0,0,0,0,0,0c0,0,0,0,0,0l0,0c0,0,0,0,0,0s0,0,0,0l-0.1,0l-10.4,14.5C143.3,22.5,143.4,22.7,143.6,22.8z"/>
		</g>
		<g id="_x3C_Radial_Repeat_x3E__16_">
			<path class="st1" d="M146.6,25.3c0.2,0.2,0.3,0.3,0.4,0.5l12.7-12.5l0,0c0,0,0,0,0,0c0,0,0,0,0,0c0,0,0,0,0,0l0,0c0,0,0,0,0,0
				l0,0c0,0,0,0,0,0c0,0,0,0,0,0l0,0c0,0,0,0,0,0c0,0,0,0,0,0l0,0c0,0,0,0,0,0c0,0,0,0,0,0c0,0,0,0,0,0c0,0,0,0,0,0c0,0,0,0,0,0l0,0
				c0,0,0,0,0,0c0,0,0,0,0,0c0,0,0,0,0,0c0,0,0,0,0,0c0,0,0,0,0,0l0,0c0,0,0,0,0-0.1l0,0c0,0,0,0,0,0c0,0,0,0,0,0l0,0c0,0,0,0,0,0
				c0,0,0,0,0,0l0,0c0,0,0,0,0,0c0,0,0,0,0,0c0,0,0,0,0,0c0,0,0,0,0,0c0,0,0,0,0,0l0,0c0,0,0,0,0,0c0,0,0,0,0,0l0,0c0,0,0,0,0,0
				c0,0,0,0,0,0l0,0c0,0,0,0,0,0c0,0,0,0,0,0l0,0c0,0,0,0,0,0c0,0,0,0,0,0l0,0l-12.5,12.7C146.3,25,146.4,25.2,146.6,25.3z"/>
		</g>
		<g id="_x3C_Radial_Repeat_x3E__15_">
			<path class="st1" d="M149.1,28.3c0.1,0.2,0.2,0.4,0.4,0.5L164,18.5l0-0.1c0,0,0,0,0,0c0,0,0,0,0,0c0,0,0,0,0,0l0,0c0,0,0,0,0,0
				l0,0c0,0,0,0,0,0c0,0,0,0,0,0l0,0c0,0,0,0,0,0c0,0,0,0,0,0l0,0c0,0,0,0,0,0c0,0,0,0,0,0c0,0,0,0,0,0c0,0,0,0,0,0c0,0,0,0,0,0l0,0
				c0,0,0,0,0,0s0,0,0,0c0,0,0,0,0,0c0,0,0,0,0,0c0,0,0,0,0,0l0,0c0,0,0,0,0-0.1l0-0.1c0,0,0,0,0,0c0,0,0,0,0,0l0,0c0,0,0,0,0,0
				c0,0,0,0,0,0l0,0c0,0,0,0,0,0c0,0,0,0,0,0c0,0,0,0,0,0c0,0,0,0,0,0c0,0,0,0,0,0l0,0c0,0,0,0,0,0c0,0,0,0,0,0l0,0c0,0,0,0,0,0
				c0,0,0,0,0,0l0,0c0,0,0,0,0,0c0,0,0,0,0,0l0,0c0,0,0,0,0,0c0,0,0,0,0,0l0-0.1l-14.3,10.6C148.9,27.9,149,28.1,149.1,28.3z"/>
		</g>
		<g id="_x3C_Radial_Repeat_x3E__14_">
			<path class="st1" d="M151.2,31.6c0.1,0.2,0.2,0.4,0.3,0.6l15.9-8l0-0.1c0,0,0,0,0,0c0,0,0,0,0,0c0,0,0,0,0,0l0,0c0,0,0,0,0,0l0,0
				c0,0,0,0,0,0c0,0,0,0,0,0l0,0c0,0,0,0,0,0c0,0,0,0,0,0l0,0c0,0,0,0,0,0c0,0,0,0,0,0c0,0,0,0,0,0c0,0,0,0,0,0c0,0,0,0,0,0l0,0
				c0,0,0,0,0,0s0,0,0,0c0,0,0,0,0,0c0,0,0,0,0,0c0,0,0,0,0,0l0,0c0,0,0,0,0-0.1l0-0.1c0,0,0,0,0,0c0,0,0,0,0,0l0,0c0,0,0,0,0,0
				c0,0,0,0,0,0l0,0c0,0,0,0,0,0c0,0,0,0,0,0c0,0,0,0,0,0c0,0,0,0,0,0c0,0,0,0,0,0l0,0c0,0,0,0,0,0c0,0,0,0,0,0l0,0c0,0,0,0,0,0
				c0,0,0,0,0,0l0,0c0,0,0,0,0,0c0,0,0,0,0,0l0,0c0,0,0,0,0,0s0,0,0,0l0-0.1L150.9,31C151,31.2,151.1,31.4,151.2,31.6z"/>
		</g>
		<g id="_x3C_Radial_Repeat_x3E__13_">
			<path class="st1" d="M152.7,35.2c0.1,0.2,0.1,0.4,0.2,0.6l17-5.4l0-0.1c0,0,0,0,0,0c0,0,0,0,0,0c0,0,0,0,0,0l0,0c0,0,0,0,0,0l0,0
				c0,0,0,0,0,0c0,0,0,0,0,0l0,0c0,0,0,0,0,0c0,0,0,0,0,0l0,0c0,0,0,0,0,0c0,0,0,0,0,0c0,0,0,0,0,0c0,0,0,0,0,0c0,0,0,0,0,0l0,0
				c0,0,0,0,0,0c0,0,0,0,0,0c0,0,0,0,0,0c0,0,0,0,0,0c0,0,0,0,0,0l0,0c0,0,0,0,0-0.1l0-0.1c0,0,0,0,0,0c0,0,0,0,0,0l0,0c0,0,0,0,0,0
				c0,0,0,0,0,0l0,0c0,0,0,0,0,0c0,0,0,0,0,0c0,0,0,0,0,0c0,0,0,0,0,0c0,0,0,0,0,0l0,0c0,0,0,0,0,0c0,0,0,0,0,0l0,0c0,0,0,0,0,0
				c0,0,0,0,0,0l0,0c0,0,0,0,0,0c0,0,0,0,0,0l0,0c0,0,0,0,0,0c0,0,0,0,0,0l0-0.1l-16.9,5.6C152.5,34.8,152.6,35,152.7,35.2z"/>
		</g>
		<g id="_x3C_Radial_Repeat_x3E__12_">
			<path class="st1" d="M153.6,39c0,0.2,0.1,0.4,0.1,0.6l17.6-2.7l0-0.1c0,0,0,0,0,0c0,0,0,0,0,0c0,0,0,0,0,0l0,0c0,0,0,0,0,0l0,0
				c0,0,0,0,0,0c0,0,0,0,0,0l0,0c0,0,0,0,0,0c0,0,0,0,0,0l0,0c0,0,0,0,0,0c0,0,0,0,0,0c0,0,0,0,0,0c0,0,0,0,0,0c0,0,0,0,0,0l0,0
				c0,0,0,0,0,0s0,0,0,0c0,0,0,0,0,0c0,0,0,0,0,0s0,0,0,0l0,0c0,0,0,0,0-0.1l0-0.1c0,0,0,0,0,0c0,0,0,0,0,0l0,0c0,0,0,0,0,0
				c0,0,0,0,0,0l0,0c0,0,0,0,0,0s0,0,0,0c0,0,0,0,0,0c0,0,0,0,0,0c0,0,0,0,0,0l0,0c0,0,0,0,0,0c0,0,0,0,0,0l0,0c0,0,0,0,0,0
				c0,0,0,0,0,0l0,0c0,0,0,0,0,0c0,0,0,0,0,0l0,0c0,0,0,0,0,0s0,0,0,0l0-0.1l-17.6,2.9C153.5,38.6,153.5,38.8,153.6,39z"/>
		</g>
		<g id="_x3C_Radial_Repeat_x3E__11_">
			<path class="st1" d="M153.9,42.9c0,0.2,0,0.4,0,0.6l17.8,0.1v-0.1c0,0,0,0,0,0c0,0,0,0,0,0c0,0,0,0,0,0v0c0,0,0,0,0,0v0
				c0,0,0,0,0,0c0,0,0,0,0,0v0c0,0,0,0,0,0c0,0,0,0,0,0v0c0,0,0,0,0,0c0,0,0,0,0,0c0,0,0,0,0,0c0,0,0,0,0,0c0,0,0,0,0,0v0
				c0,0,0,0,0,0s0,0,0,0c0,0,0,0,0,0c0,0,0,0,0,0s0,0,0,0v0c0,0,0,0,0-0.1v-0.1c0,0,0,0,0,0c0,0,0,0,0,0v0c0,0,0,0,0,0c0,0,0,0,0,0
				v0c0,0,0,0,0,0s0,0,0,0c0,0,0,0,0,0c0,0,0,0,0,0c0,0,0,0,0,0v0c0,0,0,0,0,0c0,0,0,0,0,0v0c0,0,0,0,0,0c0,0,0,0,0,0v0c0,0,0,0,0,0
				c0,0,0,0,0,0v0c0,0,0,0,0,0s0,0,0,0v-0.1l-17.8,0.1C153.9,42.5,153.9,42.7,153.9,42.9z"/>
		</g>
		<g id="_x3C_Radial_Repeat_x3E__10_">
			<path class="st1" d="M153.6,46.8c0,0.2-0.1,0.4-0.1,0.6l17.6,2.9l0-0.1c0,0,0,0,0,0c0,0,0,0,0,0c0,0,0,0,0,0l0,0c0,0,0,0,0,0l0,0
				c0,0,0,0,0,0c0,0,0,0,0,0l0,0c0,0,0,0,0,0c0,0,0,0,0,0l0,0c0,0,0,0,0,0c0,0,0,0,0,0c0,0,0,0,0,0c0,0,0,0,0,0c0,0,0,0,0,0l0,0
				c0,0,0,0,0,0s0,0,0,0c0,0,0,0,0,0c0,0,0,0,0,0s0,0,0,0l0,0c0,0,0,0,0-0.1l0-0.1c0,0,0,0,0,0c0,0,0,0,0,0l0,0c0,0,0,0,0,0
				c0,0,0,0,0,0l0,0c0,0,0,0,0,0s0,0,0,0c0,0,0,0,0,0c0,0,0,0,0,0c0,0,0,0,0,0l0,0c0,0,0,0,0,0c0,0,0,0,0,0l0,0c0,0,0,0,0,0
				c0,0,0,0,0,0l0,0c0,0,0,0,0,0c0,0,0,0,0,0l0,0c0,0,0,0,0,0s0,0,0,0l0-0.1l-17.6-2.7C153.6,46.4,153.6,46.6,153.6,46.8z"/>
		</g>
		<g id="_x3C_Radial_Repeat_x3E__9_">
			<path class="st1" d="M152.7,50.6c-0.1,0.2-0.1,0.4-0.2,0.6l16.9,5.6l0-0.1c0,0,0,0,0,0c0,0,0,0,0,0c0,0,0,0,0,0l0,0c0,0,0,0,0,0
				l0,0c0,0,0,0,0,0c0,0,0,0,0,0l0,0c0,0,0,0,0,0c0,0,0,0,0,0l0,0c0,0,0,0,0,0c0,0,0,0,0,0c0,0,0,0,0,0c0,0,0,0,0,0c0,0,0,0,0,0l0,0
				c0,0,0,0,0,0c0,0,0,0,0,0c0,0,0,0,0,0c0,0,0,0,0,0s0,0,0,0l0,0c0,0,0,0,0-0.1l0-0.1c0,0,0,0,0,0c0,0,0,0,0,0l0,0c0,0,0,0,0,0
				c0,0,0,0,0,0l0,0c0,0,0,0,0,0s0,0,0,0c0,0,0,0,0,0c0,0,0,0,0,0c0,0,0,0,0,0l0,0c0,0,0,0,0,0c0,0,0,0,0,0l0,0c0,0,0,0,0,0
				c0,0,0,0,0,0l0,0c0,0,0,0,0,0c0,0,0,0,0,0l0,0c0,0,0,0,0,0s0,0,0,0l0-0.1l-17-5.4C152.8,50.2,152.7,50.4,152.7,50.6z"/>
		</g>
		<g id="_x3C_Radial_Repeat_x3E__8_">
			<path class="st1" d="M151.2,54.2c-0.1,0.2-0.2,0.4-0.3,0.6l15.8,8.2l0-0.1c0,0,0,0,0,0c0,0,0,0,0,0c0,0,0,0,0,0l0,0c0,0,0,0,0,0
				l0,0c0,0,0,0,0,0c0,0,0,0,0,0l0,0c0,0,0,0,0,0c0,0,0,0,0,0l0,0c0,0,0,0,0,0c0,0,0,0,0,0c0,0,0,0,0,0c0,0,0,0,0,0c0,0,0,0,0,0l0,0
				c0,0,0,0,0,0c0,0,0,0,0,0c0,0,0,0,0,0c0,0,0,0,0,0c0,0,0,0,0,0l0,0c0,0,0,0,0-0.1l0-0.1c0,0,0,0,0,0c0,0,0,0,0,0l0,0c0,0,0,0,0,0
				c0,0,0,0,0,0l0,0c0,0,0,0,0,0c0,0,0,0,0,0c0,0,0,0,0,0c0,0,0,0,0,0c0,0,0,0,0,0l0,0c0,0,0,0,0,0c0,0,0,0,0,0l0,0c0,0,0,0,0,0
				c0,0,0,0,0,0l0,0c0,0,0,0,0,0c0,0,0,0,0,0l0,0c0,0,0,0,0,0c0,0,0,0,0,0l0-0.1l-16-8C151.4,53.8,151.3,54,151.2,54.2z"/>
		</g>
		<g id="_x3C_Radial_Repeat_x3E__7_">
			<path class="st1" d="M149.1,57.6c-0.1,0.2-0.3,0.3-0.4,0.5l14.3,10.6l0-0.1c0,0,0,0,0,0c0,0,0,0,0,0c0,0,0,0,0,0l0,0c0,0,0,0,0,0
				l0,0c0,0,0,0,0,0c0,0,0,0,0,0l0,0c0,0,0,0,0,0c0,0,0,0,0,0l0,0c0,0,0,0,0,0c0,0,0,0,0,0c0,0,0,0,0,0c0,0,0,0,0,0c0,0,0,0,0,0l0,0
				c0,0,0,0,0,0c0,0,0,0,0,0c0,0,0,0,0,0c0,0,0,0,0,0s0,0,0,0l0,0c0,0,0,0,0.1,0l0-0.1c0,0,0,0,0,0c0,0,0,0,0,0l0,0c0,0,0,0,0,0
				c0,0,0,0,0,0l0,0c0,0,0,0,0,0s0,0,0,0c0,0,0,0,0,0c0,0,0,0,0,0c0,0,0,0,0,0l0,0c0,0,0,0,0,0c0,0,0,0,0,0l0,0c0,0,0,0,0,0
				c0,0,0,0,0,0l0,0c0,0,0,0,0,0c0,0,0,0,0,0l0,0c0,0,0,0,0,0c0,0,0,0,0,0l0-0.1L149.5,57C149.4,57.2,149.3,57.4,149.1,57.6z"/>
		</g>
		<g id="_x3C_Radial_Repeat_x3E__6_">
			<path class="st1" d="M146.6,60.5c-0.2,0.2-0.3,0.3-0.5,0.4l12.5,12.7l0,0c0,0,0,0,0,0c0,0,0,0,0,0c0,0,0,0,0,0l0,0c0,0,0,0,0,0
				l0,0c0,0,0,0,0,0c0,0,0,0,0,0l0,0c0,0,0,0,0,0c0,0,0,0,0,0l0,0c0,0,0,0,0,0c0,0,0,0,0,0c0,0,0,0,0,0c0,0,0,0,0,0c0,0,0,0,0,0l0,0
				c0,0,0,0,0,0c0,0,0,0,0,0c0,0,0,0,0,0c0,0,0,0,0,0c0,0,0,0,0,0l0,0c0,0,0,0,0.1,0l0,0c0,0,0,0,0,0c0,0,0,0,0,0l0,0c0,0,0,0,0,0
				c0,0,0,0,0,0l0,0c0,0,0,0,0,0c0,0,0,0,0,0c0,0,0,0,0,0c0,0,0,0,0,0c0,0,0,0,0,0l0,0c0,0,0,0,0,0c0,0,0,0,0,0l0,0c0,0,0,0,0,0
				c0,0,0,0,0,0l0,0c0,0,0,0,0,0c0,0,0,0,0,0l0,0c0,0,0,0,0,0c0,0,0,0,0,0l0,0L147,60C146.9,60.2,146.7,60.4,146.6,60.5z"/>
		</g>
		<g id="_x3C_Radial_Repeat_x3E__5_">
			<path class="st1" d="M143.6,63.1c-0.2,0.1-0.4,0.2-0.5,0.4l10.4,14.5l0.1,0c0,0,0,0,0,0c0,0,0,0,0,0c0,0,0,0,0,0l0,0c0,0,0,0,0,0
				l0,0c0,0,0,0,0,0c0,0,0,0,0,0l0,0c0,0,0,0,0,0c0,0,0,0,0,0l0,0c0,0,0,0,0,0c0,0,0,0,0,0c0,0,0,0,0,0c0,0,0,0,0,0c0,0,0,0,0,0l0,0
				c0,0,0,0,0,0c0,0,0,0,0,0c0,0,0,0,0,0c0,0,0,0,0,0c0,0,0,0,0,0l0,0c0,0,0,0,0.1,0l0.1,0c0,0,0,0,0,0c0,0,0,0,0,0l0,0c0,0,0,0,0,0
				c0,0,0,0,0,0l0,0c0,0,0,0,0,0c0,0,0,0,0,0c0,0,0,0,0,0c0,0,0,0,0,0c0,0,0,0,0,0l0,0c0,0,0,0,0,0c0,0,0,0,0,0l0,0c0,0,0,0,0,0
				c0,0,0,0,0,0l0,0c0,0,0,0,0,0c0,0,0,0,0,0l0,0c0,0,0,0,0,0c0,0,0,0,0,0l0.1,0l-10.6-14.3C144,62.8,143.8,62.9,143.6,63.1z"/>
		</g>
		<g id="_x3C_Radial_Repeat_x3E__4_">
			<path class="st1" d="M140.3,65.1c-0.2,0.1-0.4,0.2-0.6,0.3l8,15.9l0.1,0c0,0,0,0,0,0c0,0,0,0,0,0c0,0,0,0,0,0l0,0c0,0,0,0,0,0
				l0,0c0,0,0,0,0,0c0,0,0,0,0,0l0,0c0,0,0,0,0,0c0,0,0,0,0,0l0,0c0,0,0,0,0,0c0,0,0,0,0,0c0,0,0,0,0,0c0,0,0,0,0,0c0,0,0,0,0,0l0,0
				c0,0,0,0,0,0c0,0,0,0,0,0c0,0,0,0,0,0c0,0,0,0,0,0c0,0,0,0,0,0l0,0c0,0,0,0,0.1,0l0.1,0c0,0,0,0,0,0c0,0,0,0,0,0l0,0c0,0,0,0,0,0
				c0,0,0,0,0,0l0,0c0,0,0,0,0,0c0,0,0,0,0,0c0,0,0,0,0,0c0,0,0,0,0,0c0,0,0,0,0,0l0,0c0,0,0,0,0,0c0,0,0,0,0,0l0,0c0,0,0,0,0,0
				c0,0,0,0,0,0l0,0c0,0,0,0,0,0c0,0,0,0,0,0l0,0c0,0,0,0,0,0c0,0,0,0,0,0l0.1,0l-8.2-15.8C140.7,64.9,140.5,65,140.3,65.1z"/>
		</g>
		<g id="_x3C_Radial_Repeat_x3E__3_">
			<path class="st1" d="M136.7,66.6c-0.2,0.1-0.4,0.1-0.6,0.2l5.4,17l0.1,0c0,0,0,0,0,0c0,0,0,0,0,0c0,0,0,0,0,0l0,0c0,0,0,0,0,0
				l0,0c0,0,0,0,0,0c0,0,0,0,0,0l0,0c0,0,0,0,0,0c0,0,0,0,0,0l0,0c0,0,0,0,0,0c0,0,0,0,0,0c0,0,0,0,0,0c0,0,0,0,0,0c0,0,0,0,0,0l0,0
				c0,0,0,0,0,0s0,0,0,0c0,0,0,0,0,0c0,0,0,0,0,0s0,0,0,0l0,0c0,0,0,0,0.1,0l0.1,0c0,0,0,0,0,0c0,0,0,0,0,0l0,0c0,0,0,0,0,0
				c0,0,0,0,0,0l0,0c0,0,0,0,0,0c0,0,0,0,0,0c0,0,0,0,0,0c0,0,0,0,0,0c0,0,0,0,0,0l0,0c0,0,0,0,0,0c0,0,0,0,0,0l0,0c0,0,0,0,0,0
				c0,0,0,0,0,0l0,0c0,0,0,0,0,0c0,0,0,0,0,0l0,0c0,0,0,0,0,0s0,0,0,0l0.1,0l-5.6-16.9C137.1,66.4,136.9,66.5,136.7,66.6z"/>
		</g>
		<g id="_x3C_Radial_Repeat_x3E__2_">
			<path class="st1" d="M132.9,67.5c-0.2,0-0.4,0.1-0.6,0.1l2.7,17.6l0.1,0c0,0,0,0,0,0c0,0,0,0,0,0c0,0,0,0,0,0l0,0c0,0,0,0,0,0
				l0,0c0,0,0,0,0,0c0,0,0,0,0,0l0,0c0,0,0,0,0,0c0,0,0,0,0,0l0,0c0,0,0,0,0,0c0,0,0,0,0,0c0,0,0,0,0,0c0,0,0,0,0,0c0,0,0,0,0,0l0,0
				c0,0,0,0,0,0s0,0,0,0c0,0,0,0,0,0c0,0,0,0,0,0s0,0,0,0l0,0c0,0,0,0,0.1,0l0.1,0c0,0,0,0,0,0c0,0,0,0,0,0l0,0c0,0,0,0,0,0
				c0,0,0,0,0,0l0,0c0,0,0,0,0,0s0,0,0,0c0,0,0,0,0,0c0,0,0,0,0,0c0,0,0,0,0,0l0,0c0,0,0,0,0,0c0,0,0,0,0,0l0,0c0,0,0,0,0,0
				c0,0,0,0,0,0l0,0c0,0,0,0,0,0c0,0,0,0,0,0l0,0c0,0,0,0,0,0c0,0,0,0,0,0l0.1,0l-2.9-17.6C133.3,67.4,133.1,67.5,132.9,67.5z"/>
		</g>
	</g>
</g>
<g id="LS_pressed">
	<g>
		<path class="st5" d="M85,43c0,23.2-18.8,42-42,42C19.8,85,1,66.2,1,43C1,19.8,19.8,1,43,1C66.2,1,85,19.8,85,43z"/>
		<path class="st6" d="M43,1C43,1,43,1,43,1C43,1,43,1,43,1C42.9,1,42.9,1,43,1C42.9,1,42.9,1,43,1C42.9,1,42.9,1,43,1
			c-0.1,0-0.1,0-0.1,0c0,0,0,0,0,0c0,0,0,0,0,0c0,0,0,0,0,0c0,0,0,0,0,0c0,0,0,0,0,0c0,0,0,0,0,0c0,0,0,0,0,0c0,0,0,0,0,0
			c0,0,0,0,0,0c0,0,0,0,0,0c0,0,0,0,0,0c0,0,0,0,0,0s0,0,0,0c0,0,0,0,0,0c0,0,0,0,0,0c0,0,0,0,0,0c0,0,0,0,0,0c0,0,0,0,0,0
			c0,0,0,0,0,0c0,0,0,0,0,0c0,0,0,0,0,0c0,0,0,0,0,0c0,0,0,0,0,0c0,0,0,0,0,0c0,0,0,0,0,0c0,0,0,0,0,0c0,0,0,0,0,0c0,0,0,0,0,0
			c0,0,0,0,0,0c0,0,0,0,0,0c0,0,0,0,0,0c0,0,0,0,0,0c0,0,0,0,0,0c0,0,0,0,0,0c0,0,0,0,0,0c0,0,0,0,0,0c0,0,0,0,0,0c0,0,0,0,0,0
			c0,0,0,0,0,0c0,0,0,0,0,0c0,0,0,0,0,0c0,0,0,0,0,0c0,0,0,0,0,0c0,0,0,0,0,0c0,0,0,0,0,0c0,0-0.1,0-0.1,0c0,0,0,0,0,0c0,0,0,0,0,0
			c0,0,0,0,0,0c0,0,0,0,0,0c0,0,0,0,0,0c0,0,0,0,0,0c0,0,0,0,0,0c0,0,0,0,0,0c0,0,0,0,0,0c0,0,0,0,0,0h0c0,0,0,0,0,0h0
			c0,0,0,0-0.1,0l0,0c-0.3,0-0.5,0-0.8,0l0.9,20.1c0.4,0,0.7,0,1.1,0V1L43,1L43,1z M39,1.2c-0.1,0-0.1,0-0.2,0l0,0c0,0,0,0,0,0
			c0,0,0,0,0,0c0,0,0,0,0,0c0,0,0,0,0,0c0,0,0,0,0,0c0,0,0,0,0,0c0,0,0,0,0,0c0,0,0,0,0,0h0c-0.6,0.1-1.1,0.1-1.7,0.2l2.9,19.9
			c0.3,0,0.7-0.1,1-0.1L39,1.2L39,1.2z M35,1.8C35,1.8,34.9,1.8,35,1.8C34.9,1.8,34.9,1.8,35,1.8c-0.1,0-0.1,0-0.1,0c0,0,0,0,0,0
			c0,0,0,0,0,0c0,0,0,0,0,0c0,0,0,0,0,0c0,0,0,0,0,0c0,0,0,0,0,0c0,0,0,0,0,0c0,0,0,0,0,0c0,0,0,0,0,0c0,0,0,0,0,0c0,0,0,0,0,0
			c0,0,0,0,0,0s0,0,0,0c0,0,0,0,0,0c0,0,0,0,0,0c0,0,0,0,0,0c0,0,0,0,0,0c0,0,0,0,0,0c0,0,0,0,0,0c0,0,0,0,0,0c0,0,0,0,0,0
			c0,0,0,0,0,0c0,0,0,0,0,0c0,0,0,0,0,0c0,0,0,0,0,0h0C34,2,33.5,2.1,33,2.2l4.8,19.6c0.3-0.1,0.7-0.2,1-0.2L35,1.8L35,1.8z
			 M31.1,2.7c-0.3,0.1-0.5,0.2-0.8,0.2h0c0,0,0,0-0.1,0l0,0c0,0,0,0-0.1,0c0,0,0,0,0,0c0,0,0,0-0.1,0c-0.3,0.1-0.6,0.2-0.9,0.3
			l6.6,19c0.3-0.1,0.7-0.2,1-0.3L31.1,2.7L31.1,2.7z M27.3,4c-0.6,0.3-1.2,0.5-1.8,0.8l8.4,18.3c0.3-0.1,0.6-0.3,1-0.4L27.3,4
			L27.3,4z M23.6,5.7c-0.6,0.3-1.2,0.6-1.8,1L32,24.1c0.3-0.2,0.6-0.3,0.9-0.5L23.6,5.7L23.6,5.7z M20.1,7.8
			c-0.6,0.4-1.1,0.7-1.7,1.1l11.8,16.3c0.3-0.2,0.6-0.4,0.9-0.6L20.1,7.8L20.1,7.8z M16.9,10.1c-0.5,0.4-1,0.8-1.5,1.3l13.3,15.1
			c0.3-0.2,0.5-0.5,0.8-0.7L16.9,10.1L16.9,10.1z M13.8,12.8c-0.3,0.3-0.6,0.6-0.8,0.8c0,0,0,0,0,0c0,0,0,0,0,0c0,0,0,0,0,0
			c0,0,0,0,0,0c0,0,0,0,0,0c0,0,0,0,0,0c0,0,0,0,0,0c0,0,0,0,0,0c0,0,0,0,0,0c0,0,0,0,0,0c0,0,0,0,0,0c0,0,0,0,0,0
			c-0.1,0.2-0.3,0.3-0.4,0.5L27.1,28c0.2-0.3,0.5-0.5,0.7-0.7L13.8,12.8L13.8,12.8z M11.1,15.7C11.1,15.7,11.1,15.7,11.1,15.7
			C11.1,15.7,11.1,15.7,11.1,15.7C11.1,15.7,11,15.7,11.1,15.7C11,15.7,11,15.8,11.1,15.7C11,15.8,11,15.8,11.1,15.7
			C11,15.8,11,15.8,11.1,15.7C11,15.8,11,15.8,11.1,15.7C11,15.8,11,15.8,11.1,15.7C11,15.8,11,15.8,11,15.8c0,0,0,0,0,0
			c0,0,0,0,0,0c0,0,0,0,0,0c0,0,0,0,0,0c0,0,0,0,0,0l0,0c-0.4,0.4-0.7,0.9-1.1,1.4c0,0,0,0,0,0l15.9,12.4c0.2-0.3,0.4-0.6,0.7-0.8
			L11.1,15.7L11.1,15.7z M8.6,18.9C8.6,19,8.5,19,8.4,19.1c0,0,0,0,0,0c0,0,0,0,0,0c0,0,0,0,0,0c0,0,0,0,0,0
			c-0.3,0.5-0.6,0.9-0.9,1.4l17,10.8c0.2-0.3,0.4-0.6,0.6-0.9L8.6,18.9L8.6,18.9z M6.4,22.3c-0.2,0.3-0.3,0.5-0.5,0.8c0,0,0,0,0,0
			c0,0,0,0,0,0c-0.2,0.3-0.3,0.6-0.5,0.9l18,9.1c0.2-0.3,0.3-0.6,0.5-0.9L6.4,22.3L6.4,22.3z M4.6,25.9c-0.1,0.2-0.1,0.3-0.2,0.5
			l0,0c0,0,0,0,0,0.1l0,0c0,0,0,0,0,0.1l0,0c-0.2,0.4-0.4,0.9-0.5,1.3l18.8,7.3c0.1-0.3,0.3-0.6,0.4-1L4.6,25.9L4.6,25.9z M3.2,29.6
			c-0.1,0.3-0.2,0.5-0.3,0.8c0,0,0,0,0,0c0,0,0,0,0,0c0,0,0,0,0,0c0,0,0,0,0,0c0,0,0,0,0,0c0,0,0,0,0,0c0,0,0,0,0,0c0,0,0,0,0,0
			c0,0,0,0,0,0c0,0,0,0,0,0c0,0,0,0,0,0c0,0,0,0,0,0c0,0,0,0,0,0c0,0,0,0,0,0c0,0,0,0,0,0c0,0,0,0,0,0c0,0,0,0,0,0c0,0,0,0,0,0
			c0,0,0,0,0,0c0,0,0,0,0,0c0,0,0,0,0,0c0,0,0,0,0,0c0,0,0,0,0,0c0,0,0,0,0,0c0,0,0,0,0,0c0,0,0,0,0,0c0,0,0,0,0,0c0,0,0,0,0,0
			c0,0,0,0,0,0c0,0,0,0,0,0c0,0,0,0,0,0c0,0,0,0,0,0c0,0,0,0,0,0c0,0,0,0,0,0c0,0,0,0,0,0c0,0,0,0,0,0c0,0,0,0,0,0
			c-0.1,0.2-0.1,0.4-0.2,0.6L22,37c0.1-0.3,0.2-0.7,0.3-1L3.2,29.6L3.2,29.6z M2.1,33.5c-0.1,0.5-0.2,1.1-0.3,1.6
			c0,0.1,0,0.2-0.1,0.4l19.8,3.6c0.1-0.3,0.1-0.7,0.2-1L2.1,33.5L2.1,33.5z M1.4,37.5c-0.1,0.4-0.1,0.9-0.1,1.3c0,0,0,0,0,0
			c0,0,0,0,0,0c0,0,0,0,0,0c0,0,0,0,0,0c0,0,0,0,0,0c0,0,0,0,0,0c0,0,0,0,0,0v0c0,0.2,0,0.4-0.1,0.6l20.1,1.7c0-0.3,0.1-0.7,0.1-1
			L1.4,37.5L1.4,37.5z M1,41.5c0,0.3,0,0.6,0,1c0,0,0,0,0,0c0,0,0,0,0,0c0,0,0,0,0,0c0,0,0,0,0,0.1c0,0,0,0,0,0c0,0,0,0,0,0
			c0,0,0,0,0,0c0,0,0,0,0,0c0,0,0,0,0,0c0,0,0,0,0,0c0,0,0,0,0,0s0,0,0,0c0,0,0,0,0,0c0,0,0,0,0,0c0,0,0,0,0,0c0,0,0,0,0,0
			c0,0,0,0,0,0c0,0,0,0,0,0c0,0,0,0,0,0c0,0,0,0,0,0c0,0,0,0,0,0c0,0,0,0,0,0c0,0,0,0,0,0l0,0l0,0c0,0,0,0,0,0c0,0,0,0,0,0
			c0,0,0,0,0,0c0,0,0,0,0,0l0,0c0,0.1,0,0.3,0,0.4l20.1-0.2l0-0.3c0-0.3,0-0.5,0-0.8L1,41.5L1,41.5z M21.2,44.3L1.1,45.5
			c0,0.6,0.1,1.1,0.1,1.7c0,0,0,0,0,0c0,0,0,0,0,0c0,0,0,0,0,0c0,0,0,0,0,0c0,0,0,0,0,0c0,0,0,0,0,0c0,0,0,0,0,0c0,0,0,0,0,0
			c0,0.1,0,0.1,0,0.2l20-2.1C21.2,45,21.2,44.7,21.2,44.3L21.2,44.3z M21.4,46.4L1.5,49.5c0,0,0,0,0,0c0,0,0,0,0,0c0,0,0,0,0,0
			c0,0,0,0,0,0c0,0,0,0,0,0c0,0,0,0,0,0c0,0,0,0,0,0c0.1,0.5,0.2,1.1,0.3,1.6c0,0,0,0,0,0c0,0,0,0,0,0c0,0,0,0,0,0c0,0,0,0,0,0
			c0,0,0,0,0,0c0,0,0,0,0,0c0,0,0,0,0,0c0,0,0,0,0,0c0,0.1,0,0.1,0,0.2l19.7-4.1C21.5,47.1,21.5,46.8,21.4,46.4L21.4,46.4z
			 M21.8,48.5l-19.5,5c0.2,0.7,0.4,1.3,0.5,1.9l19.3-5.9C22,49.1,21.9,48.8,21.8,48.5L21.8,48.5z M22.4,50.5L3.5,57.3
			C3.7,58,4,58.6,4.2,59.2l18.6-7.8C22.7,51.1,22.6,50.8,22.4,50.5L22.4,50.5z M23.2,52.4L5.1,61c0,0.1,0.1,0.1,0.1,0.2c0,0,0,0,0,0
			c0,0,0,0,0,0c0,0,0,0,0,0c0,0,0,0,0,0c0.2,0.4,0.4,0.7,0.6,1.1l0,0c0,0,0,0,0,0c0,0,0,0,0,0c0,0,0,0,0,0c0,0,0,0,0,0c0,0,0,0,0,0
			c0,0,0,0,0,0c0,0,0,0,0,0c0.1,0.1,0.1,0.2,0.2,0.3l17.8-9.5C23.6,53,23.4,52.7,23.2,52.4L23.2,52.4z M24.2,54.2L7,64.6
			c0.1,0.2,0.2,0.3,0.3,0.5v0c0,0,0,0,0,0c0,0,0,0,0,0c0,0,0,0,0,0c0,0,0,0,0,0c0,0,0,0,0,0c0.2,0.4,0.5,0.8,0.7,1.2l16.8-11.2
			C24.6,54.8,24.4,54.5,24.2,54.2L24.2,54.2z M25.4,56l-16.2,12c0.1,0.1,0.2,0.2,0.2,0.3v0c0,0,0,0,0,0l0,0c0,0,0,0,0,0c0,0,0,0,0,0
			c0,0,0,0,0,0c0,0,0,0,0,0c0,0,0,0,0,0c0,0,0,0,0,0c0,0,0,0,0,0c0,0,0,0,0,0c0,0,0,0,0,0c0,0,0,0,0,0c0,0,0,0,0,0c0,0,0,0,0,0
			c0,0,0,0,0,0c0,0,0,0,0,0c0,0,0,0,0,0c0,0,0,0,0,0c0,0,0,0,0,0c0,0,0,0,0,0c0,0,0,0,0,0c0,0,0,0,0,0c0,0,0,0,0,0c0,0,0,0,0,0
			c0,0,0,0,0,0c0,0,0,0,0,0c0,0,0,0,0,0c0,0,0,0,0,0c0,0,0,0,0,0c0,0,0,0,0,0c0,0,0,0,0,0c0.2,0.3,0.5,0.6,0.7,0.9L26,56.8
			C25.8,56.5,25.6,56.2,25.4,56L25.4,56z M26.7,57.6l-15,13.5c0.4,0.5,0.9,1,1.4,1.5l14.3-14.2C27.2,58.1,27,57.9,26.7,57.6
			L26.7,57.6z M28.2,59.1L14.6,73.9c0.3,0.2,0.5,0.5,0.8,0.7c0,0,0,0,0,0c0,0,0,0,0,0c0,0,0,0,0,0c0,0,0,0,0,0c0,0,0,0,0,0
			c0,0,0,0,0,0c0,0,0,0,0,0l0,0c0.2,0.2,0.4,0.4,0.7,0.6L29,59.8C28.7,59.6,28.5,59.3,28.2,59.1L28.2,59.1z M29.8,60.4L17.7,76.5
			c0.3,0.2,0.6,0.5,0.9,0.7c0.2,0.2,0.5,0.3,0.7,0.5l11.4-16.6C30.4,60.9,30.1,60.7,29.8,60.4L29.8,60.4z M31.6,61.6L21,78.8
			c0,0,0.1,0,0.1,0.1c0,0,0,0,0,0c0,0,0,0,0,0c0,0,0,0,0,0c0,0,0,0,0,0c0,0,0,0,0,0c0,0,0,0,0,0c0.5,0.3,1,0.6,1.5,0.9c0,0,0,0,0,0
			c0,0,0,0,0,0c0,0,0,0,0,0c0,0,0,0,0,0l9.7-17.6C32.2,62,31.9,61.8,31.6,61.6L31.6,61.6z M33.4,62.6l-8.9,18.1
			c0.1,0.1,0.2,0.1,0.3,0.2l0,0c0,0,0,0,0,0c0,0,0,0,0,0c0,0,0,0,0,0c0,0,0,0,0,0c0,0,0,0,0,0c0,0,0,0,0,0c0,0,0,0,0,0c0,0,0,0,0,0
			c0,0,0,0,0,0c0,0,0,0,0,0c0,0,0,0,0,0c0,0,0,0,0,0c0,0,0,0,0,0c0,0,0,0,0,0c0,0,0,0,0,0c0.4,0.2,0.8,0.4,1.3,0.6l8-18.5
			C34,62.9,33.7,62.8,33.4,62.6L33.4,62.6z M35.3,63.5l-7.1,18.9c0.6,0.2,1.3,0.5,1.9,0.7l6.2-19.2C36,63.7,35.6,63.6,35.3,63.5
			L35.3,63.5z M37.3,64.1l-5.2,19.5c0.1,0,0.2,0,0.2,0.1h0c0,0,0,0,0,0c0,0,0,0,0,0c0,0,0,0,0,0c0,0,0,0,0,0c0,0,0,0,0,0
			c0,0,0,0,0,0c0,0,0,0,0,0c0,0,0,0,0,0c0,0,0,0,0,0c0,0,0,0,0,0c0,0,0,0,0,0c0,0,0,0,0,0c0,0,0,0,0,0c0.5,0.1,1,0.2,1.5,0.4
			l4.3-19.7C38,64.3,37.6,64.2,37.3,64.1L37.3,64.1z M39.3,64.5L36,84.4c0.5,0.1,1,0.2,1.5,0.2c0.2,0,0.3,0,0.5,0.1l2.4-20
			C40,64.7,39.7,64.6,39.3,64.5L39.3,64.5z M41.4,64.8L40,84.9c0.1,0,0.3,0,0.4,0c0,0,0,0,0,0c0,0,0,0,0,0c0,0,0,0,0,0c0,0,0,0,0,0
			c0,0,0,0,0,0c0,0,0,0,0,0c0.3,0,0.6,0,1,0c0,0,0,0,0,0c0,0,0,0,0,0c0,0,0,0,0,0c0,0,0,0,0,0c0,0,0,0,0,0c0,0,0,0,0,0c0,0,0,0,0,0
			c0,0,0,0,0,0c0.1,0,0.3,0,0.4,0l0.5-20.1C42.1,64.8,41.8,64.8,41.4,64.8L41.4,64.8z M44.6,64.8c-0.4,0-0.7,0-1.1,0.1L44,85
			c0.2,0,0.4,0,0.6,0c0,0,0,0,0.1,0c0,0,0,0,0,0c0,0,0,0,0,0c0,0,0,0,0,0c0,0,0,0,0,0h0c0.4,0,0.8,0,1.2-0.1c0,0,0,0,0,0
			c0,0,0,0,0.1,0c0,0,0,0,0,0c0,0,0,0,0,0h0c0,0,0,0,0,0l0,0L44.6,64.8L44.6,64.8z M46.7,64.5c-0.3,0.1-0.7,0.1-1,0.1l2.4,20
			c0.6-0.1,1.2-0.2,1.8-0.3c0,0,0,0,0,0c0,0,0,0,0,0c0,0,0,0,0,0c0,0,0,0,0,0c0,0,0,0,0,0c0,0,0,0,0,0c0,0,0,0,0,0c0,0,0,0,0,0
			c0,0,0,0,0,0c0,0,0,0,0,0L46.7,64.5L46.7,64.5z M48.7,64.1c-0.3,0.1-0.7,0.2-1,0.2L52,84c0.1,0,0.1,0,0.2,0c0,0,0,0,0,0
			c0,0,0,0,0,0c0,0,0,0,0,0c0,0,0,0,0,0c0,0,0,0,0,0c0,0,0,0,0,0c0,0,0,0,0,0c0,0,0,0,0,0c0,0,0,0,0,0c0,0,0,0,0,0c0,0,0,0,0,0
			c0,0,0,0,0,0c0,0,0,0,0,0c0,0,0,0,0,0c0.3-0.1,0.5-0.1,0.8-0.2h0c0,0,0,0,0,0c0,0,0,0,0,0c0,0,0,0,0,0c0,0,0,0,0,0c0,0,0,0,0,0
			c0,0,0,0,0,0c0,0,0,0,0,0c0,0,0,0,0,0c0,0,0,0,0,0c0,0,0,0,0,0c0,0,0,0,0,0c0,0,0,0,0,0c0,0,0,0,0,0c0,0,0,0,0,0c0,0,0,0,0,0
			c0,0,0,0,0,0c0,0,0,0,0,0c0,0,0,0,0,0c0,0,0,0,0,0c0,0,0,0,0,0c0,0,0,0,0,0c0,0,0,0,0,0c0,0,0,0,0,0h0c0.1,0,0.3-0.1,0.4-0.1
			L48.7,64.1L48.7,64.1z M50.7,63.5c-0.3,0.1-0.7,0.2-1,0.3L55.9,83c0.3-0.1,0.6-0.2,0.9-0.3c0,0,0,0,0,0c0,0,0,0,0,0c0,0,0,0,0,0
			c0,0,0,0,0,0c0,0,0,0,0,0c0,0,0,0,0,0c0,0,0,0,0,0c0,0,0,0,0,0c0,0,0,0,0,0c0,0,0,0,0,0c0,0,0,0,0,0c0,0,0,0,0,0c0,0,0,0,0,0
			c0,0,0,0,0,0c0.3-0.1,0.5-0.2,0.8-0.3L50.7,63.5L50.7,63.5z M52.6,62.6c-0.3,0.2-0.6,0.3-0.9,0.4l8,18.5c0.4-0.2,0.7-0.3,1.1-0.5
			c0,0,0,0,0,0c0,0,0,0,0,0c0,0,0,0,0,0c0,0,0,0,0,0c0,0,0,0,0,0c0,0,0,0,0,0c0,0,0,0,0,0c0,0,0,0,0,0c0,0,0,0,0,0s0,0,0,0
			c0,0,0,0,0,0c0,0,0,0,0,0c0.2-0.1,0.4-0.2,0.6-0.3L52.6,62.6L52.6,62.6z M54.4,61.6c-0.3,0.2-0.6,0.4-0.9,0.5l9.7,17.6
			c0.1,0,0.1-0.1,0.2-0.1c0,0,0,0,0,0c0,0,0,0,0,0c0,0,0,0,0,0c0,0,0,0,0,0c0,0,0,0,0,0c0,0,0,0,0,0c0,0,0,0,0,0c0,0,0,0,0,0
			c0,0,0,0,0,0c0,0,0,0,0,0c0,0,0,0,0,0c0,0,0,0,0,0c0,0,0,0,0,0l0,0c0.5-0.3,0.9-0.5,1.4-0.8L54.4,61.6L54.4,61.6z M56.2,60.4
			c-0.3,0.2-0.6,0.4-0.9,0.6l11.4,16.6c0.3-0.2,0.5-0.4,0.8-0.5c0,0,0,0,0,0c0,0,0,0,0,0c0,0,0,0,0,0c0,0,0,0,0,0c0,0,0,0,0,0
			c0,0,0,0,0,0c0,0,0,0,0,0c0,0,0,0,0,0c0,0,0,0,0,0c0,0,0,0,0,0s0,0,0,0c0,0,0,0,0,0c0,0,0,0,0,0c0,0,0,0,0,0c0,0,0,0,0,0
			c0,0,0,0,0,0c0,0,0,0,0,0c0,0,0,0,0,0c0,0,0,0,0,0c0,0,0,0,0,0c0,0,0,0,0,0c0,0,0,0,0,0c0.2-0.1,0.4-0.3,0.6-0.4L56.2,60.4
			L56.2,60.4z M57.8,59.1c-0.3,0.2-0.5,0.5-0.8,0.7l12.9,15.5c0,0,0,0,0,0c0,0,0,0,0,0c0,0,0,0,0,0c0,0,0,0,0,0c0,0,0,0,0,0
			c0,0,0,0,0,0c0,0,0,0,0,0c0,0,0,0,0,0c0,0,0,0,0,0c0,0,0,0,0,0c0,0,0,0,0,0c0,0,0,0,0,0c0,0,0,0,0,0c0,0,0,0,0,0c0,0,0,0,0,0
			c0,0,0,0,0,0c0,0,0,0,0,0c0,0,0,0,0,0c0,0,0,0,0,0c0,0,0,0,0,0c0,0,0,0,0,0c0,0,0,0,0,0c0,0,0,0,0,0c0,0,0,0,0,0c0,0,0,0,0,0
			c0,0,0,0,0,0c0,0,0,0,0,0c0,0,0,0,0,0c0,0,0,0,0,0c0,0,0,0,0,0l0,0c0,0,0,0,0,0l0,0c0.3-0.3,0.7-0.6,1-0.9c0,0,0,0,0,0
			c0,0,0,0,0,0c0,0,0,0,0,0c0,0,0,0,0,0c0,0,0,0,0,0c0,0,0,0,0,0c0,0,0,0,0,0c0,0,0,0,0,0c0,0,0,0,0,0c0,0,0,0,0,0c0,0,0,0,0,0l0,0
			c0,0,0,0,0,0L57.8,59.1L57.8,59.1z M59.3,57.6c-0.2,0.3-0.5,0.5-0.7,0.8l14.3,14.2c0,0,0,0,0,0c0,0,0,0,0,0c0,0,0,0,0,0
			c0.3-0.3,0.6-0.6,0.9-1c0,0,0,0,0,0c0,0,0,0,0,0c0,0,0,0,0,0c0,0,0,0,0,0c0,0,0,0,0,0c0,0,0,0,0,0c0,0,0,0,0,0c0,0,0,0,0,0
			c0,0,0,0,0,0l0,0c0.1-0.1,0.2-0.2,0.3-0.4L59.3,57.6L59.3,57.6z M60.6,56c-0.2,0.3-0.4,0.6-0.6,0.8l15.6,12.7c0,0,0,0,0,0
			c0,0,0,0,0,0c0,0,0,0,0,0c0,0,0,0,0,0c0,0,0,0,0,0c0,0,0,0,0,0c0,0,0,0,0,0s0,0,0,0c0,0,0,0,0,0c0,0,0,0,0,0c0,0,0,0,0,0
			c0,0,0,0,0,0c0,0,0,0,0,0c0,0,0,0,0,0c0,0,0,0,0,0l0,0c0.2-0.3,0.4-0.5,0.6-0.8l0,0c0,0,0,0,0,0c0,0,0,0,0,0c0,0,0,0,0,0
			c0,0,0,0,0,0c0,0,0,0,0,0c0,0,0,0,0,0c0,0,0,0,0,0c0,0,0,0,0,0c0,0,0,0,0,0c0,0,0,0,0,0c0,0,0,0,0,0c0.1-0.2,0.2-0.3,0.4-0.5
			L60.6,56L60.6,56z M61.8,54.2c-0.2,0.3-0.4,0.6-0.6,0.9L78,66.3c0-0.1,0.1-0.1,0.1-0.2c0,0,0,0,0,0c0,0,0,0,0,0
			c0.3-0.5,0.6-1,0.9-1.4l0,0c0,0,0,0,0,0c0,0,0,0,0,0L61.8,54.2L61.8,54.2z M62.8,52.4c-0.1,0.3-0.3,0.6-0.5,0.9L80,62.8
			c0.1-0.2,0.2-0.3,0.3-0.5c0.1-0.3,0.3-0.6,0.4-0.8c0,0,0,0,0,0c0,0,0,0,0,0c0,0,0,0,0,0c0,0,0,0,0,0c0,0,0,0,0,0c0,0,0,0,0,0
			c0,0,0,0,0,0c0,0,0,0,0,0c0.1-0.1,0.1-0.2,0.2-0.3L62.8,52.4L62.8,52.4z M63.6,50.4c-0.1,0.3-0.2,0.7-0.4,1l18.6,7.8
			c0.1-0.2,0.2-0.5,0.3-0.7c0,0,0,0,0,0c0,0,0,0,0,0c0,0,0,0,0,0c0,0,0,0,0,0c0,0,0,0,0,0c0,0,0,0,0,0c0,0,0,0,0,0c0,0,0,0,0,0
			c0.1-0.4,0.3-0.7,0.4-1.1L63.6,50.4L63.6,50.4z M64.2,48.5c-0.1,0.3-0.2,0.7-0.3,1l19.3,5.9c0-0.1,0.1-0.3,0.1-0.4l0,0
			c0,0,0,0,0,0c0,0,0,0,0,0c0,0,0,0,0,0c0,0,0,0,0,0c0,0,0,0,0,0c0,0,0,0,0,0c0,0,0,0,0,0c0,0,0,0,0,0c0,0,0,0,0,0c0,0,0,0,0,0
			c0,0,0,0,0,0c0,0,0,0,0,0c0,0,0,0,0,0c0,0,0,0,0,0c0,0,0,0,0,0c0,0,0,0,0,0c0,0,0,0,0,0v0c0,0,0,0,0,0v0c0.1-0.4,0.2-0.8,0.3-1.2
			L64.2,48.5L64.2,48.5z M64.6,46.4c-0.1,0.3-0.1,0.7-0.2,1l19.7,4.1c0.1-0.6,0.2-1.2,0.3-1.7c0-0.1,0-0.2,0-0.2L64.6,46.4
			L64.6,46.4z M64.8,44.3c0,0.3,0,0.7-0.1,1l20,2.1c0-0.2,0-0.5,0.1-0.7c0,0,0,0,0,0c0,0,0,0,0,0c0,0,0,0,0,0c0,0,0,0,0,0
			c0,0,0,0,0,0c0,0,0,0,0,0c0-0.4,0.1-0.8,0.1-1.2c0,0,0,0,0-0.1L64.8,44.3L64.8,44.3z M85,41.5l-20.1,0.7c0,0.3,0,0.5,0,0.8l0,0.3
			L85,43.5c0-0.1,0-0.3,0-0.4c0,0,0,0,0,0c0,0,0,0,0,0c0,0,0,0,0,0c0,0,0,0,0,0c0,0,0,0,0,0l0,0l0,0c0,0,0,0,0,0c0,0,0,0,0,0
			c0,0,0,0,0,0c0,0,0,0,0,0c0,0,0,0,0,0c0,0,0,0,0,0c0,0,0,0,0,0c0,0,0,0,0,0c0,0,0,0,0,0c0,0,0,0,0,0c0,0,0,0,0,0c0,0,0,0,0,0
			c0,0,0,0,0,0c0,0,0,0,0,0c0,0,0,0,0,0c0,0,0,0,0,0c0,0,0,0,0,0c0,0,0-0.1,0-0.1c0,0,0,0,0,0c0,0,0,0,0,0c0,0,0,0,0,0
			c0-0.1,0-0.3,0-0.4v0c0,0,0-0.1,0-0.1c0,0,0,0,0,0c0,0,0,0,0,0c0,0,0,0,0,0c0,0,0,0,0,0c0,0,0,0,0,0c0,0,0,0,0,0c0,0,0,0,0,0
			c0,0,0,0,0,0C85,41.7,85,41.6,85,41.5L85,41.5z M84.6,37.5l-20,2.6c0,0.3,0.1,0.7,0.1,1l20.1-1.7c0-0.2,0-0.3,0-0.5c0,0,0,0,0,0
			c0,0,0,0,0,0c0,0,0,0,0,0c0,0,0,0,0,0c0,0,0,0,0,0c0,0,0,0,0,0c0,0,0,0,0,0c0,0,0,0,0,0c0,0,0,0,0,0l0,0
			C84.8,38.4,84.7,37.9,84.6,37.5L84.6,37.5z M83.9,33.5L64.3,38c0.1,0.3,0.1,0.7,0.2,1l19.8-3.6c-0.1-0.3-0.1-0.6-0.2-1v0
			c0,0,0,0,0,0c0,0,0,0,0,0c0,0,0,0,0,0c0,0,0,0,0,0s0,0,0,0s0,0,0,0c0,0,0,0,0,0c0,0,0,0,0,0c0,0,0,0,0,0c0,0,0,0,0,0c0,0,0,0,0,0
			c0,0,0,0,0,0c0,0,0,0,0,0c0,0,0,0,0,0c0,0,0,0,0,0c0,0,0,0,0,0c0,0,0,0,0,0c0,0,0,0,0,0c0,0,0,0,0,0c0,0,0,0,0,0c0,0,0,0,0,0
			c0,0,0,0,0,0c0,0,0,0,0,0c0-0.1,0-0.2-0.1-0.3c0,0,0,0,0,0c0,0,0,0,0,0c0,0,0,0,0,0c0,0,0,0,0,0c0,0,0,0,0,0c0,0,0,0,0,0
			C84,33.7,83.9,33.6,83.9,33.5L83.9,33.5z M82.8,29.6L63.7,36c0.1,0.3,0.2,0.7,0.3,1l19.4-5.5c0,0,0,0,0,0c0,0,0,0,0,0c0,0,0,0,0,0
			c0,0,0,0,0,0c0,0,0,0,0,0c0,0,0,0,0,0c0,0,0,0,0,0l0,0c-0.1-0.5-0.3-1-0.5-1.5c0,0,0,0,0,0c0,0,0,0,0,0c0,0,0,0,0,0c0,0,0,0,0,0
			C82.9,29.8,82.9,29.7,82.8,29.6L82.8,29.6z M81.4,25.9L63,34.1c0.1,0.3,0.3,0.6,0.4,1l18.8-7.3C81.9,27.1,81.6,26.5,81.4,25.9
			L81.4,25.9z M79.5,22.3L62,32.2c0.2,0.3,0.3,0.6,0.5,0.9l18-9.1c-0.3-0.5-0.5-1-0.8-1.6v0c0,0,0,0,0,0c0,0,0,0,0,0c0,0,0,0,0,0
			c0,0,0,0,0,0c0,0,0,0,0,0c0,0,0,0,0,0c0,0,0,0,0,0c0,0,0,0,0,0C79.6,22.4,79.6,22.4,79.5,22.3C79.6,22.4,79.6,22.4,79.5,22.3
			C79.6,22.4,79.6,22.3,79.5,22.3C79.6,22.3,79.6,22.3,79.5,22.3C79.6,22.3,79.6,22.3,79.5,22.3C79.6,22.3,79.6,22.3,79.5,22.3
			C79.5,22.3,79.5,22.3,79.5,22.3C79.5,22.3,79.5,22.3,79.5,22.3L79.5,22.3z M77.4,18.9L60.9,30.5c0.2,0.3,0.4,0.6,0.6,0.9l17-10.8
			c0-0.1-0.1-0.1-0.1-0.2c0,0,0,0,0,0c0,0,0,0,0,0c0,0,0,0,0,0l0,0c-0.2-0.3-0.4-0.7-0.7-1c0,0,0,0,0,0c0,0,0,0,0,0c0,0,0,0,0,0
			c0,0,0,0,0,0C77.6,19.1,77.5,19,77.4,18.9L77.4,18.9z M74.9,15.7L59.6,28.8c0.2,0.3,0.5,0.5,0.7,0.8l15.9-12.4
			c0,0-0.1-0.1-0.1-0.1l0,0c0,0,0,0,0,0c0,0,0,0,0,0c0,0,0,0,0,0c0,0,0,0,0,0c0,0,0,0,0,0c0,0,0,0,0,0c0,0,0,0,0,0c0,0,0,0,0,0
			c0,0,0,0,0,0c0,0,0,0,0,0c0,0,0,0,0,0c0,0,0,0,0,0c0,0,0,0,0,0c0,0,0,0,0,0c0,0,0,0,0,0c0,0,0,0,0,0c0,0,0,0,0,0c0,0,0,0,0,0
			c0,0,0,0,0,0c0,0,0,0,0,0c0,0,0,0,0,0c0,0,0,0,0,0c0,0,0,0,0,0c0,0,0,0,0,0c0,0,0,0,0,0c0,0,0,0,0,0c0,0,0,0,0,0c0,0,0,0,0,0
			c0,0,0,0,0,0c0,0,0,0,0,0c0,0,0,0,0,0c0,0,0,0,0,0c0,0,0,0,0,0c0,0,0,0,0,0c0,0,0,0,0,0c0,0,0,0,0,0c0,0,0,0,0,0c0,0,0,0,0,0
			c0,0,0,0,0,0c0,0,0,0,0,0c0,0,0,0,0,0c0,0,0,0,0,0c0,0,0,0,0,0c0,0,0,0,0,0c0,0,0,0,0,0c0,0,0,0,0,0c0,0,0,0,0,0c0,0,0,0,0,0
			c0,0,0,0,0,0c0,0,0,0,0,0c0,0,0,0,0,0c0,0,0,0,0,0c0,0,0,0,0,0c0,0,0,0,0,0c0,0,0,0,0,0c0,0,0,0,0,0c0,0,0,0,0,0c0,0,0,0,0,0
			c0,0,0,0,0,0c0,0,0,0,0,0c0,0,0,0,0,0c0,0,0,0,0,0c0,0,0,0,0,0c0,0,0,0,0,0c0,0,0,0,0,0c0,0,0,0,0,0c0,0,0,0,0,0c0,0,0,0,0,0
			c0,0,0,0,0,0c0,0,0,0,0,0c0,0,0,0,0,0c0,0,0,0,0,0c0,0,0,0,0,0c0,0,0,0,0,0c0,0,0,0,0,0c0,0,0,0,0,0c0,0,0,0,0,0c0,0,0,0,0,0
			c0,0,0,0,0,0c0,0,0,0,0,0c0,0,0,0,0,0c0,0,0,0,0,0c0,0,0,0,0,0c0,0,0,0,0,0c0,0,0,0,0,0c0,0,0,0,0,0c0,0,0,0,0,0c0,0,0,0,0,0
			c0,0,0,0,0,0c0,0,0,0,0,0c0,0,0,0,0,0c0,0,0,0,0,0c0,0,0,0,0,0c0,0,0,0,0,0c0,0,0,0,0,0c0,0,0,0,0,0s0,0,0,0c0,0,0,0,0,0
			c0,0,0,0,0,0c0,0,0,0,0,0c0,0,0,0,0,0c0,0,0,0,0,0c0,0,0,0,0,0C75,15.8,75,15.7,74.9,15.7L74.9,15.7z M72.2,12.8l-14,14.5
			c0.3,0.2,0.5,0.5,0.7,0.7l14.7-13.8c0,0,0,0,0,0C73.1,13.7,72.6,13.2,72.2,12.8L72.2,12.8z M69.1,10.1L56.6,25.9
			c0.3,0.2,0.5,0.4,0.8,0.7l13.3-15.2c-0.1-0.1-0.2-0.1-0.2-0.2c0,0,0,0,0,0c0,0,0,0,0,0c0,0,0,0,0,0c0,0,0,0,0,0
			C70,10.8,69.6,10.5,69.1,10.1L69.1,10.1z M65.9,7.8l-11,16.9c0.3,0.2,0.6,0.4,0.9,0.6L67.5,8.9c-0.2-0.1-0.3-0.2-0.5-0.3
			c0,0,0,0,0,0c0,0,0,0,0,0c0,0,0,0,0,0c0,0,0,0,0,0c0,0,0,0,0,0c0,0,0,0,0,0c-0.2-0.1-0.3-0.2-0.5-0.4c0,0,0,0,0,0c0,0,0,0,0,0
			c0,0,0,0,0,0c0,0,0,0,0,0c0,0,0,0,0,0c0,0,0,0,0,0C66.2,8,66,7.9,65.9,7.8L65.9,7.8z M62.4,5.7l-9.3,17.9c0.3,0.2,0.6,0.3,0.9,0.5
			L64.1,6.7c-0.1-0.1-0.3-0.2-0.4-0.3l0,0c0,0,0,0-0.1,0l0,0c0,0,0,0-0.1,0l0,0C63.2,6.2,62.8,5.9,62.4,5.7L62.4,5.7z M58.7,4
			l-7.5,18.7c0.3,0.1,0.6,0.3,1,0.4l8.4-18.3c0,0,0,0,0,0c0,0,0,0,0,0c0,0,0,0,0,0c0,0,0,0,0,0c0,0,0,0,0,0c0,0,0,0,0,0c0,0,0,0,0,0
			c0,0,0,0,0,0c0,0,0,0,0,0c0,0,0,0,0,0c0,0,0,0,0,0c0,0,0,0,0,0c0,0,0,0,0,0c0,0,0,0,0,0c0,0,0,0,0,0c0,0,0,0,0,0c0,0,0,0,0,0
			c0,0,0,0,0,0c0,0,0,0,0,0c0,0,0,0,0,0c0,0,0,0,0,0c0,0,0,0,0,0C59.7,4.5,59.2,4.2,58.7,4L58.7,4z M54.9,2.7L49.2,22
			c0.3,0.1,0.7,0.2,1,0.3l6.6-19c-0.4-0.2-0.9-0.3-1.3-0.4c0,0,0,0,0,0c0,0,0,0,0,0c0,0,0,0,0,0c0,0,0,0,0,0c0,0,0,0,0,0
			c0,0,0,0,0,0c0,0,0,0,0,0c0,0,0,0,0,0c0,0,0,0,0,0c0,0,0,0,0,0C55.2,2.8,55.1,2.8,54.9,2.7L54.9,2.7z M51,1.8l-3.8,19.8
			c0.3,0.1,0.7,0.1,1,0.2L53,2.2c0,0,0,0,0,0c0,0,0,0,0,0c0,0,0,0,0,0c0,0,0,0,0,0c0,0,0,0,0,0c0,0,0,0,0,0c0,0,0,0,0,0c0,0,0,0,0,0
			c0,0,0,0,0,0c0,0,0,0,0,0c0,0,0,0,0,0c0,0,0,0,0,0c0,0,0,0,0,0c0,0,0,0,0,0c0,0,0,0,0,0h0c-0.3-0.1-0.6-0.1-0.8-0.2c0,0,0,0,0,0
			c0,0,0,0-0.1,0c0,0,0,0,0,0c0,0,0,0,0,0c0,0,0,0,0,0c0,0,0,0,0,0c0,0,0,0,0,0c0,0,0,0,0,0c0,0,0,0,0,0c0,0,0,0,0,0c0,0,0,0,0,0
			c0,0,0,0,0,0c0,0,0,0,0,0c0,0,0,0,0,0C51.4,1.9,51.2,1.8,51,1.8L51,1.8z M47,1.2l-1.9,20.1c0.3,0,0.7,0.1,1,0.1L49,1.4
			c-0.2,0-0.3,0-0.5-0.1l0,0c0,0,0,0,0,0c0,0,0,0,0,0c0,0,0,0,0,0c0,0,0,0,0,0c0,0,0,0,0,0s0,0,0,0c0,0,0,0,0,0c0,0,0,0,0,0
			c0,0,0,0,0,0c0,0,0,0,0,0c0,0,0,0,0,0c0,0,0,0,0,0l0,0c-0.3,0-0.6-0.1-0.9-0.1h0c0,0,0,0,0,0c0,0,0,0,0,0c0,0,0,0,0,0c0,0,0,0,0,0
			c0,0,0,0,0,0c0,0,0,0,0,0c0,0,0,0,0,0C47.2,1.2,47.1,1.2,47,1.2L47,1.2z M43,1v20.1c0.4,0,0.7,0,1.1,0L45,1c-0.4,0-0.8,0-1.2,0
			l0,0c0,0,0,0,0,0c0,0,0,0,0,0c0,0,0,0,0,0c0,0,0,0,0,0c0,0,0,0,0,0c0,0,0,0,0,0c0,0,0,0,0,0c0,0,0,0,0,0c0,0,0,0,0,0c0,0,0,0,0,0
			c0,0,0,0,0,0c0,0,0,0,0,0c0,0,0,0,0,0c0,0,0,0,0,0c0,0,0,0,0,0c0,0,0,0,0,0c0,0,0,0,0,0c0,0,0,0,0,0c0,0,0,0,0,0c0,0,0,0,0,0
			c0,0,0,0,0,0c0,0,0,0,0,0c0,0,0,0,0,0c0,0,0,0,0,0c0,0,0,0,0,0c0,0,0,0,0,0c0,0,0,0,0,0c0,0,0,0,0,0c0,0,0,0,0,0c0,0,0,0,0,0
			s0,0,0,0c0,0,0,0,0,0c0,0,0,0,0,0c0,0,0,0,0,0c0,0,0,0,0,0c0,0,0,0,0,0c0,0,0,0,0,0c0,0,0,0,0,0c0,0,0,0,0,0c0,0,0,0,0,0
			C43.1,1,43.1,1,43,1C43.1,1,43.1,1,43,1C43.1,1,43.1,1,43,1C43.1,1,43,1,43,1C43,1,43,1,43,1C43,1,43,1,43,1L43,1z"/>
	</g>
	<g>
		<path class="st7" d="M43,3C65,3,83,21,83,43c0,22-17.9,40-40,40c-22,0-40-17.9-40-40C3,21,20.9,3,43,3 M43,1C19.8,1,1,19.8,1,43
			c0,23.2,18.8,42,42,42c23.2,0,42-18.8,42-42C85,19.8,66.2,1,43,1L43,1z"/>
	</g>
	<g class="st2">
		<path d="M79.3,43C79.3,63,63,79.3,43,79.3C23,79.3,6.7,63,6.7,43C6.7,23,23,6.7,43,6.7C63,6.7,79.3,23,79.3,43z"/>
	</g>
	<g>
		<path class="st8" d="M43,71.3c-15.6,0-28.3-12.7-28.3-28.3c0-15.6,12.7-28.3,28.3-28.3c15.6,0,28.3,12.7,28.3,28.3
			C71.3,58.6,58.6,71.3,43,71.3z"/>
		<path class="st5" d="M43,17.7c14,0,25.3,11.4,25.3,25.3c0,14-11.4,25.3-25.3,25.3C29,68.3,17.7,57,17.7,43
			C17.7,29.1,29,17.7,43,17.7 M43,11.7c-17.3,0-31.4,14-31.4,31.4c0,17.3,14,31.4,31.4,31.4c17.3,0,31.4-14,31.4-31.4
			C74.3,25.7,60.3,11.7,43,11.7L43,11.7z"/>
	</g>
</g>
</svg>
