<?xml version="1.0" encoding="utf-8"?>
<!-- Generator: Adobe Illustrator 25.2.1, SVG Export Plug-In . SVG Version: 6.00 Build 0)  -->
<svg version="1.1" id="Layer_1" xmlns="http://www.w3.org/2000/svg" xmlns:xlink="http://www.w3.org/1999/xlink" x="0px" y="0px"
	 width="200px" height="100px" viewBox="0 0 200 100" style="enable-background:new 0 0 200 100;" xml:space="preserve">
<style type="text/css">
	.st0{fill:#141414;}
	.st1{enable-background:new    ;}
	.st2{fill:#53C3C4;}
	.st3{fill:#FFFFFF;}
</style>
<g>
	<g>
		<g id="A_1_">
			<path class="st0" d="M25,1c13.3,0,24,10.7,24,24c0,13.3-10.7,24-24,24C11.7,49,1,38.3,1,25C1,11.7,11.7,1,25,1z"/>
		</g>
		<g class="st1">
			<path class="st2" d="M33.9,40.5l-2.8-7.8H18.8l-2.7,7.8h-5.6l11.6-31h5.7l11.7,31H33.9z M25,14.2h-0.1c-0.1,0.9-0.2,1.6-0.5,2.2
				l-4.2,11.9h9.4l-4.2-11.9C25.2,16,25.1,15.3,25,14.2z"/>
		</g>
	</g>
	<g>
		<g id="B_1_">
			<path class="st0" d="M75,1c13.3,0,24,10.8,24,24S88.3,49,75,49c-13.3,0-24-10.7-24-24S61.7,1,75,1z"/>
		</g>
		<g class="st1">
			<path class="st2" d="M86.5,31.5c0,2.7-1,4.9-3,6.5c-2,1.7-4.6,2.5-7.8,2.5H65.5v-31h9.9c3,0,5.3,0.7,7.1,1.9
				c1.7,1.3,2.6,3,2.6,5.2c0,1.7-0.5,3.2-1.5,4.4c-1,1.3-2.4,2.2-4.1,2.7v0.1c2.2,0.3,4,1.1,5.2,2.4C85.9,27.7,86.5,29.4,86.5,31.5z
				 M79.5,17.6c0-1.2-0.5-2.2-1.4-2.9c-0.9-0.7-2.3-1-4.1-1h-3.4v8.6H74c1.7,0,3.1-0.4,4.1-1.2C79,20.3,79.5,19.2,79.5,17.6z
				 M81,31.3c0-1.5-0.5-2.6-1.6-3.5c-1.1-0.8-2.7-1.2-4.8-1.2h-3.9v9.6h4.4c1.9,0,3.3-0.4,4.4-1.3C80.5,34,81,32.8,81,31.3z"/>
		</g>
	</g>
	<g>
		<g id="Y_1_">
			<path class="st0" d="M175,1c13.3,0,24,10.8,24,24c0,13.3-10.7,24-24,24c-13.2,0-24-10.7-24-24C151,11.8,161.7,1,175,1z"/>
		</g>
		<g class="st1">
			<path class="st2" d="M177.4,29.3v11.2h-5V29.4l-9.9-19.9h5.7l6.1,12.9c0.2,0.4,0.3,0.8,0.4,1.1c0.1,0.3,0.2,0.6,0.3,0.8h0
				c0.2-0.7,0.4-1.3,0.7-1.9l6.4-13h5.3L177.4,29.3z"/>
		</g>
	</g>
	<g>
		<g id="X_1_">
			<path class="st0" d="M125,1c13.3,0,24,10.8,24,24s-10.7,24-24,24c-13.2,0-24-10.7-24-24S111.7,1,125,1z"/>
		</g>
		<g class="st1">
			<path class="st2" d="M132.3,40.5l-6.6-11.3c-0.1-0.3-0.2-0.5-0.3-0.8c-0.1-0.3-0.1-0.5-0.2-0.8h-0.1c-0.1,0.3-0.2,0.5-0.3,0.8
				c-0.1,0.2-0.2,0.5-0.3,0.8l-6.7,11.3h-6.3L121.9,25l-9.5-15.5h6.3l5.5,10.2c0.5,0.9,0.9,1.7,1.1,2.3h0.1c0.3-0.8,0.6-1.3,0.7-1.6
				c0.1-0.2,2.3-3.9,6.4-10.9h5.8l-9.7,15.4l9.8,15.6H132.3z"/>
		</g>
	</g>
</g>
<g>
	<g>
		<g id="A_2_">
			<path class="st3" d="M25,51c13.3,0,24,10.7,24,24c0,13.3-10.7,24-24,24C11.7,99,1,88.3,1,75C1,61.7,11.7,51,25,51z"/>
		</g>
		<g class="st1">
			<path class="st0" d="M33.9,90.5l-2.8-7.8H18.8l-2.7,7.8h-5.6l11.6-31h5.7l11.7,31H33.9z M25,64.2h-0.1c-0.1,0.9-0.2,1.6-0.5,2.2
				l-4.2,11.9h9.4l-4.2-11.9C25.2,66,25.1,65.3,25,64.2z"/>
		</g>
	</g>
	<g>
		<g id="B_2_">
			<path class="st3" d="M75,51c13.3,0,24,10.8,24,24S88.3,99,75,99c-13.3,0-24-10.7-24-24S61.7,51,75,51z"/>
		</g>
		<g class="st1">
			<path class="st0" d="M86.5,81.5c0,2.7-1,4.9-3,6.5c-2,1.7-4.6,2.5-7.8,2.5H65.5v-31h9.9c3,0,5.3,0.7,7.1,1.9
				c1.7,1.3,2.6,3,2.6,5.2c0,1.7-0.5,3.2-1.5,4.4c-1,1.3-2.4,2.2-4.1,2.7v0.1c2.2,0.3,4,1.1,5.2,2.4C85.9,77.7,86.5,79.4,86.5,81.5z
				 M79.5,67.6c0-1.2-0.5-2.2-1.4-2.9c-0.9-0.7-2.3-1-4.1-1h-3.4v8.6H74c1.7,0,3.1-0.4,4.1-1.2C79,70.3,79.5,69.2,79.5,67.6z
				 M81,81.3c0-1.5-0.5-2.6-1.6-3.5c-1.1-0.8-2.7-1.2-4.8-1.2h-3.9v9.6h4.4c1.9,0,3.3-0.4,4.4-1.3C80.5,84,81,82.8,81,81.3z"/>
		</g>
	</g>
	<g>
		<g id="Y_2_">
			<path class="st3" d="M175,51c13.3,0,24,10.8,24,24c0,13.3-10.7,24-24,24c-13.2,0-24-10.7-24-24C151,61.8,161.7,51,175,51z"/>
		</g>
		<g class="st1">
			<path class="st0" d="M177.5,79.3v11.2h-5.2V79.4L162,59.5h6l6.4,12.9c0.2,0.4,0.4,0.8,0.5,1.1c0.1,0.3,0.2,0.6,0.3,0.8h0
				c0.2-0.7,0.4-1.3,0.7-1.9l6.6-13h5.6L177.5,79.3z"/>
		</g>
	</g>
	<g>
		<g id="X_2_">
			<path class="st3" d="M125,51c13.3,0,24,10.8,24,24s-10.7,24-24,24c-13.2,0-24-10.7-24-24S111.7,51,125,51z"/>
		</g>
		<g class="st1">
			<path class="st0" d="M132.2,90.3l-6.5-11.2c-0.1-0.3-0.2-0.5-0.3-0.8c0-0.3-0.1-0.5-0.2-0.8h-0.1c-0.1,0.3-0.2,0.5-0.3,0.8
				c-0.1,0.2-0.2,0.5-0.3,0.8l-6.6,11.2h-6.2L121.9,75l-9.4-15.3h6.3l5.5,10.1c0.5,0.9,0.9,1.7,1.1,2.3h0.1c0.3-0.8,0.5-1.3,0.7-1.6
				c0.1-0.2,2.2-3.8,6.4-10.8h5.7l-9.6,15.2l9.7,15.5H132.2z"/>
		</g>
	</g>
</g>
</svg>
