<?xml version="1.0" encoding="utf-8"?>
<!-- Generator: Adobe Illustrator 25.2.1, SVG Export Plug-In . SVG Version: 6.00 Build 0)  -->
<svg version="1.1" id="Layer_1" xmlns="http://www.w3.org/2000/svg" xmlns:xlink="http://www.w3.org/1999/xlink" x="0px" y="0px"
	 width="200px" height="100px" viewBox="0 0 200 100" style="enable-background:new 0 0 200 100;" xml:space="preserve">
<style type="text/css">
	.st0{fill:#141414;}
	.st1{enable-background:new    ;}
	.st2{fill:#53C3C4;}
	.st3{fill:#FFFFFF;}
</style>
<g>
	<g>
		<g id="A_1_">
			<path class="st0" d="M25,1c13.3,0,24,10.7,24,24c0,13.3-10.7,24-24,24C11.7,49,1,38.3,1,25C1,11.7,11.7,1,25,1z"/>
		</g>
		<g class="st1">
			<path class="st2" d="M33.9,40.4l-2.8-7.8H18.8l-2.7,7.8h-5.6L22.2,9.6h5.7l11.7,30.7H33.9z M25,14.3h-0.1
				c-0.1,0.9-0.2,1.6-0.5,2.2l-4.2,11.8h9.4l-4.2-11.8C25.2,16.1,25.1,15.4,25,14.3z"/>
		</g>
	</g>
	<g>
		<g id="B_1_">
			<path class="st0" d="M75,1c13.3,0,24,10.8,24,24S88.3,49,75,49c-13.3,0-24-10.7-24-24S61.7,1,75,1z"/>
		</g>
		<g class="st1">
			<path class="st2" d="M85.2,31.3c0,2.6-1,4.8-2.9,6.4c-2,1.6-4.5,2.4-7.6,2.4h-9.9V9.8h9.6c2.9,0,5.2,0.6,6.9,1.9
				c1.7,1.3,2.5,3,2.5,5.1c0,1.6-0.5,3.1-1.5,4.3c-1,1.3-2.3,2.1-4,2.7v0.1c2.2,0.3,3.8,1.1,5.1,2.4C84.6,27.6,85.2,29.3,85.2,31.3z
				 M78.4,17.8c0-1.2-0.5-2.1-1.3-2.8c-0.9-0.6-2.2-1-4-1h-3.3v8.4h3.2c1.7,0,3-0.4,4-1.2C78,20.4,78.4,19.3,78.4,17.8z M79.9,31.2
				c0-1.4-0.5-2.6-1.6-3.4c-1.1-0.8-2.6-1.2-4.7-1.2h-3.8V36h4.2c1.8,0,3.2-0.4,4.2-1.3C79.4,33.8,79.9,32.7,79.9,31.2z"/>
		</g>
	</g>
	<g>
		<g id="Y_1_">
			<path class="st0" d="M175,1c13.3,0,24,10.8,24,24c0,13.3-10.7,24-24,24c-13.2,0-24-10.7-24-24C151,11.8,161.7,1,175,1z"/>
		</g>
		<g class="st1">
			<path class="st2" d="M177.4,29.2v11h-5V29.3l-9.8-19.4h5.7l6.1,12.7c0.2,0.4,0.3,0.8,0.4,1.1c0.1,0.3,0.2,0.6,0.3,0.8h0
				c0.2-0.6,0.4-1.3,0.7-1.9l6.3-12.7h5.3L177.4,29.2z"/>
		</g>
	</g>
	<g>
		<g id="X_1_">
			<path class="st0" d="M125,1c13.3,0,24,10.8,24,24s-10.7,24-24,24c-13.2,0-24-10.7-24-24S111.7,1,125,1z"/>
		</g>
		<g class="st1">
			<path class="st2" d="M132.2,40.3l-6.5-11.2c-0.1-0.3-0.2-0.5-0.3-0.8c0-0.3-0.1-0.5-0.2-0.8h-0.1c-0.1,0.3-0.2,0.5-0.3,0.8
				c-0.1,0.2-0.2,0.5-0.3,0.8l-6.6,11.2h-6.2L121.9,25l-9.4-15.3h6.3l5.5,10.1c0.5,0.9,0.9,1.7,1.1,2.3h0.1c0.3-0.8,0.5-1.3,0.7-1.6
				c0.1-0.2,2.2-3.8,6.3-10.8h5.7l-9.6,15.2l9.7,15.5H132.2z"/>
		</g>
	</g>
</g>
<g>
	<g>
		<g id="A_2_">
			<path class="st3" d="M25,51c13.3,0,24,10.7,24,24c0,13.3-10.7,24-24,24C11.7,99,1,88.3,1,75C1,61.7,11.7,51,25,51z"/>
		</g>
		<g class="st1">
			<path class="st0" d="M33.9,90.4l-2.8-7.8H18.8l-2.7,7.8h-5.6l11.6-30.7h5.7l11.7,30.7H33.9z M25,64.3h-0.1
				c-0.1,0.9-0.2,1.6-0.5,2.2l-4.2,11.8h9.4l-4.2-11.8C25.2,66.1,25.1,65.4,25,64.3z"/>
		</g>
	</g>
	<g>
		<g id="B_2_">
			<path class="st3" d="M75,51c13.3,0,24,10.8,24,24S88.3,99,75,99c-13.3,0-24-10.7-24-24S61.7,51,75,51z"/>
		</g>
		<g class="st1">
			<path class="st0" d="M85.2,81.3c0,2.6-1,4.8-2.9,6.4c-2,1.6-4.5,2.4-7.6,2.4h-9.9V59.8h9.6c2.9,0,5.2,0.6,6.9,1.9
				c1.7,1.3,2.5,3,2.5,5.1c0,1.6-0.5,3.1-1.5,4.4c-1,1.3-2.3,2.2-4,2.7v0.1c2.2,0.3,3.8,1.1,5.1,2.4C84.6,77.6,85.2,79.3,85.2,81.3z
				 M78.4,67.8c0-1.2-0.5-2.1-1.3-2.8c-0.9-0.6-2.2-1-4-1h-3.3v8.4h3.2c1.7,0,3-0.4,4-1.2C78,70.4,78.4,69.3,78.4,67.8z M79.9,81.2
				c0-1.4-0.5-2.6-1.6-3.4c-1.1-0.8-2.6-1.2-4.7-1.2h-3.8V86h4.2c1.8,0,3.2-0.4,4.2-1.3C79.4,83.8,79.9,82.7,79.9,81.2z"/>
		</g>
	</g>
	<g>
		<g id="Y_2_">
			<path class="st3" d="M175,51c13.3,0,24,10.8,24,24c0,13.3-10.7,24-24,24c-13.2,0-24-10.7-24-24C151,61.8,161.7,51,175,51z"/>
		</g>
		<g class="st1">
			<path class="st0" d="M177.4,79.2v11.1h-5.1v-11l-10-19.7h5.8l6.2,12.8c0.2,0.4,0.3,0.8,0.4,1.1c0.1,0.3,0.2,0.6,0.3,0.8h0
				c0.2-0.7,0.4-1.3,0.7-1.9l6.4-12.9h5.4L177.4,79.2z"/>
		</g>
	</g>
	<g>
		<g id="X_2_">
			<path class="st3" d="M125,51c13.3,0,24,10.8,24,24s-10.7,24-24,24c-13.2,0-24-10.7-24-24S111.7,51,125,51z"/>
		</g>
		<g class="st1">
			<path class="st0" d="M132.2,90.3l-6.5-11.2c-0.1-0.3-0.2-0.5-0.3-0.8c0-0.3-0.1-0.5-0.2-0.8h-0.1c-0.1,0.3-0.2,0.5-0.3,0.8
				c-0.1,0.2-0.2,0.5-0.3,0.8l-6.6,11.2h-6.2L121.9,75l-9.4-15.3h6.3l5.5,10.1c0.5,0.9,0.9,1.7,1.1,2.3h0.1c0.3-0.8,0.5-1.3,0.7-1.6
				c0.1-0.2,2.2-3.8,6.4-10.8h5.7l-9.6,15.2l9.7,15.5H132.2z"/>
		</g>
	</g>
</g>
</svg>
